<?xml version="1.0" encoding="UTF-8"?>
<!DOCTYPE svg PUBLIC "-//W3C//DTD SVG 1.1//EN" "http://www.w3.org/Graphics/SVG/1.1/DTD/svg11.dtd">
<svg xmlns="http://www.w3.org/2000/svg" version="1.1" width="512px" height="512px" style="shape-rendering:geometricPrecision; text-rendering:geometricPrecision; image-rendering:optimizeQuality; fill-rule:evenodd; clip-rule:evenodd" xmlns:xlink="http://www.w3.org/1999/xlink">
<g><path style="opacity:0.98" fill="#030202" d="M 152.5,-0.5 C 162.5,-0.5 172.5,-0.5 182.5,-0.5C 248.945,12.2816 286.612,52.2816 295.5,119.5C 303.833,119.5 312.167,119.5 320.5,119.5C 325.525,82.8267 330.691,46.1601 336,9.5C 338.022,4.98004 341.189,1.6467 345.5,-0.5C 350.167,-0.5 354.833,-0.5 359.5,-0.5C 369.745,1.08705 380.078,2.92038 390.5,5C 394.058,6.89172 396.558,9.72506 398,13.5C 398.667,18.1667 398.667,22.8333 398,27.5C 394.836,48.8145 392.169,70.1478 390,91.5C 397.801,72.5667 406.135,53.9 415,35.5C 421,31.2817 427.5,30.4483 434.5,33C 444.5,37.3333 454.5,41.6667 464.5,46C 471.023,51.0042 473.19,57.5042 471,65.5C 463.205,83.4174 455.705,101.417 448.5,119.5C 465.914,121.975 473.414,131.975 471,149.5C 468.982,158.016 463.815,163.35 455.5,165.5C 447.978,271.823 440.478,378.156 433,484.5C 430.304,498.026 422.471,507.026 409.5,511.5C 333.5,511.5 257.5,511.5 181.5,511.5C 169.008,507.169 161.175,498.502 158,485.5C 152.522,407.823 147.022,330.156 141.5,252.5C 90.7538,240.59 57.9205,209.59 43,159.5C 30.6636,94.105 53.1636,44.9384 110.5,12C 123.988,5.66642 137.988,1.49975 152.5,-0.5 Z"/></g>
<g><path style="opacity:1" fill="#b6e87b" d="M 279.5,119.5 C 273.833,119.5 268.167,119.5 262.5,119.5C 261.285,96.0822 252.285,76.4155 235.5,60.5C 234.306,59.7281 233.306,58.7281 232.5,57.5C 215.032,40.6671 194.032,32.0004 169.5,31.5C 167.833,31.5 166.167,31.5 164.5,31.5C 140.079,32.2204 119.079,40.8871 101.5,57.5C 100.5,59.1667 99.1667,60.5 97.5,61.5C 80.6636,78.9813 71.9969,99.9813 71.5,124.5C 71.5,126.167 71.5,127.833 71.5,129.5C 71.9948,154.011 80.6615,175.011 97.5,192.5C 98.4725,194.139 99.8058,195.473 101.5,196.5C 112.057,207.338 124.724,215.004 139.5,219.5C 140.482,222.962 140.815,226.629 140.5,230.5C 140.795,232.735 140.461,234.735 139.5,236.5C 90.6279,221.792 62.4612,189.126 55,138.5C 52.7984,87.0578 74.2984,49.2245 119.5,25C 169.175,5.30433 213.008,14.1377 251,51.5C 267.992,70.9613 277.492,93.628 279.5,119.5 Z"/></g>
<g><path style="opacity:1" fill="#c27d5b" d="M 366.5,16.5 C 362.467,50.8613 358.133,85.1947 353.5,119.5C 347.833,119.5 342.167,119.5 336.5,119.5C 340.794,84.4447 345.46,49.4447 350.5,14.5C 355.833,15.1667 361.167,15.8333 366.5,16.5 Z"/></g>
<g><path style="opacity:1" fill="#a26959" d="M 366.5,16.5 C 372.038,17.8934 377.705,18.5601 383.5,18.5C 378.724,52.1533 374.058,85.82 369.5,119.5C 364.167,119.5 358.833,119.5 353.5,119.5C 358.133,85.1947 362.467,50.8613 366.5,16.5 Z"/></g>
<g><path style="opacity:1" fill="#e7f8b5" d="M 164.5,31.5 C 162.817,32.8534 161.484,34.5201 160.5,36.5C 159.833,60.5 159.167,84.5 158.5,108.5C 142.368,91.8681 126.035,75.3681 109.5,59C 106.986,57.7475 104.32,57.2475 101.5,57.5C 119.079,40.8871 140.079,32.2204 164.5,31.5 Z"/></g>
<g><path style="opacity:1" fill="#e6f5b3" d="M 169.5,31.5 C 194.032,32.0004 215.032,40.6671 232.5,57.5C 230.473,57.3379 228.473,57.5045 226.5,58C 209.965,74.7018 193.299,91.2018 176.5,107.5C 175.833,84.1667 175.167,60.8333 174.5,37.5C 173.55,34.8851 171.883,32.8851 169.5,31.5 Z"/></g>
<g><path style="opacity:1" fill="#383c2c" d="M 160.5,36.5 C 160.833,60.8425 160.5,85.1758 159.5,109.5C 158.893,109.376 158.56,109.043 158.5,108.5C 159.167,84.5 159.833,60.5 160.5,36.5 Z"/></g>
<g><path style="opacity:1" fill="#b0bc89" d="M 174.5,37.5 C 175.167,60.8333 175.833,84.1667 176.5,107.5C 176.44,108.043 176.107,108.376 175.5,108.5C 174.5,84.8427 174.167,61.1761 174.5,37.5 Z"/></g>
<g><path style="opacity:1" fill="#a26859" d="M 440.5,52.5 C 440.263,55.6473 439.43,58.6473 438,61.5C 429.539,80.7501 421.372,100.083 413.5,119.5C 407.5,119.5 401.5,119.5 395.5,119.5C 405.242,94.9479 415.575,70.6145 426.5,46.5C 431.109,48.7007 435.775,50.7007 440.5,52.5 Z"/></g>
<g><path style="opacity:1" fill="#835151" d="M 440.5,52.5 C 445.958,54.7291 451.292,57.2291 456.5,60C 447.674,79.649 439.341,99.4823 431.5,119.5C 425.5,119.5 419.5,119.5 413.5,119.5C 421.372,100.083 429.539,80.7501 438,61.5C 439.43,58.6473 440.263,55.6473 440.5,52.5 Z"/></g>
<g><path style="opacity:1" fill="#e7f7b4" d="M 97.5,61.5 C 97.2475,64.3198 97.7475,66.9865 99,69.5C 115.5,86 132,102.5 148.5,119C 124.5,119.333 100.5,119.667 76.5,120C 74.6383,121.366 72.9717,122.866 71.5,124.5C 71.9969,99.9813 80.6636,78.9813 97.5,61.5 Z"/></g>
<g><path style="opacity:1" fill="#e8f8b5" d="M 235.5,60.5 C 252.285,76.4155 261.285,96.0822 262.5,119.5C 236.995,119.831 211.661,119.498 186.5,118.5C 202.799,102.702 218.965,86.7018 235,70.5C 236.735,67.2103 236.901,63.877 235.5,60.5 Z"/></g>
<g><path style="opacity:1" fill="#4b5239" d="M 186.5,118.5 C 211.661,119.498 236.995,119.831 262.5,119.5C 268.167,119.5 273.833,119.5 279.5,119.5C 248.331,120.83 216.997,120.83 185.5,119.5C 185.624,118.893 185.957,118.56 186.5,118.5 Z"/></g>
<g><path style="opacity:1" fill="#e6f6b4" d="M 71.5,129.5 C 72.8851,131.883 74.8851,133.55 77.5,134.5C 91.8333,135.167 106.167,135.833 120.5,136.5C 118.457,143.748 119.623,150.414 124,156.5C 124.667,157.833 124.667,159.167 124,160.5C 115.333,169.167 106.667,177.833 98,186.5C 97.5045,188.473 97.3379,190.473 97.5,192.5C 80.6615,175.011 71.9948,154.011 71.5,129.5 Z"/></g>
<g><path style="opacity:1" fill="#98a377" d="M 77.5,134.5 C 92.1818,134.167 106.848,134.501 121.5,135.5C 121.376,136.107 121.043,136.44 120.5,136.5C 106.167,135.833 91.8333,135.167 77.5,134.5 Z"/></g>
<g><path style="opacity:1" fill="#dff2f8" d="M 140.5,135.5 C 223.501,135.333 306.501,135.5 389.5,136C 392.062,141.138 392.062,146.304 389.5,151.5C 325.499,151.333 261.499,151.5 197.5,152C 190.534,155.846 189.867,160.513 195.5,166C 235.165,166.5 274.832,166.667 314.5,166.5C 312.705,182.247 310.371,197.914 307.5,213.5C 300.645,215.502 293.645,216.002 286.5,215C 279.187,211.033 271.853,207.033 264.5,203C 253.927,200.1 243.26,199.767 232.5,202C 224.468,206.348 216.468,210.681 208.5,215C 202.167,215.667 195.833,215.667 189.5,215C 183.003,211.586 176.67,207.919 170.5,204C 165.1,201.476 159.433,200.309 153.5,200.5C 152.95,189.158 152.284,177.825 151.5,166.5C 157.842,166.666 164.175,166.5 170.5,166C 174.124,163.839 175.291,160.672 174,156.5C 173.167,154.333 171.667,152.833 169.5,152C 158.735,151.954 148.069,151.287 137.5,150C 132.834,143.824 133.834,138.991 140.5,135.5 Z"/></g>
<g><path style="opacity:1" fill="#c0dfe8" d="M 140.5,135.5 C 243.333,134.334 346.333,134.167 449.5,135C 456.764,137.961 458.264,142.794 454,149.5C 453.25,150.126 452.416,150.626 451.5,151C 430.836,151.5 410.169,151.667 389.5,151.5C 392.062,146.304 392.062,141.138 389.5,136C 306.501,135.5 223.501,135.333 140.5,135.5 Z"/></g>
<g><path style="opacity:1" fill="#794e39" d="M 374.5,167.5 C 386.34,166.175 398.34,166.175 410.5,167.5C 410.376,168.107 410.043,168.44 409.5,168.5C 404.025,167.511 398.358,167.178 392.5,167.5C 386.5,167.5 380.5,167.5 374.5,167.5 Z"/></g>
<g><path style="opacity:1" fill="#cb8660" d="M 329.5,166.5 C 338.833,166.5 348.167,166.5 357.5,166.5C 353.167,177.833 348.833,189.167 344.5,200.5C 337.883,199.91 331.55,200.91 325.5,203.5C 325.167,202.667 324.833,201.833 324.5,201C 326.308,189.508 327.975,178.008 329.5,166.5 Z"/></g>
<g><path style="opacity:1" fill="#d18a62" d="M 374.5,167.5 C 380.5,167.5 386.5,167.5 392.5,167.5C 386.398,180.946 380.565,194.613 375,208.5C 374.329,209.252 373.496,209.586 372.5,209.5C 367.991,207.081 363.658,204.414 359.5,201.5C 364.524,190.065 369.524,178.732 374.5,167.5 Z"/></g>
<g><path style="opacity:1" fill="#c37e5c" d="M 392.5,167.5 C 398.358,167.178 404.025,167.511 409.5,168.5C 403.288,183.927 396.788,199.261 390,214.5C 383.285,215.984 377.451,214.318 372.5,209.5C 373.496,209.586 374.329,209.252 375,208.5C 380.565,194.613 386.398,180.946 392.5,167.5 Z"/></g>
<g><path style="opacity:1" fill="#c7e9f3" d="M 426.5,166.5 C 430.833,166.5 435.167,166.5 439.5,166.5C 438.454,177.808 437.788,189.141 437.5,200.5C 426.971,200.429 417.638,203.762 409.5,210.5C 409.167,210.167 408.833,209.833 408.5,209.5C 414.788,195.26 420.788,180.927 426.5,166.5 Z"/></g>
<g><path style="opacity:1" fill="#e4f4b2" d="M 139.5,219.5 C 124.724,215.004 112.057,207.338 101.5,196.5C 104.649,196.789 107.649,196.289 110.5,195C 119,186.5 127.5,178 136,169.5C 138.162,186.098 139.328,202.764 139.5,219.5 Z"/></g>
<g><path style="opacity:1" fill="#fd7d91" d="M 377.5,229.5 C 374.765,272.853 371.765,316.186 368.5,359.5C 365.833,359.833 363.167,360.167 360.5,360.5C 365.289,344.088 364.123,328.088 357,312.5C 354.588,309.208 351.421,308.041 347.5,309C 341.551,312.56 336.051,316.726 331,321.5C 328.689,325.626 329.189,329.293 332.5,332.5C 331.206,333.29 330.039,334.29 329,335.5C 325.293,341.026 322.793,347.026 321.5,353.5C 308.184,335.009 290.184,325.842 267.5,326C 266.299,326.903 265.465,328.069 265,329.5C 263.97,347.408 269.136,363.242 280.5,377C 263.858,381.569 250.358,390.735 240,404.5C 239.107,407.916 239.607,411.083 241.5,414C 256.351,422.879 272.351,426.045 289.5,423.5C 285.943,439.854 287.109,455.854 293,471.5C 295.251,475.126 298.418,476.293 302.5,475C 317.584,466.585 328.417,454.418 335,438.5C 342.635,446.391 351.468,452.391 361.5,456.5C 362.988,464.68 360.655,471.513 354.5,477C 352.913,477.862 351.246,478.529 349.5,479C 290.834,479.5 232.168,479.667 173.5,479.5C 173.5,480.5 173.5,481.5 173.5,482.5C 167.509,393.62 161.175,304.62 154.5,215.5C 156.527,215.338 158.527,215.505 160.5,216C 169.389,221.556 178.722,226.223 188.5,230C 198.778,231.37 208.778,230.37 218.5,227C 224.67,223.081 231.003,219.414 237.5,216C 245.707,214.851 253.707,215.518 261.5,218C 277.384,231.143 295.051,234.143 314.5,227C 320.933,222.899 327.599,219.232 334.5,216C 343.168,214.664 351.502,215.664 359.5,219C 365.103,223.297 371.103,226.797 377.5,229.5 Z"/></g>
<g><path style="opacity:1" fill="#fe5e79" d="M 173.5,482.5 C 173.5,481.5 173.5,480.5 173.5,479.5C 232.168,479.667 290.834,479.5 349.5,479C 351.246,478.529 352.913,477.862 354.5,477C 360.655,471.513 362.988,464.68 361.5,456.5C 367.703,458.47 374.036,459.303 380.5,459C 382.286,458.215 383.786,457.049 385,455.5C 386.667,437.496 381.834,421.496 370.5,407.5C 386.179,402.978 399.012,394.311 409,381.5C 410.728,378.241 410.894,374.908 409.5,371.5C 397.19,363.065 383.523,359.065 368.5,359.5C 371.765,316.186 374.765,272.853 377.5,229.5C 387.953,231.201 398.287,230.701 408.5,228C 414.997,224.586 421.33,220.919 427.5,217C 430.063,215.921 432.729,215.421 435.5,215.5C 429.715,303.497 423.881,391.497 418,479.5C 417.592,487.902 413.425,493.402 405.5,496C 332.167,496.667 258.833,496.667 185.5,496C 178.843,493.844 174.843,489.344 173.5,482.5 Z"/></g>
<g><path style="opacity:1" fill="#3b4c28" d="M 140.5,230.5 C 141.797,232.693 141.797,235.027 140.5,237.5C 139.893,237.376 139.56,237.043 139.5,236.5C 140.461,234.735 140.795,232.735 140.5,230.5 Z"/></g>
<g><path style="opacity:1" fill="#050202" d="M 288.5,248.5 C 311.656,247.189 321.156,257.856 317,280.5C 310.821,292.468 300.987,296.968 287.5,294C 273.736,287.181 269.236,276.347 274,261.5C 277.329,255.43 282.162,251.096 288.5,248.5 Z"/></g>
<g><path style="opacity:1" fill="#f55b75" d="M 291.5,263.5 C 302.559,263.054 305.892,267.888 301.5,278C 293.942,281.89 288.942,279.723 286.5,271.5C 287.366,268.308 289.032,265.641 291.5,263.5 Z"/></g>
<g><path style="opacity:1" fill="#060203" d="M 207.5,272.5 C 235.009,271.175 247.843,284.175 246,311.5C 239.821,328.512 227.654,336.346 209.5,335C 191.173,329.178 182.673,316.678 184,297.5C 187.589,285.08 195.423,276.747 207.5,272.5 Z"/></g>
<g><path style="opacity:1" fill="#f95d77" d="M 209.5,287.5 C 219.245,285.57 226.412,288.904 231,297.5C 232.871,314.631 225.371,321.798 208.5,319C 198.17,312.524 196.003,304.024 202,293.5C 204.114,290.879 206.614,288.879 209.5,287.5 Z"/></g>
<g><path style="opacity:1" fill="#050202" d="M 368.5,359.5 C 383.523,359.065 397.19,363.065 409.5,371.5C 410.894,374.908 410.728,378.241 409,381.5C 399.012,394.311 386.179,402.978 370.5,407.5C 381.834,421.496 386.667,437.496 385,455.5C 383.786,457.049 382.286,458.215 380.5,459C 374.036,459.303 367.703,458.47 361.5,456.5C 351.468,452.391 342.635,446.391 335,438.5C 328.417,454.418 317.584,466.585 302.5,475C 298.418,476.293 295.251,475.126 293,471.5C 287.109,455.854 285.943,439.854 289.5,423.5C 272.351,426.045 256.351,422.879 241.5,414C 239.607,411.083 239.107,407.916 240,404.5C 250.358,390.735 263.858,381.569 280.5,377C 269.136,363.242 263.97,347.408 265,329.5C 265.465,328.069 266.299,326.903 267.5,326C 290.184,325.842 308.184,335.009 321.5,353.5C 324.507,358.161 326.341,363.161 327,368.5C 323.797,373.916 319.464,374.916 314,371.5C 307.75,356.249 296.75,346.249 281,341.5C 282.04,355.406 288.206,366.573 299.5,375C 309.085,379.536 309.752,384.87 301.5,391C 285.083,389.193 271.083,394.027 259.5,405.5C 264.713,408.553 270.379,409.886 276.5,409.5C 280.889,409.455 285.223,408.955 289.5,408C 294.808,406.343 299.975,404.51 305,402.5C 312.053,403.006 314.386,406.672 312,413.5C 302.505,426.475 299.839,440.808 304,456.5C 316.785,445.508 323.452,431.508 324,414.5C 326.981,410.304 330.814,409.471 335.5,412C 342.002,427.674 353.335,437.841 369.5,442.5C 368.08,429.163 362.08,418.329 351.5,410C 344.661,407.843 342.161,403.343 344,396.5C 344.903,395.299 346.069,394.465 347.5,394C 364.143,395.266 378.476,390.266 390.5,379C 375.688,372.317 361.355,373.317 347.5,382C 341.462,383.131 338.129,380.631 337.5,374.5C 341.17,367.82 344.337,360.82 347,353.5C 348.305,346.874 348.638,340.208 348,333.5C 347.784,331.616 347.117,329.949 346,328.5C 343.876,329.622 342.043,331.122 340.5,333C 337.739,333.722 335.073,333.555 332.5,332.5C 329.189,329.293 328.689,325.626 331,321.5C 336.051,316.726 341.551,312.56 347.5,309C 351.421,308.041 354.588,309.208 357,312.5C 364.123,328.088 365.289,344.088 360.5,360.5C 363.167,360.167 365.833,359.833 368.5,359.5 Z"/></g>
<g><path style="opacity:1" fill="#fa5d77" d="M 321.5,353.5 C 322.793,347.026 325.293,341.026 329,335.5C 330.039,334.29 331.206,333.29 332.5,332.5C 335.073,333.555 337.739,333.722 340.5,333C 342.043,331.122 343.876,329.622 346,328.5C 347.117,329.949 347.784,331.616 348,333.5C 348.638,340.208 348.305,346.874 347,353.5C 344.337,360.82 341.17,367.82 337.5,374.5C 338.129,380.631 341.462,383.131 347.5,382C 361.355,373.317 375.688,372.317 390.5,379C 378.476,390.266 364.143,395.266 347.5,394C 346.069,394.465 344.903,395.299 344,396.5C 342.161,403.343 344.661,407.843 351.5,410C 362.08,418.329 368.08,429.163 369.5,442.5C 353.335,437.841 342.002,427.674 335.5,412C 330.814,409.471 326.981,410.304 324,414.5C 323.452,431.508 316.785,445.508 304,456.5C 299.839,440.808 302.505,426.475 312,413.5C 314.386,406.672 312.053,403.006 305,402.5C 299.975,404.51 294.808,406.343 289.5,408C 285.223,408.955 280.889,409.455 276.5,409.5C 270.379,409.886 264.713,408.553 259.5,405.5C 271.083,394.027 285.083,389.193 301.5,391C 309.752,384.87 309.085,379.536 299.5,375C 288.206,366.573 282.04,355.406 281,341.5C 296.75,346.249 307.75,356.249 314,371.5C 319.464,374.916 323.797,373.916 327,368.5C 326.341,363.161 324.507,358.161 321.5,353.5 Z"/></g>
</svg>
