<?xml version="1.0" encoding="UTF-8"?>
<!DOCTYPE svg PUBLIC "-//W3C//DTD SVG 1.1//EN" "http://www.w3.org/Graphics/SVG/1.1/DTD/svg11.dtd">
<svg xmlns="http://www.w3.org/2000/svg" version="1.1" width="512px" height="512px" style="shape-rendering:geometricPrecision; text-rendering:geometricPrecision; image-rendering:optimizeQuality; fill-rule:evenodd; clip-rule:evenodd" xmlns:xlink="http://www.w3.org/1999/xlink">
<g><path style="opacity:0.987" fill="#653d28" d="M 247.5,68.5 C 241.664,63.5004 235.664,58.6671 229.5,54C 225.365,51.5965 221.032,49.7632 216.5,48.5C 214.825,54.6695 211.492,59.8361 206.5,64C 192.746,72.6969 177.746,78.0302 161.5,80C 149.493,80.7427 137.493,81.5761 125.5,82.5C 116.955,98.4741 114.122,115.474 117,133.5C 117.976,142.692 119.809,151.692 122.5,160.5C 111.426,162.672 105.426,169.339 104.5,180.5C 98.3195,174.822 94.1528,167.822 92,159.5C 75.5127,103.674 91.6794,60.1744 140.5,29C 156.914,20.8956 174.248,15.8956 192.5,14C 194.996,12.9196 197.33,11.5862 199.5,10C 201.73,3.36582 204.897,2.86582 209,8.5C 210.622,11.9869 211.455,15.6535 211.5,19.5C 214.874,19.3256 218.207,18.8256 221.5,18C 229.955,14.6271 238.455,11.4604 247,8.5C 250.39,8.86867 253.057,10.5353 255,13.5C 258.885,20.3712 260.218,27.7045 259,35.5C 257.049,47.1864 253.216,58.1864 247.5,68.5 Z"/></g>
<g><path style="opacity:1" fill="#85411c" d="M 127.5,43.5 C 131.587,45.0418 135.587,46.8752 139.5,49C 146.777,50.4672 154.111,50.8006 161.5,50C 169.597,47.9758 177.597,45.9758 185.5,44C 170.241,57.3098 152.407,63.4765 132,62.5C 125.127,62.4925 118.293,61.9925 111.5,61C 116.671,54.9967 122.004,49.1634 127.5,43.5 Z"/></g>
<g><path style="opacity:0.997" fill="#f8c593" d="M 247.5,68.5 C 254.562,76.2748 260.395,84.9415 265,94.5C 270.791,109.078 276.291,123.745 281.5,138.5C 269.543,151.456 256.876,163.789 243.5,175.5C 242.641,172.548 240.641,170.715 237.5,170C 230.874,168.231 226.04,170.397 223,176.5C 222.174,181.589 222.508,186.589 224,191.5C 230.285,198.533 237.452,199.366 245.5,194C 247.16,192.512 248.16,190.679 248.5,188.5C 252.817,191.486 256.817,194.82 260.5,198.5C 253.026,196.381 246.526,198.047 241,203.5C 239.542,207.781 240.708,210.947 244.5,213C 251.028,213.932 257.362,215.599 263.5,218C 266.633,218.86 269.3,220.36 271.5,222.5C 261.743,232.214 250.076,238.548 236.5,241.5C 221.782,244.204 207.115,244.037 192.5,241C 188.812,239.487 185.145,237.987 181.5,236.5C 165.269,228.776 152.269,217.276 142.5,202C 128.771,208.427 117.271,205.593 108,193.5C 105.74,189.46 104.573,185.127 104.5,180.5C 105.426,169.339 111.426,162.672 122.5,160.5C 119.809,151.692 117.976,142.692 117,133.5C 114.122,115.474 116.955,98.4741 125.5,82.5C 137.493,81.5761 149.493,80.7427 161.5,80C 177.746,78.0302 192.746,72.6969 206.5,64C 211.492,59.8361 214.825,54.6695 216.5,48.5C 221.032,49.7632 225.365,51.5965 229.5,54C 235.664,58.6671 241.664,63.5004 247.5,68.5 Z"/></g>
<g><path style="opacity:1" fill="#4d2d18" d="M 240.5,85.5 C 243.187,85.3359 245.854,85.5026 248.5,86C 249.517,87.0495 249.684,88.2161 249,89.5C 238.377,90.1122 230.21,94.9455 224.5,104C 222.527,104.538 221.527,103.704 221.5,101.5C 222.834,97.6561 225.168,94.4894 228.5,92C 232.434,89.5361 236.434,87.3694 240.5,85.5 Z"/></g>
<g><path style="opacity:1" fill="#482914" d="M 168.5,105.5 C 176.108,104.826 183.441,105.826 190.5,108.5C 191.89,110.495 191.39,111.828 189,112.5C 183.454,109.753 177.621,108.919 171.5,110C 167.533,111.827 163.533,113.327 159.5,114.5C 159.343,113.127 159.51,111.793 160,110.5C 162.979,108.933 165.812,107.266 168.5,105.5 Z"/></g>
<g><path style="opacity:1" fill="#492a16" d="M 246.5,112.5 C 252.011,112.205 257.344,113.038 262.5,115C 264.007,115.837 264.507,117.004 264,118.5C 258.249,118.852 252.416,119.018 246.5,119C 242.116,121.717 238.782,125.384 236.5,130C 232.912,130.611 231.746,129.111 233,125.5C 236.076,119.589 240.576,115.255 246.5,112.5 Z"/></g>
<g><path style="opacity:0.986" fill="#d7edf3" d="M 311.5,153.5 C 309.75,157.335 307.75,161.001 305.5,164.5C 294.63,163.163 283.963,164.663 273.5,169C 264.382,172.725 255.382,176.725 246.5,181C 269,200.167 291.5,219.333 314,238.5C 325.527,228.306 336.194,217.639 346,206.5C 342.335,202.492 339.168,198.159 336.5,193.5C 337.167,192.167 338.167,191.167 339.5,190.5C 343.475,196.149 347.475,201.815 351.5,207.5C 350.807,208.518 350.141,209.518 349.5,210.5C 347.068,211.75 344.734,213.25 342.5,215C 334.303,223.531 325.803,231.698 317,239.5C 316.536,240.094 316.369,240.761 316.5,241.5C 315.735,241.923 314.902,242.257 314,242.5C 311.941,240.93 309.774,239.597 307.5,238.5C 307.141,236.629 306.141,235.129 304.5,234C 289.959,221.954 275.292,210.12 260.5,198.5C 256.817,194.82 252.817,191.486 248.5,188.5C 245.215,185.882 242.215,182.882 239.5,179.5C 240.521,177.812 241.855,176.479 243.5,175.5C 256.876,163.789 269.543,151.456 281.5,138.5C 285.131,135.371 288.631,132.037 292,128.5C 298.52,136.902 305.02,145.236 311.5,153.5 Z"/></g>
<g><path style="opacity:1" fill="#472814" d="M 181.5,130.5 C 188.18,129.663 194.347,130.996 200,134.5C 200.915,136.92 200.082,138.253 197.5,138.5C 187.184,133.163 179.184,135.496 173.5,145.5C 171.955,146.452 170.288,146.785 168.5,146.5C 168.547,143.072 169.713,140.072 172,137.5C 175.068,134.917 178.235,132.584 181.5,130.5 Z"/></g>
<g><path style="opacity:0.987" fill="#f8c694" d="M 339.5,190.5 C 338.167,191.167 337.167,192.167 336.5,193.5C 334.329,195.5 331.996,197.334 329.5,199C 326.784,201.151 324.284,200.984 322,198.5C 321.518,195.093 321.518,191.76 322,188.5C 317.82,192.792 314.487,192.126 312,186.5C 311.575,183.328 311.909,180.328 313,177.5C 307.573,180.535 304.406,178.869 303.5,172.5C 303.968,169.767 304.635,167.1 305.5,164.5C 307.75,161.001 309.75,157.335 311.5,153.5C 320.23,142.078 325.897,143.412 328.5,157.5C 332.597,157.469 335.097,159.469 336,163.5C 336.497,165.81 336.663,168.143 336.5,170.5C 340.597,170.469 343.097,172.469 344,176.5C 345.547,182.25 344.047,186.916 339.5,190.5 Z"/></g>
<g><path style="opacity:1" fill="#98d6f5" d="M 305.5,164.5 C 304.635,167.1 303.968,169.767 303.5,172.5C 304.406,178.869 307.573,180.535 313,177.5C 311.909,180.328 311.575,183.328 312,186.5C 314.487,192.126 317.82,192.792 322,188.5C 321.518,191.76 321.518,195.093 322,198.5C 324.284,200.984 326.784,201.151 329.5,199C 331.996,197.334 334.329,195.5 336.5,193.5C 339.168,198.159 342.335,202.492 346,206.5C 336.194,217.639 325.527,228.306 314,238.5C 291.5,219.333 269,200.167 246.5,181C 255.382,176.725 264.382,172.725 273.5,169C 283.963,164.663 294.63,163.163 305.5,164.5 Z"/></g>
<g><path style="opacity:1" fill="#dc7244" d="M 243.5,175.5 C 241.855,176.479 240.521,177.812 239.5,179.5C 242.215,182.882 245.215,185.882 248.5,188.5C 248.16,190.679 247.16,192.512 245.5,194C 237.452,199.366 230.285,198.533 224,191.5C 222.508,186.589 222.174,181.589 223,176.5C 226.04,170.397 230.874,168.231 237.5,170C 240.641,170.715 242.641,172.548 243.5,175.5 Z"/></g>
<g><path style="opacity:0.983" fill="#f1b48c" d="M 260.5,198.5 C 275.292,210.12 289.959,221.954 304.5,234C 306.141,235.129 307.141,236.629 307.5,238.5C 302.733,238.809 298.066,238.309 293.5,237C 285.996,232.311 278.662,227.478 271.5,222.5C 269.3,220.36 266.633,218.86 263.5,218C 257.362,215.599 251.028,213.932 244.5,213C 240.708,210.947 239.542,207.781 241,203.5C 246.526,198.047 253.026,196.381 260.5,198.5 Z"/></g>
<g><path style="opacity:0.993" fill="#f9c694" d="M 349.5,210.5 C 381.793,231.935 411.959,256.268 440,283.5C 448.895,293.067 456.228,303.734 462,315.5C 467.192,326.271 466.525,336.605 460,346.5C 452.691,353.77 443.858,356.77 433.5,355.5C 421.896,350.757 412.063,343.423 404,333.5C 392.069,318.068 379.236,303.401 365.5,289.5C 364.817,289.863 364.15,290.196 363.5,290.5C 363.737,289.209 363.404,288.209 362.5,287.5C 347.64,271.728 332.306,256.395 316.5,241.5C 316.369,240.761 316.536,240.094 317,239.5C 325.803,231.698 334.303,223.531 342.5,215C 344.734,213.25 347.068,211.75 349.5,210.5 Z"/></g>
<g><path style="opacity:0.992" fill="#f6b985" d="M 181.5,236.5 C 185.145,237.987 188.812,239.487 192.5,241C 207.115,244.037 221.782,244.204 236.5,241.5C 236.847,250.274 238.013,258.941 240,267.5C 242.087,268.397 244.254,269.064 246.5,269.5C 233.469,281.867 221.469,295.2 210.5,309.5C 196.12,296.117 181.787,282.783 167.5,269.5C 171.21,269.775 174.043,268.442 176,265.5C 179.055,256.057 180.889,246.39 181.5,236.5 Z"/></g>
<g><path style="opacity:0.998" fill="#8d9294" d="M 362.5,287.5 C 363.404,288.209 363.737,289.209 363.5,290.5C 359.993,309.716 357.326,329.049 355.5,348.5C 342.002,350.065 328.335,350.399 314.5,349.5C 311.42,349.32 308.587,349.986 306,351.5C 297.289,402.856 291.455,454.522 288.5,506.5C 236.833,506.5 185.167,506.5 133.5,506.5C 126.493,484.544 120.159,462.544 114.5,440.5C 113.833,438.5 113.167,436.5 112.5,434.5C 113.987,424.733 115.987,415.066 118.5,405.5C 120.717,406.369 123.05,406.702 125.5,406.5C 129.323,396.526 132.823,386.526 136,376.5C 111.174,390.832 84.6738,395.165 56.5,389.5C 58.3957,366.148 60.5623,342.814 63,319.5C 69.4561,289.692 87.7895,276.025 118,278.5C 134.417,274.916 150.917,271.916 167.5,269.5C 181.787,282.783 196.12,296.117 210.5,309.5C 221.469,295.2 233.469,281.867 246.5,269.5C 247.967,269.106 249.467,268.773 251,268.5C 273.482,269.916 295.982,271.083 318.5,272C 324.568,273.017 330.568,274.35 336.5,276C 345.071,280.12 353.737,283.953 362.5,287.5 Z"/></g>
<g><path style="opacity:0.989" fill="#f6b985" d="M 433.5,355.5 C 433.44,356.043 433.107,356.376 432.5,356.5C 407.1,351.466 381.433,348.8 355.5,348.5C 357.326,329.049 359.993,309.716 363.5,290.5C 364.15,290.196 364.817,289.863 365.5,289.5C 379.236,303.401 392.069,318.068 404,333.5C 412.063,343.423 421.896,350.757 433.5,355.5 Z"/></g>
<g><path style="opacity:1" fill="#7e8284" d="M 118.5,405.5 C 97.6954,400.977 76.6954,397.644 55.5,395.5C 55.3253,393.379 55.6586,391.379 56.5,389.5C 84.6738,395.165 111.174,390.832 136,376.5C 132.823,386.526 129.323,396.526 125.5,406.5C 123.05,406.702 120.717,406.369 118.5,405.5 Z"/></g>
<g><path style="opacity:0.989" fill="#f6b985" d="M 55.5,395.5 C 76.6954,397.644 97.6954,400.977 118.5,405.5C 115.987,415.066 113.987,424.733 112.5,434.5C 108.184,458.398 104.517,482.398 101.5,506.5C 82.8333,506.5 64.1667,506.5 45.5,506.5C 45.8616,469.219 49.1949,432.219 55.5,395.5 Z"/></g>
<g><path style="opacity:0.976" fill="#7d8284" d="M 114.5,440.5 C 120.159,462.544 126.493,484.544 133.5,506.5C 129.167,506.5 124.833,506.5 120.5,506.5C 117.84,484.562 115.84,462.562 114.5,440.5 Z"/></g>
</svg>
