<?xml version="1.0" encoding="UTF-8"?>
<!DOCTYPE svg PUBLIC "-//W3C//DTD SVG 1.1//EN" "http://www.w3.org/Graphics/SVG/1.1/DTD/svg11.dtd">
<svg xmlns="http://www.w3.org/2000/svg" version="1.1" width="512px" height="512px" style="shape-rendering:geometricPrecision; text-rendering:geometricPrecision; image-rendering:optimizeQuality; fill-rule:evenodd; clip-rule:evenodd" xmlns:xlink="http://www.w3.org/1999/xlink">
<g><path style="opacity:0.9" fill="#86d047" d="M 339.5,-0.5 C 342.167,-0.5 344.833,-0.5 347.5,-0.5C 351.068,3.33481 351.402,7.50147 348.5,12C 339.319,15.3249 335.485,12.1582 337,2.5C 338.045,1.62656 338.878,0.626561 339.5,-0.5 Z"/></g>
<g><path style="opacity:0.977" fill="#040302" d="M 432.5,511.5 C 308.5,511.5 184.5,511.5 60.5,511.5C 55.7658,509.261 52.5992,505.594 51,500.5C 49.4714,480.847 48.1381,461.181 47,441.5C 40.704,428.728 43.5373,418.561 55.5,411C 57.4357,410.187 59.4357,409.687 61.5,409.5C 62.5936,396.741 69.5936,390.075 82.5,389.5C 83.1591,378.113 84.3257,366.78 86,355.5C 90.1667,343.333 98.3333,335.167 110.5,331C 132.586,325.645 154.586,319.979 176.5,314C 183.833,310.333 191.167,306.667 198.5,303C 207.814,295.556 210.814,286.056 207.5,274.5C 183.522,260.249 169.189,239.249 164.5,211.5C 134.595,206.684 122.095,189.351 127,159.5C 129.319,153.527 132.653,148.193 137,143.5C 137.189,126.81 137.855,110.143 139,93.5C 145.379,60.7932 163.879,37.9599 194.5,25C 199.077,23.3557 203.744,22.0224 208.5,21C 225.461,19.4231 242.461,19.0898 259.5,20C 272.624,22.8957 283.624,29.3957 292.5,39.5C 323.007,29.3858 345.841,38.3858 361,66.5C 362,69.5 363,72.5 364,75.5C 365.235,98.8072 365.901,122.14 366,145.5C 379.842,165.574 378.342,184.407 361.5,202C 353.939,208.131 345.272,210.965 335.5,210.5C 331.928,237.901 318.428,258.901 295,273.5C 291.977,285.427 295.143,295.261 304.5,303C 311.833,306.667 319.167,310.333 326.5,314C 349.457,320.156 372.457,326.156 395.5,332C 404.251,335.917 410.917,342.084 415.5,350.5C 416.981,349.52 418.315,348.353 419.5,347C 415.174,335.65 418.507,327.317 429.5,322C 443.558,319.738 451.724,325.571 454,339.5C 465.246,344.327 469.246,352.66 466,364.5C 460.505,374.335 452.338,377.502 441.5,374C 439.714,373.215 438.214,372.049 437,370.5C 432.077,374.045 427.244,377.712 422.5,381.5C 421.925,386.141 420.925,390.641 419.5,395C 433.944,410.941 438.944,429.441 434.5,450.5C 440.884,451.127 447.217,451.96 453.5,453C 461.413,457.666 464.246,464.499 462,473.5C 459.9,477.599 457.067,481.099 453.5,484C 452.298,497.69 445.298,506.857 432.5,511.5 Z"/></g>
<g><path style="opacity:0.934" fill="#f5c84b" d="M 388.5,24.5 C 390.609,28.6737 393.276,32.6737 396.5,36.5C 400.204,39.3517 404.204,41.685 408.5,43.5C 398.927,46.0726 392.594,52.0726 389.5,61.5C 387.355,57.2265 384.688,53.2265 381.5,49.5C 378.258,46.7502 374.591,44.7502 370.5,43.5C 379.95,40.3849 385.95,34.0515 388.5,24.5 Z"/></g>
<g><path style="opacity:1" fill="#404243" d="M 217.5,29.5 C 229.838,29.3335 242.171,29.5001 254.5,30C 268.237,31.9465 278.737,38.7798 286,50.5C 286.804,51.8045 287.971,52.4712 289.5,52.5C 306.153,42.8173 322.486,43.3173 338.5,54C 346.316,60.4586 351.482,68.6253 354,78.5C 354.667,98.1667 354.667,117.833 354,137.5C 348.567,134.517 342.733,133.184 336.5,133.5C 337.36,127.999 336.027,123.166 332.5,119C 320.403,117.314 308.403,114.981 296.5,112C 286.796,108.284 278.129,102.951 270.5,96C 266.666,93.9625 262.999,94.2959 259.5,97C 246.44,114.203 229.107,124.203 207.5,127C 195.107,127.591 182.774,127.258 170.5,126C 167.637,127.364 165.637,129.53 164.5,132.5C 161.215,133.324 157.882,133.824 154.5,134C 152.481,134.45 150.648,135.283 149,136.5C 143.742,108.452 149.075,82.7851 165,59.5C 179.05,43.2452 196.55,33.2452 217.5,29.5 Z"/></g>
<g><path style="opacity:1" fill="#f6bfa6" d="M 265.5,105.5 C 283.104,119.711 303.27,127.045 326,127.5C 326.667,153.167 326.667,178.833 326,204.5C 321.957,238.426 303.79,260.926 271.5,272C 231.894,280.696 202.06,267.529 182,232.5C 178.893,225.071 176.559,217.404 175,209.5C 174.5,184.836 174.333,160.169 174.5,135.5C 203.372,140.803 229.705,134.969 253.5,118C 257.704,113.964 261.704,109.798 265.5,105.5 Z"/></g>
<g><path style="opacity:1" fill="#f6bea6" d="M 157.5,143.5 C 159.833,143.5 162.167,143.5 164.5,143.5C 164.5,162.5 164.5,181.5 164.5,200.5C 144.23,197.721 134.73,186.054 136,165.5C 139.385,154.283 146.552,146.95 157.5,143.5 Z"/></g>
<g><path style="opacity:1" fill="#72584d" d="M 339.5,143.5 C 338.5,143.5 337.5,143.5 336.5,143.5C 336.5,162.5 336.5,181.5 336.5,200.5C 335.503,181.341 335.17,162.007 335.5,142.5C 337.099,142.232 338.432,142.566 339.5,143.5 Z"/></g>
<g><path style="opacity:1" fill="#f6bfa6" d="M 339.5,143.5 C 355.195,146.204 363.528,155.538 364.5,171.5C 363.374,188.961 354.041,198.627 336.5,200.5C 336.5,181.5 336.5,162.5 336.5,143.5C 337.5,143.5 338.5,143.5 339.5,143.5 Z"/></g>
<g><path style="opacity:1" fill="#080605" d="M 209.5,159.5 C 220.081,157.872 227.581,161.872 232,171.5C 233.023,175.317 232.523,178.817 230.5,182C 224.526,182.661 221.693,179.828 222,173.5C 217.62,168.657 212.954,168.323 208,172.5C 207.141,175.659 205.975,178.659 204.5,181.5C 201.376,183.094 198.876,182.428 197,179.5C 196.345,169.807 200.512,163.141 209.5,159.5 Z"/></g>
<g><path style="opacity:1" fill="#090605" d="M 282.5,159.5 C 293.657,157.992 301.49,162.325 306,172.5C 306.728,175.23 306.562,177.897 305.5,180.5C 303.417,182.604 301.083,182.938 298.5,181.5C 297.025,178.659 295.859,175.659 295,172.5C 289.967,168.221 285.3,168.554 281,173.5C 281.307,179.828 278.474,182.661 272.5,182C 269.843,177.181 270.009,172.347 273,167.5C 275.772,164.217 278.939,161.55 282.5,159.5 Z"/></g>
<g><path style="opacity:1" fill="#070505" d="M 229.5,205.5 C 243.171,205.333 256.837,205.5 270.5,206C 279.012,209.022 282.679,215.022 281.5,224C 280.35,247.482 268.017,258.816 244.5,258C 223.63,250.765 215.463,236.265 220,214.5C 222.406,210.592 225.572,207.592 229.5,205.5 Z"/></g>
<g><path style="opacity:1" fill="#eaf1f9" d="M 231.5,215.5 C 244.171,215.333 256.838,215.5 269.5,216C 271.155,217.444 271.822,219.278 271.5,221.5C 257.167,221.5 242.833,221.5 228.5,221.5C 228.615,219.053 229.615,217.053 231.5,215.5 Z"/></g>
<g><path style="opacity:1" fill="#f4627a" d="M 229.5,231.5 C 243.516,231.167 257.516,231.501 271.5,232.5C 264.014,248.033 252.681,251.866 237.5,244C 233.439,240.709 230.773,236.543 229.5,231.5 Z"/></g>
<g><path style="opacity:0.979" fill="#6fd6f9" d="M 117.5,264.5 C 124.938,264.331 127.938,267.998 126.5,275.5C 136.525,274.731 139.525,278.898 135.5,288C 132.607,289.149 129.607,289.649 126.5,289.5C 127.866,295.455 125.699,299.122 120,300.5C 114.012,299.298 111.845,295.631 113.5,289.5C 103.444,290.196 100.444,286.029 104.5,277C 107.351,275.711 110.351,275.211 113.5,275.5C 113.336,272.813 113.503,270.146 114,267.5C 115.145,266.364 116.312,265.364 117.5,264.5 Z"/></g>
<g><path style="opacity:1" fill="#f6bea6" d="M 281.5,278.5 C 283.206,284.178 284.706,290.178 286,296.5C 289.452,303.444 294.286,309.111 300.5,313.5C 283.945,336.186 261.945,344.353 234.5,338C 221.051,333.445 210.385,325.278 202.5,313.5C 214.36,305.451 220.193,294.118 220,279.5C 229.039,283.633 238.539,285.299 248.5,284.5C 260.125,285.176 271.125,283.176 281.5,278.5 Z"/></g>
<g><path style="opacity:0.886" fill="#fc647c" d="M 388.5,287.5 C 391.808,293.136 396.474,297.469 402.5,300.5C 396.5,303.167 392.167,307.5 389.5,313.5C 386.762,307.096 382.096,302.762 375.5,300.5C 382.204,298.463 386.537,294.129 388.5,287.5 Z"/></g>
<g><path style="opacity:0.93" fill="#f5c74c" d="M 71.5,313.5 C 81.7455,312.57 84.7455,316.736 80.5,326C 71.3188,329.325 67.4855,326.158 69,316.5C 70.045,315.627 70.8783,314.627 71.5,313.5 Z"/></g>
<g><path style="opacity:1" fill="#6ed2f5" d="M 192.5,317.5 C 220.592,353.627 254.259,359.794 293.5,336C 299.742,330.429 305.242,324.262 310,317.5C 315.037,319.602 319.871,322.102 324.5,325C 346.852,330.505 369.186,336.171 391.5,342C 399.322,345.138 404.155,350.638 406,358.5C 405.439,359.022 404.772,359.355 404,359.5C 397.092,356.712 390.258,356.879 383.5,360C 379.5,362.667 375.5,365.333 371.5,368C 364.254,368.92 357.087,370.087 350,371.5C 329.49,351.996 305.323,345.162 277.5,351C 268.752,353.689 260.585,357.522 253,362.5C 214.776,339.683 180.776,344.683 151,377.5C 147.479,382.542 144.479,387.875 142,393.5C 140.352,392.283 138.519,391.45 136.5,391C 132.179,390.501 127.846,390.334 123.5,390.5C 125.45,381.076 122.45,373.742 114.5,368.5C 116.177,366.24 118.343,364.573 121,363.5C 121.468,355.079 117.968,353.245 110.5,358C 107.462,360.703 104.795,363.703 102.5,367C 99.8877,367.639 97.5543,368.806 95.5,370.5C 93.743,357.516 98.743,348.016 110.5,342C 133.476,335.84 156.476,329.84 179.5,324C 183.925,321.787 188.259,319.621 192.5,317.5 Z"/></g>
<g><path style="opacity:1" fill="#f7e8c5" d="M 432.5,331.5 C 436.08,330.923 439.08,331.923 441.5,334.5C 442.986,338.016 444.153,341.682 445,345.5C 448.347,348.667 452.014,351.334 456,353.5C 457.833,362.333 454.333,365.833 445.5,364C 443.284,361.447 440.784,359.28 438,357.5C 431.899,361.264 426.066,365.431 420.5,370C 419.5,370.667 418.5,370.667 417.5,370C 416.055,368.29 415.222,366.456 415,364.5C 420.958,360.211 426.624,355.544 432,350.5C 432.927,347.404 431.927,345.07 429,343.5C 427.593,338.643 428.76,334.643 432.5,331.5 Z"/></g>
<g><path style="opacity:1" fill="#a56c56" d="M 200.5,358.5 C 216.892,357.038 231.892,360.871 245.5,370C 240.561,374.744 236.228,379.911 232.5,385.5C 221.347,374.761 208.014,369.928 192.5,371C 183.655,373.512 176.822,378.679 172,386.5C 166.833,394.167 161.667,401.833 156.5,409.5C 154.926,410.631 153.259,410.798 151.5,410C 150.293,406.594 149.793,403.094 150,399.5C 159.883,377.103 176.716,363.436 200.5,358.5 Z"/></g>
<g><path style="opacity:1" fill="#a76d57" d="M 287.5,358.5 C 307.655,357.115 325.321,362.948 340.5,376C 321.237,392.261 318.404,411.094 332,432.5C 351.436,451.622 371.436,452.288 392,434.5C 397.07,427.027 401.07,419.027 404,410.5C 407,408.167 410,405.833 413,403.5C 424.855,417.257 428.355,432.924 423.5,450.5C 362.503,451.667 301.503,451.833 240.5,451C 226.454,418.853 233.12,391.853 260.5,370C 268.899,364.487 277.899,360.653 287.5,358.5 Z"/></g>
<g><path style="opacity:1" fill="#ce836b" d="M 390.5,367.5 C 402.91,366.349 409.91,371.849 411.5,384C 411.344,387.817 410.178,391.317 408,394.5C 403.815,397.595 399.815,400.928 396,404.5C 392.423,410.892 389.423,417.559 387,424.5C 375.308,438.502 361.474,441.002 345.5,432C 330.759,417.858 329.759,402.858 342.5,387C 345.502,384.497 348.835,382.497 352.5,381C 360.263,380.184 367.93,378.851 375.5,377C 380.674,373.97 385.674,370.804 390.5,367.5 Z"/></g>
<g><path style="opacity:1" fill="#070403" d="M 279.5,370.5 C 284.179,370.334 288.845,370.501 293.5,371C 301.071,373.785 308.405,377.119 315.5,381C 321.642,387.667 322.142,394.834 317,402.5C 310.66,407.834 303.66,408.834 296,405.5C 295.167,405.833 294.333,406.167 293.5,406.5C 289.941,415.284 286.108,423.951 282,432.5C 271.818,442.971 260.651,444.138 248.5,436C 241.961,429.424 239.794,421.59 242,412.5C 248.17,402.156 254.837,392.156 262,382.5C 266.935,377.044 272.768,373.044 279.5,370.5 Z"/></g>
<g><path style="opacity:1" fill="#f36179" d="M 109.5,377.5 C 113.314,380.152 114.481,383.819 113,388.5C 107.837,394.062 103.171,393.729 99,387.5C 98.1533,384.412 98.6533,381.579 100.5,379C 102.179,378.605 103.845,378.772 105.5,379.5C 107.171,379.332 108.504,378.665 109.5,377.5 Z"/></g>
<g><path style="opacity:1" fill="#cd826b" d="M 193.5,380.5 C 204.638,379.935 214.471,383.268 223,390.5C 223.783,394.229 222.283,396.563 218.5,397.5C 214.772,396.652 211.105,395.652 207.5,394.5C 203.432,395.068 200.265,397.068 198,400.5C 194.333,409.167 190.667,417.833 187,426.5C 181.107,432.302 174.94,432.802 168.5,428C 167.867,424.633 166.7,421.467 165,418.5C 164.333,417.167 164.333,415.833 165,414.5C 171,405.833 177,397.167 183,388.5C 185.94,384.963 189.44,382.297 193.5,380.5 Z"/></g>
<g><path style="opacity:1" fill="#cd836b" d="M 280.5,380.5 C 285.58,380.25 290.58,380.75 295.5,382C 299.833,384.167 304.167,386.333 308.5,388.5C 311.664,392.838 310.664,395.838 305.5,397.5C 297.648,392.505 290.815,393.505 285,400.5C 281.333,409.167 277.667,417.833 274,426.5C 265.447,433.992 258.114,432.992 252,423.5C 251.333,420.5 251.333,417.5 252,414.5C 258,405.833 264,397.167 270,388.5C 273.299,385.449 276.799,382.782 280.5,380.5 Z"/></g>
<g><path style="opacity:1" fill="#fbecc9" d="M 94.5,398.5 C 102.101,403.82 109.768,403.82 117.5,398.5C 118.308,398.808 118.975,399.308 119.5,400C 125.61,400.088 131.61,400.755 137.5,402C 140.531,405.988 142.364,410.488 143,415.5C 146.236,418.615 150.069,420.782 154.5,422C 158.71,425.427 159.377,429.261 156.5,433.5C 150.053,430.389 144.053,431.056 138.5,435.5C 131.27,430.265 124.103,430.265 117,435.5C 109.867,430.194 102.701,430.194 95.5,435.5C 88.2696,430.265 81.1029,430.265 74,435.5C 68.2476,431.139 62.0809,430.472 55.5,433.5C 53.3473,428.152 54.6806,423.986 59.5,421C 67.9222,419.907 72.0889,415.074 72,406.5C 72.7845,404.714 73.9512,403.214 75.5,402C 81.0555,400.761 86.7222,400.094 92.5,400C 93.4158,399.722 94.0825,399.222 94.5,398.5 Z"/></g>
<g><path style="opacity:1" fill="#a86d58" d="M 206.5,405.5 C 210.709,405.841 214.875,406.508 219,407.5C 220.825,407.057 222.658,406.723 224.5,406.5C 222.02,421.843 223.687,436.677 229.5,451C 207.836,451.5 186.169,451.667 164.5,451.5C 164.207,447.563 164.54,443.73 165.5,440C 176.98,443.947 186.814,441.447 195,432.5C 198.938,423.512 202.771,414.512 206.5,405.5 Z"/></g>
<g><path style="opacity:1" fill="#eec24a" d="M 60.5,441.5 C 63.9705,440.875 66.8038,441.875 69,444.5C 69.4999,463.497 69.6666,482.497 69.5,501.5C 66.0295,502.125 63.1962,501.125 61,498.5C 59.5764,480.183 58.9097,461.85 59,443.5C 59.7172,442.956 60.2172,442.289 60.5,441.5 Z"/></g>
<g><path style="opacity:1" fill="#f5d782" d="M 81.5,441.5 C 84.9705,440.875 87.8038,441.875 90,444.5C 90.4999,463.497 90.6666,482.497 90.5,501.5C 86.8333,501.5 83.1667,501.5 79.5,501.5C 79.3334,482.164 79.5,462.83 80,443.5C 80.7172,442.956 81.2172,442.289 81.5,441.5 Z"/></g>
<g><path style="opacity:1" fill="#ebc049" d="M 103.5,441.5 C 107.49,440.616 110.323,441.949 112,445.5C 112.5,464.164 112.667,482.83 112.5,501.5C 108.5,501.5 104.5,501.5 100.5,501.5C 100.333,482.497 100.5,463.497 101,444.5C 102.045,443.627 102.878,442.627 103.5,441.5 Z"/></g>
<g><path style="opacity:1" fill="#f8da84" d="M 124.5,441.5 C 127.97,440.875 130.804,441.875 133,444.5C 132.808,463.49 132.641,482.49 132.5,501.5C 129.167,501.5 125.833,501.5 122.5,501.5C 122.333,482.164 122.5,462.83 123,443.5C 123.717,442.956 124.217,442.289 124.5,441.5 Z"/></g>
<g><path style="opacity:1" fill="#ecc149" d="M 146.5,441.5 C 151.916,441.083 154.583,443.583 154.5,449C 153.466,465.508 152.299,482.008 151,498.5C 148.847,501.124 146.013,502.124 142.5,501.5C 142.333,484.163 142.5,466.83 143,449.5C 143.003,446.251 144.17,443.584 146.5,441.5 Z"/></g>
<g><path style="opacity:1" fill="#ecf3fb" d="M 200.5,470.5 C 200.5,471.5 200.5,472.5 200.5,473.5C 188.167,473.5 175.833,473.5 163.5,473.5C 163.5,471.833 163.5,470.167 163.5,468.5C 163.5,466.5 163.5,464.5 163.5,462.5C 176.171,462.333 188.838,462.5 201.5,463C 200.565,465.381 200.232,467.881 200.5,470.5 Z"/></g>
<g><path style="opacity:1" fill="#e3e9f1" d="M 214.5,461.5 C 292.167,461.333 369.834,461.5 447.5,462C 453.727,465.478 454.06,469.478 448.5,474C 370.5,474.667 292.5,474.667 214.5,474C 211.932,472.873 210.598,470.873 210.5,468C 211.205,465.458 212.539,463.292 214.5,461.5 Z"/></g>
<g><path style="opacity:1" fill="#a4a9af" d="M 163.5,468.5 C 163.5,470.167 163.5,471.833 163.5,473.5C 175.833,473.5 188.167,473.5 200.5,473.5C 200.5,472.5 200.5,471.5 200.5,470.5C 201.434,471.568 201.768,472.901 201.5,474.5C 188.5,474.5 175.5,474.5 162.5,474.5C 162.205,472.265 162.539,470.265 163.5,468.5 Z"/></g>
<g><path style="opacity:1" fill="#d7e3ee" d="M 161.5,484.5 C 177.833,484.5 194.167,484.5 210.5,484.5C 210.44,490.765 212.44,496.265 216.5,501C 197.833,501.667 179.167,501.667 160.5,501C 161.473,495.593 161.807,490.093 161.5,484.5 Z"/></g>
<g><path style="opacity:1" fill="#d9e5f0" d="M 220.5,484.5 C 294.5,484.5 368.5,484.5 442.5,484.5C 441.763,492.747 437.429,498.247 429.5,501C 363.833,501.667 298.167,501.667 232.5,501C 225.196,497.888 221.196,492.388 220.5,484.5 Z"/></g>
</svg>
