<?xml version="1.0" encoding="UTF-8"?>
<svg version="1.1" xmlns="http://www.w3.org/2000/svg" width="512" height="512">
<path d="M0 0 C3.84623182 1.81605585 5.72021715 4.50796809 7.8125 8.1875 C9.71450058 14.2939229 10.87722951 20.74256828 9 27 C10.03125 27.0825 11.0625 27.165 12.125 27.25 C18.99918854 28.5804881 23.02515922 32.36897556 27 38 C28.81465499 43.0761295 29.07311902 47.08988023 28.75 52.4375 C28.29984776 69.10247206 34.44932956 85.59469664 40.484375 100.90625 C48.19675125 121.08530467 43.74024618 144.14135093 35.62109375 163.58984375 C32.54889341 170.0525688 29.03858972 174.33246533 22.5625 177.5 C15.63778394 179.94780661 8.23100483 179.32297292 1 179 C1 183.29 1 187.58 1 192 C1.99 191.67 2.98 191.34 4 191 C17.06776799 189.66498244 30.20345912 193.42949099 40.8046875 201.00390625 C45.25740805 204.81730513 48.34728911 209.75217779 51.625 214.5625 C52.3272168 215.5839209 53.02943359 216.6053418 53.75292969 217.65771484 C60.25267616 227.2032005 66.23142585 237.00036745 72 247 C72.78165527 248.34336426 72.78165527 248.34336426 73.57910156 249.71386719 C79.36723202 259.6638558 85.03360679 269.6100014 90 280 C90.14162811 265.63261467 89.71098274 251.34849065 89 237 C88.28901726 222.65150935 87.85837189 208.36738533 88 194 C88.99 193.67 89.98 193.34 91 193 C89.33113678 189.94041743 87.50474931 187.40742372 85.15234375 184.86328125 C81.80160405 180.99489393 79.74688051 176.9049311 77.6875 172.25 C77.34138672 171.49589844 76.99527344 170.74179688 76.63867188 169.96484375 C75.28555676 166.99484838 74.03316702 164.09950107 73 161 C71.20067421 159.93283296 71.20067421 159.93283296 69 159 C67.32665961 158.01120795 65.65848177 157.01351664 64 156 C64.375 154.0625 64.375 154.0625 65 152 C68.21264067 150.39367966 71.51534347 150.51026449 75 151 C77.48160685 152.14683967 79.66937982 153.55501549 82 155 C82.66 154.67 83.32 154.34 84 154 C83.90912109 153.32646484 83.81824219 152.65292969 83.72460938 151.95898438 C81.9909842 138.91678885 80.47004076 126.17046856 81 113 C82.32 112.67 83.64 112.34 85 112 C88.52237988 116.73699363 90.34292168 121.35086937 92 127 C92.04898437 125.98679687 92.09796875 124.97359375 92.1484375 123.9296875 C92.22352564 122.57810089 92.29907081 121.22653962 92.375 119.875 C92.42140625 118.87726563 92.42140625 118.87726563 92.46875 117.859375 C92.71919633 113.60178738 93.47528197 109.97914217 95 106 C96.92089844 106.74169922 96.92089844 106.74169922 99 108 C99.82128906 109.87939453 99.82128906 109.87939453 100.265625 112.1328125 C100.43320312 112.93847656 100.60078125 113.74414062 100.7734375 114.57421875 C100.93070312 115.41597656 101.08796875 116.25773437 101.25 117.125 C101.50910156 118.39923828 101.50910156 118.39923828 101.7734375 119.69921875 C102.19759504 121.79644214 102.6008098 123.89788137 103 126 C104.32 120.72 105.64 115.44 107 110 C108.32 110.33 109.64 110.66 111 111 C112.5402775 115.97677898 113.50636739 120.77039648 114.125 125.9375 C114.21136719 126.62134766 114.29773438 127.30519531 114.38671875 128.00976562 C114.59602285 129.67257046 114.79871722 131.33620513 115 133 C115.38671875 132.22914063 115.7734375 131.45828125 116.171875 130.6640625 C116.69265625 129.66117188 117.2134375 128.65828125 117.75 127.625 C118.26046875 126.62726563 118.7709375 125.62953125 119.296875 124.6015625 C121.04307055 121.93420875 122.05303231 121.06347095 125 120 C125.05561623 121.77045012 125.09349478 123.54145674 125.125 125.3125 C125.14820313 126.29863281 125.17140625 127.28476563 125.1953125 128.30078125 C125.03134255 131.40637208 124.60336327 134.03412536 123.9609375 137.0546875 C122.68195444 143.71185662 123.09095542 150.07948915 123.5 156.8125 C123.98139652 166.49117039 124.1618663 175.49493493 122 185 C123.11375 184.9690625 123.11375 184.9690625 124.25 184.9375 C127.50945093 186.19683331 127.67548303 186.74605085 129.0703125 189.81640625 C145.65670103 232.01437467 166.85688445 308.35778886 149.1875 352.53125 C145.80559781 359.56204665 141.24802229 364.85186911 134 368 C115.28817723 373.52407242 97.36816434 368.9084352 80.62109375 360 C77.05217564 358.0496235 73.52328815 356.03144542 70 354 C67.6920663 363.46576 67.6920663 363.46576 69.14453125 372.78515625 C70.94744616 375.09272454 72.83749456 377.0269111 75 379 C76.37515658 380.41651467 77.75015895 381.83317907 79.125 383.25 C81.32801261 385.40614 83.55873524 387.52148622 85.8125 389.625 C91.58768896 395.89520515 92.14497481 402.73643608 92 411 C90.81296288 420.49629695 87.69193464 429.21523853 84 438 C77.39880225 437.37724549 71.37468479 435.83272188 65 434 C64.67 438.95 64.34 443.9 64 449 C26.14540327 449.97877378 -11.69716129 450.08928362 -49.5625 450.0625 C-50.78123558 450.06164398 -51.99997116 450.06078796 -53.25563812 450.05990601 C-68.50377307 450.04841002 -83.75188712 450.02818387 -99 450 C-99 449.01 -99 448.02 -99 447 C-99.78375 447.2165625 -100.5675 447.433125 -101.375 447.65625 C-111.24885718 449.95447538 -120.96898399 450.33635445 -131.0625 450.375 C-132.07195679 450.38623901 -132.07195679 450.38623901 -133.10180664 450.39770508 C-149.63053752 450.54831312 -168.26647946 448.55672599 -181 437 C-186.53767379 431.31265935 -188.97647411 423.52628957 -189.01000977 415.64868164 C-188.99510498 414.7849292 -188.9802002 413.92117676 -188.96484375 413.03125 C-188.37761639 403.15534583 -188.37761639 403.15534583 -192.078125 394.5390625 C-194.65889221 393.0749115 -194.65889221 393.0749115 -197.41796875 392.03515625 C-201.38170423 390.44606411 -203.8858027 387.66413248 -206 384 C-207.78975309 378.8457527 -208.21460605 374.38870363 -207.79296875 369 C-207.74077682 368.2579834 -207.6885849 367.5159668 -207.6348114 366.75146484 C-207.05599157 359.3949495 -205.83316144 352.21930634 -204.3125 345 C-204.16882996 344.30810577 -204.02515991 343.61621155 -203.87713623 342.90335083 C-183.94686217 247.87243411 -183.94686217 247.87243411 -161 230 C-157.02105112 227.5865392 -152.97230663 225.61693004 -148.52734375 224.2265625 C-145.16604688 222.5952685 -143.17164257 220.11652168 -140.8125 217.3125 C-124.52468172 198.87454709 -99.02181556 190.79029355 -75 189 C-65.99213495 188.68864201 -57.01414828 188.86272871 -48 189 C-48 177.78 -48 166.56 -48 155 C-51.3 154.34 -54.6 153.68 -58 153 C-60.79191832 151.84992001 -63.35013961 150.71032388 -66 149.3125 C-66.68570068 148.95945801 -67.37140137 148.60641602 -68.07788086 148.24267578 C-73.72598222 145.27404913 -78.95937192 141.91944165 -84 138 C-84.59683594 137.566875 -85.19367188 137.13375 -85.80859375 136.6875 C-96.93328019 128.05494886 -106.60034856 112.98417563 -109 99 C-109.93009306 87.70601287 -108.46047053 80.29713486 -101.875 71 C-100 69 -100 69 -97 67 C-96.37438748 63.83227116 -96.37438748 63.83227116 -96.125 60.125 C-94.78606203 47.84208334 -89.80818109 38.51811222 -82 29 C-81.47921875 28.36449219 -80.9584375 27.72898437 -80.421875 27.07421875 C-76.79969189 23.09530549 -72.53731282 20.18152905 -68.0625 17.25 C-67.48935059 16.87278809 -66.91620117 16.49557617 -66.32568359 16.10693359 C-58.11891268 10.92407601 -50.66628807 9.5723673 -41.0625 8.75 C-33.0008095 7.9504302 -25.99602818 6.72343391 -18.625 3.3125 C-12.38968244 0.42781239 -6.90890381 -1.70009675 0 0 Z M66 391 C65.00520292 398.38656413 64.88163718 405.61555645 64.9375 413.0625 C64.94201172 414.21427734 64.94652344 415.36605469 64.95117188 416.55273438 C64.96285574 419.36854518 64.97923719 422.18424398 65 425 C67.2663177 422.80994889 68.73916657 420.90509535 70.125 418.0625 C70.45757812 417.39347656 70.79015625 416.72445313 71.1328125 416.03515625 C73.46894031 410.55262207 73.62995733 404.88243935 73 399 C71.01031547 395.08924075 69.63466354 393.42310902 66 391 Z " fill="#E63F46" transform="translate(284,32)"/>
<path d="M0 0 C3.84623182 1.81605585 5.72021715 4.50796809 7.8125 8.1875 C9.71450058 14.2939229 10.87722951 20.74256828 9 27 C10.03125 27.0825 11.0625 27.165 12.125 27.25 C18.99918854 28.5804881 23.02515922 32.36897556 27 38 C28.81465499 43.0761295 29.07311902 47.08988023 28.75 52.4375 C28.29984776 69.10247206 34.44932956 85.59469664 40.484375 100.90625 C48.19675125 121.08530467 43.74024618 144.14135093 35.62109375 163.58984375 C32.54889341 170.0525688 29.03858972 174.33246533 22.5625 177.5 C15.63778394 179.94780661 8.23100483 179.32297292 1 179 C1.02356567 180.28463135 1.02356567 180.28463135 1.04760742 181.59521484 C1.0992043 184.8194753 1.13657546 188.043523 1.16479492 191.26806641 C1.17973947 192.65485627 1.20010278 194.04160007 1.22631836 195.42822266 C1.58118907 214.70257311 1.58118907 214.70257311 -4.5 222 C-9.94832029 226.35865623 -13.48575773 226.55381134 -20.359375 226.43359375 C-29.9478741 225.29161585 -36.94585529 218.06709499 -43 211 C-43.556875 209.93007812 -44.11375 208.86015625 -44.6875 207.7578125 C-46.63750478 204.90534278 -46.63750478 204.90534278 -48.93408203 204.45800781 C-51.36054899 204.25995026 -53.6926671 204.27089145 -56.125 204.375 C-56.98593262 204.39973389 -57.84686523 204.42446777 -58.73388672 204.44995117 C-65.24784678 204.74413399 -70.34983481 205.60990088 -76 209 C-76.63679687 209.3815625 -77.27359375 209.763125 -77.9296875 210.15625 C-96.38951951 221.35210479 -106.68134987 232.55083734 -115.078125 252.57421875 C-115.55254532 253.70178589 -116.02696564 254.82935303 -116.51576233 255.99108887 C-121.98981077 269.16195834 -126.86572023 282.54637694 -131.7018013 295.9611702 C-132.7035724 298.73736211 -133.70982714 301.51192098 -134.7159605 304.28653431 C-137.17446268 311.06680151 -139.6239041 317.85029276 -142.06701183 324.6361208 C-143.41395368 328.37649678 -144.76553287 332.11514471 -146.12207031 335.85205078 C-157.80296029 365.60269315 -157.80296029 365.60269315 -162.625 396.875 C-162.6362793 397.6779248 -162.64755859 398.48084961 -162.65917969 399.30810547 C-162.49657796 405.82457623 -160.60321008 411.10691281 -156.2109375 415.98828125 C-151.06382951 419.70076978 -146.15246455 421.54613123 -140 423 C-138.90365234 423.30744141 -138.90365234 423.30744141 -137.78515625 423.62109375 C-125.71222161 426.78669144 -113.96865981 424.38238726 -102 422 C-102.66 422.99 -103.32 423.98 -104 425 C-104.66 425 -105.32 425 -106 425 C-103.89606953 429.20786093 -102.38964381 430.46254701 -98 432 C-97.97296619 433.93742341 -97.95358875 435.87495479 -97.9375 437.8125 C-97.92589844 438.89144531 -97.91429687 439.97039062 -97.90234375 441.08203125 C-98 444 -98 444 -99 447 C-109.60545543 449.93045479 -120.13377213 450.33315663 -131.0625 450.375 C-132.07195679 450.38623901 -132.07195679 450.38623901 -133.10180664 450.39770508 C-149.63053752 450.54831312 -168.26647946 448.55672599 -181 437 C-186.53767379 431.31265935 -188.97647411 423.52628957 -189.01000977 415.64868164 C-188.99510498 414.7849292 -188.9802002 413.92117676 -188.96484375 413.03125 C-188.37761639 403.15534583 -188.37761639 403.15534583 -192.078125 394.5390625 C-194.65889221 393.0749115 -194.65889221 393.0749115 -197.41796875 392.03515625 C-201.38170423 390.44606411 -203.8858027 387.66413248 -206 384 C-207.78975309 378.8457527 -208.21460605 374.38870363 -207.79296875 369 C-207.74077682 368.2579834 -207.6885849 367.5159668 -207.6348114 366.75146484 C-207.05599157 359.3949495 -205.83316144 352.21930634 -204.3125 345 C-204.16882996 344.30810577 -204.02515991 343.61621155 -203.87713623 342.90335083 C-183.94686217 247.87243411 -183.94686217 247.87243411 -161 230 C-157.02105112 227.5865392 -152.97230663 225.61693004 -148.52734375 224.2265625 C-145.16604688 222.5952685 -143.17164257 220.11652168 -140.8125 217.3125 C-124.52468172 198.87454709 -99.02181556 190.79029355 -75 189 C-65.99213495 188.68864201 -57.01414828 188.86272871 -48 189 C-48 177.78 -48 166.56 -48 155 C-51.3 154.34 -54.6 153.68 -58 153 C-60.79191832 151.84992001 -63.35013961 150.71032388 -66 149.3125 C-66.68570068 148.95945801 -67.37140137 148.60641602 -68.07788086 148.24267578 C-73.72598222 145.27404913 -78.95937192 141.91944165 -84 138 C-84.59683594 137.566875 -85.19367188 137.13375 -85.80859375 136.6875 C-96.93328019 128.05494886 -106.60034856 112.98417563 -109 99 C-109.93009306 87.70601287 -108.46047053 80.29713486 -101.875 71 C-100 69 -100 69 -97 67 C-96.37438748 63.83227116 -96.37438748 63.83227116 -96.125 60.125 C-94.78606203 47.84208334 -89.80818109 38.51811222 -82 29 C-81.47921875 28.36449219 -80.9584375 27.72898437 -80.421875 27.07421875 C-76.79969189 23.09530549 -72.53731282 20.18152905 -68.0625 17.25 C-67.48935059 16.87278809 -66.91620117 16.49557617 -66.32568359 16.10693359 C-58.11891268 10.92407601 -50.66628807 9.5723673 -41.0625 8.75 C-33.0008095 7.9504302 -25.99602818 6.72343391 -18.625 3.3125 C-12.38968244 0.42781239 -6.90890381 -1.70009675 0 0 Z " fill="#945C42" transform="translate(284,32)"/>
<path d="M0 0 C1.92089844 0.74169922 1.92089844 0.74169922 4 2 C4.82128906 3.87939453 4.82128906 3.87939453 5.265625 6.1328125 C5.51699219 7.34130859 5.51699219 7.34130859 5.7734375 8.57421875 C5.93070312 9.41597656 6.08796875 10.25773438 6.25 11.125 C6.42273438 11.97449219 6.59546875 12.82398438 6.7734375 13.69921875 C7.19759504 15.79644214 7.6008098 17.89788137 8 20 C9.32 14.72 10.64 9.44 12 4 C13.32 4.33 14.64 4.66 16 5 C17.5402775 9.97677898 18.50636739 14.77039648 19.125 19.9375 C19.21136719 20.62134766 19.29773438 21.30519531 19.38671875 22.00976562 C19.59602285 23.67257046 19.79871722 25.33620513 20 27 C20.38671875 26.22914063 20.7734375 25.45828125 21.171875 24.6640625 C21.69265625 23.66117188 22.2134375 22.65828125 22.75 21.625 C23.51570313 20.12839844 23.51570313 20.12839844 24.296875 18.6015625 C26.04307055 15.93420875 27.05303231 15.06347095 30 14 C30.05561623 15.77045012 30.09349478 17.54145674 30.125 19.3125 C30.14820313 20.29863281 30.17140625 21.28476563 30.1953125 22.30078125 C30.03134255 25.40637208 29.60336327 28.03412536 28.9609375 31.0546875 C27.68195444 37.71185662 28.09095542 44.07948915 28.5 50.8125 C28.98139652 60.49117039 29.1618663 69.49493493 27 79 C27.7425 78.979375 28.485 78.95875 29.25 78.9375 C32.50945093 80.19683331 32.67548303 80.74605085 34.0703125 83.81640625 C50.65670103 126.01437467 71.85688445 202.35778886 54.1875 246.53125 C50.80559781 253.56204665 46.24802229 258.85186911 39 262 C20.36548786 267.50124891 2.42532857 262.94347697 -14.28125 254.09765625 C-14.88243652 253.74493652 -15.48362305 253.3922168 -16.10302734 253.02880859 C-17.99922893 251.93092636 -17.99922893 251.93092636 -20.19775391 251.25634766 C-22.89112663 250.14589566 -24.20231813 249.32086741 -26 247 C-27.28856446 241.1130212 -27.31043457 235.25693267 -27.375 229.25 C-27.45326424 226.0256425 -27.55148644 222.80196707 -27.6484375 219.578125 C-27.66886612 218.77777832 -27.68929474 217.97743164 -27.71034241 217.15283203 C-27.91065145 210.3552977 -28.62359035 203.68410357 -29.49609375 196.94433594 C-29.95517399 193.35087643 -30.33724124 189.76275906 -30.67578125 186.15625 C-34.01502693 149.52604284 -34.01502693 149.52604284 -43 114 C-43.35198563 112.67146886 -43.69555396 111.34022442 -44 110 C-38.89309607 114.51801709 -35.61663089 119.97581027 -32.0625 125.75 C-31.41297363 126.79752441 -30.76344727 127.84504883 -30.09423828 128.92431641 C-21.08964836 143.57500405 -12.55466163 158.54709022 -5 174 C-4.85837189 159.63261467 -5.28901726 145.34849065 -6 131 C-6.71098274 116.65150935 -7.14162811 102.36738533 -7 88 C-6.01 87.67 -5.02 87.34 -4 87 C-5.66886322 83.94041743 -7.49525069 81.40742372 -9.84765625 78.86328125 C-13.19839595 74.99489393 -15.25311949 70.9049311 -17.3125 66.25 C-17.83166992 65.11884766 -17.83166992 65.11884766 -18.36132812 63.96484375 C-19.71444324 60.99484838 -20.96683298 58.09950107 -22 55 C-23.79932579 53.93283296 -23.79932579 53.93283296 -26 53 C-27.67334039 52.01120795 -29.34151823 51.01351664 -31 50 C-30.625 48.0625 -30.625 48.0625 -30 46 C-26.78735933 44.39367966 -23.48465653 44.51026449 -20 45 C-17.51839315 46.14683967 -15.33062018 47.55501549 -13 49 C-12.01 48.505 -12.01 48.505 -11 48 C-11.09087891 47.32646484 -11.18175781 46.65292969 -11.27539062 45.95898438 C-13.0090158 32.91678885 -14.52995924 20.17046856 -14 7 C-12.68 6.67 -11.36 6.34 -10 6 C-6.47762012 10.73699363 -4.65707832 15.35086937 -3 21 C-2.95101562 19.98679688 -2.90203125 18.97359375 -2.8515625 17.9296875 C-2.77647436 16.57810089 -2.70092919 15.22653962 -2.625 13.875 C-2.57859375 12.87726563 -2.57859375 12.87726563 -2.53125 11.859375 C-2.28080367 7.60178738 -1.52471803 3.97914217 0 0 Z " fill="#E63F45" transform="translate(379,138)"/>
<path d="M0 0 C10.69391321 7.33896005 14.39360428 17.74155905 17.40844727 29.74462891 C17.80236028 31.24647307 18.23272657 32.73922999 18.69897461 34.22021484 C21.73360422 44.15262768 22.74243827 54.48277197 24.0625 64.75 C24.32972978 66.78963515 24.59698248 68.8292673 24.86425781 70.86889648 C26.49691213 83.45199923 27.8955048 96.00814308 28.80566406 108.66552734 C29.00013181 111.0015834 29.26412905 113.31859617 29.5546875 115.64453125 C30.89113699 126.53947539 31.18839629 137.34702219 31.1875 148.3125 C31.18840637 149.03854431 31.18931274 149.76458862 31.19024658 150.51263428 C31.18994972 152.6087829 31.18096606 154.70467601 31.16796875 156.80078125 C31.15672974 158.62863159 31.15672974 158.62863159 31.14526367 160.4934082 C31 164 31 164 30.41748047 167.80175781 C29.7081546 170.95219596 29.7081546 170.95219596 31.15234375 173.37109375 C31.74144531 174.05300781 32.33054687 174.73492187 32.9375 175.4375 C33.58332031 176.19417969 34.22914063 176.95085937 34.89453125 177.73046875 C39.04367106 182.20291816 43.35323749 186.46302166 47.8125 190.625 C53.58768896 196.89520515 54.14497481 203.73643608 54 212 C52.81296288 221.49629695 49.69193464 230.21523853 46 239 C38.82765954 238.4482815 29.24192427 237.24192427 24 232 C24.2673999 231.5059668 24.5347998 231.01193359 24.81030273 230.50292969 C26.02398612 228.25441041 27.23079516 226.00227155 28.4375 223.75 C29.06881836 222.58404297 29.06881836 222.58404297 29.71289062 221.39453125 C30.11572266 220.64042969 30.51855469 219.88632812 30.93359375 219.109375 C31.30540771 218.41811523 31.67722168 217.72685547 32.06030273 217.01464844 C34.57094131 211.63200632 34.61873456 205.83136131 34 200 C32.39711048 196.59453773 32.39711048 196.59453773 30 194 C29.360625 193.13375 28.72125 192.2675 28.0625 191.375 C26.02628066 188.88417587 26.02628066 188.88417587 23.25 186.8125 C22.5075 186.214375 21.765 185.61625 21 185 C21 184.34 21 183.68 21 183 C20.2575 183.12375 19.515 183.2475 18.75 183.375 C16 183 16 183 13.875 180.75 C3.95149309 163.3340461 5.36660168 136.52105402 3.44555664 116.93237305 C3.36471832 116.11851135 3.28388 115.30464966 3.20059204 114.46612549 C3.05109745 112.95925874 2.90390592 111.45216028 2.75985718 109.94476318 C2.06130211 102.93281798 1.02559751 95.97048787 0 89 C0.00444122 90.02126984 0.00888245 91.04253967 0.01345825 92.09475708 C0.05420502 101.7736049 0.08407999 111.45243506 0.10362434 121.13134956 C0.11401042 126.105995 0.12807375 131.08057055 0.15087891 136.05517578 C0.17279354 140.8662674 0.18460742 145.67729229 0.18975449 150.48843002 C0.19341712 152.31340458 0.20056807 154.13837596 0.21146011 155.96332169 C0.380828 185.54830991 0.380828 185.54830991 -5 191 C-10.55298774 192.09076545 -13.57696589 190.98481539 -18.375 188.0625 C-23.03316932 184.87398629 -27.15144113 181.29278728 -31.28125 177.45703125 C-40.87559298 168.78628164 -51.3985075 160.80074625 -63 155 C-61.63476311 152.02549836 -60.02141391 149.70150916 -57.9375 147.1875 C-55.11979976 143.49699992 -54.09106962 140.73562044 -54 136 C-54.16314697 135.36457275 -54.32629395 134.72914551 -54.49438477 134.07446289 C-55.04643671 131.8094772 -55.08266319 129.88622752 -55.02734375 127.55859375 C-55.01509766 126.72779297 -55.00285156 125.89699219 -54.99023438 125.04101562 C-54.95499735 123.3013506 -54.91591714 121.56175928 -54.87304688 119.82226562 C-54.85661133 118.57799805 -54.85661133 118.57799805 -54.83984375 117.30859375 C-54.81458618 116.17635376 -54.81458618 116.17635376 -54.78881836 115.02124023 C-54.8745646 112.68414946 -54.8745646 112.68414946 -57 110 C-57.125 106.92578125 -57.125 106.92578125 -57 103.3125 C-56.90800687 97.76416409 -57.31411867 93.26837916 -59 88 C-60.32 88 -61.64 88 -63 88 C-63.33 88.66 -63.66 89.32 -64 90 C-66.09625337 87.90374663 -65.83905594 83.64889883 -66.25 80.75 C-69.97585562 56.29878393 -76.60154588 31.66632755 -87.78515625 9.52734375 C-89 7 -89 7 -89 5 C-85.98469083 5.32306884 -84.42665608 5.55279397 -82.296875 7.78515625 C-81.78640625 8.53667969 -81.2759375 9.28820312 -80.75 10.0625 C-75.75802149 16.8816079 -69.91654415 22.75519425 -62 26 C-58.51548422 26.47044215 -58.51548422 26.47044215 -54.9375 26.375 C-53.75027344 26.38273437 -52.56304687 26.39046875 -51.33984375 26.3984375 C-47.74743992 25.96987003 -45.88121965 25.14018654 -43 23 C-38.04365717 16.57511115 -37.69966217 8.78230204 -37.875 1 C-37.88402344 0.22527344 -37.89304687 -0.54945313 -37.90234375 -1.34765625 C-37.92560612 -3.23190843 -37.9614636 -5.11599832 -38 -7 C-25.42712444 -10.52723206 -10.85133158 -6.70406942 0 0 Z " fill="#E63F45" transform="translate(322,231)"/>
<path d="M0 0 C0 4.62 0 9.24 0 14 C-2.10375 14.103125 -4.2075 14.20625 -6.375 14.3125 C-24.24430993 15.70491376 -42.09425542 25.65921798 -53.94140625 39.22265625 C-65.03064073 54.08272661 -70.77246606 72.33443581 -77.09393311 89.53833008 C-78.07909911 92.21490233 -79.06867626 94.8898154 -80.05908203 97.56445312 C-85.41414531 112.02791724 -90.72545817 126.50698142 -96 141 C-96.31938538 141.8765625 -96.63877075 142.753125 -96.96783447 143.65625 C-109.40511924 174.968109 -109.40511924 174.968109 -114.625 207.875 C-114.6362793 208.6779248 -114.64755859 209.48084961 -114.65917969 210.30810547 C-114.49657796 216.82457623 -112.60321008 222.10691281 -108.2109375 226.98828125 C-103.06382951 230.70076978 -98.15246455 232.54613123 -92 234 C-90.90365234 234.30744141 -90.90365234 234.30744141 -89.78515625 234.62109375 C-77.71222161 237.78669144 -65.96865981 235.38238726 -54 233 C-54.66 233.99 -55.32 234.98 -56 236 C-56.66 236 -57.32 236 -58 236 C-55.89606953 240.20786093 -54.38964381 241.46254701 -50 243 C-49.97296619 244.93742341 -49.95358875 246.87495479 -49.9375 248.8125 C-49.92589844 249.89144531 -49.91429687 250.97039062 -49.90234375 252.08203125 C-50 255 -50 255 -51 258 C-61.60545543 260.93045479 -72.13377213 261.33315663 -83.0625 261.375 C-84.07195679 261.38623901 -84.07195679 261.38623901 -85.10180664 261.39770508 C-101.63053752 261.54831312 -120.26647946 259.55672599 -133 248 C-138.53767379 242.31265935 -140.97647411 234.52628957 -141.01000977 226.64868164 C-140.98765259 225.35305298 -140.98765259 225.35305298 -140.96484375 224.03125 C-140.37761639 214.15534583 -140.37761639 214.15534583 -144.078125 205.5390625 C-146.65889221 204.0749115 -146.65889221 204.0749115 -149.41796875 203.03515625 C-153.38170423 201.44606411 -155.8858027 198.66413248 -158 195 C-159.78975309 189.8457527 -160.21460605 185.38870363 -159.79296875 180 C-159.74077682 179.2579834 -159.6885849 178.5159668 -159.6348114 177.75146484 C-159.05599157 170.3949495 -157.83316144 163.21930634 -156.3125 156 C-156.16882996 155.30810577 -156.02515991 154.61621155 -155.87713623 153.90335083 C-135.94686217 58.87243411 -135.94686217 58.87243411 -113 41 C-109.02105112 38.5865392 -104.97230663 36.61693004 -100.52734375 35.2265625 C-97.16604688 33.5952685 -95.17164257 31.11652168 -92.8125 28.3125 C-69.45121672 1.86732279 -32.89607875 -0.66233716 0 0 Z " fill="#287EEE" transform="translate(236,221)"/>
<path d="M0 0 C1.32 0 2.64 0 4 0 C7.10286555 6.46430323 7.21086443 11.79360009 6.91015625 18.92578125 C6.73322152 22.1741693 6.73322152 22.1741693 9 25 C9.21118164 27.34423828 9.21118164 27.34423828 9.16015625 30.0703125 C9.1437207 31.53791016 9.1437207 31.53791016 9.12695312 33.03515625 C9.10568359 34.05480469 9.08441406 35.07445312 9.0625 36.125 C9.02822713 38.14836887 8.99805024 40.17181272 8.97265625 42.1953125 C8.95468994 43.09266113 8.93672363 43.99000977 8.91821289 44.91455078 C8.76327519 46.98955973 8.76327519 46.98955973 10 48 C9.72599486 53.68385028 7.96299375 57.134562 4.4375 61.4375 C4.01275391 61.97826172 3.58800781 62.51902344 3.15039062 63.07617188 C2.11254619 64.39388448 1.05796301 65.6983849 0 67 C0.85464844 67.23847656 1.70929688 67.47695313 2.58984375 67.72265625 C6.35681392 69.13365195 9.35280645 71.07366261 12.5625 73.4375 C13.16892334 73.87707031 13.77534668 74.31664062 14.40014648 74.76953125 C19.16207406 78.27005789 23.68016155 82.0146462 28.15429688 85.87255859 C32.03926767 89.21662924 36.00542259 92.4293911 40.0625 95.5625 C41.10535156 96.36816406 42.14820313 97.17382812 43.22265625 98.00390625 C48.49139088 101.79057769 51.55981789 102.51936952 58 102 C64.39740762 92.40388857 62.26104156 76.18845375 62.1953125 65.0390625 C62.19157311 63.15335237 62.18873053 61.26764027 62.18673706 59.38192749 C62.17917338 54.46653693 62.15958907 49.55126833 62.1373291 44.63592529 C62.11671235 39.6010503 62.10770181 34.56615522 62.09765625 29.53125 C62.07633489 19.687447 62.04228894 9.84373372 62 0 C62.99 0.495 62.99 0.495 64 1 C64.60011343 3.86860502 65.05481141 6.66169899 65.4375 9.5625 C65.56382812 10.47854004 65.69015625 11.39458008 65.8203125 12.33837891 C67.03306387 21.5165653 67.85519668 30.73087345 68.68722534 39.94937134 C69.67837724 68.21836949 69.67837724 68.21836949 79 94 C80.66321482 94.35015049 82.33034549 94.68197057 84 95 C86.6875 97.4375 86.6875 97.4375 89 100 C89.66 100.66 90.32 101.32 91 102 C91.12927791 104.91045403 91.13725594 107.71554326 91.046875 110.62109375 C91.01645111 111.904645 91.01645111 111.904645 90.9854126 113.21412659 C90.93979491 115.02577833 90.88901349 116.83730624 90.83349609 118.64868164 C90.7504484 121.42252307 90.6885185 124.19627037 90.62890625 126.97070312 C90.58199989 128.72920102 90.53386361 130.48766663 90.484375 132.24609375 C90.46654968 133.07741318 90.44872437 133.9087326 90.43035889 134.76524353 C90.29832229 138.64797326 90.19950717 140.70073925 88 144 C88.66 144.99 89.32 145.98 90 147 C89.98283648 149.61743658 89.8673225 152.09222605 89.625 154.6875 C89.56828125 155.38939453 89.5115625 156.09128906 89.453125 156.81445312 C89.31195359 158.54380285 89.15728041 160.27204088 89 162 C51.14540327 162.97877378 13.30283871 163.08928362 -24.5625 163.0625 C-25.78123558 163.06164398 -26.99997116 163.06078796 -28.25563812 163.05990601 C-43.50377503 163.04841002 -58.75188391 163.02741632 -74 163 C-73.505 154.09 -73.505 154.09 -73 145 C-73.99 144.67 -74.98 144.34 -76 144 C-75.13632813 143.77054688 -74.27265625 143.54109375 -73.3828125 143.3046875 C-69.57618378 141.83654201 -66.89032794 139.78708524 -63.875 137.125 C-63.31296875 136.63523682 -62.7509375 136.14547363 -62.171875 135.64086914 C-60.43369435 134.10900001 -58.71439886 132.55840936 -57 131 C-56.22897949 130.30704834 -56.22897949 130.30704834 -55.44238281 129.60009766 C-43.45314367 118.69403505 -33.79890533 105.17335306 -26 91 C-24 92 -24 92 -23.10546875 94.22265625 C-22.80253906 95.15980469 -22.49960938 96.09695313 -22.1875 97.0625 C-20.89355215 100.83692147 -19.52274569 103.97286812 -17.25 107.25 C-14.78313869 111.03456362 -14.20945142 113.41481822 -15 118 C-17.57197017 124.90013143 -21.50928674 131.04867671 -27 136 C-27.66 136 -28.32 136 -29 136 C-26.93687686 139.66415876 -24.64127824 142.70548128 -21.8125 145.8125 C-20.73935547 146.99779297 -20.73935547 146.99779297 -19.64453125 148.20703125 C-18.83048828 149.09455078 -18.83048828 149.09455078 -18 150 C-10.17516658 145.78559572 -6.31777479 138.76582438 -3.5625 130.5 C-1.14246994 121.61264824 -0.77942133 113.3756204 -5 105 C-6.85921734 102.1430708 -8.75385688 99.34745586 -10.77514648 96.60424805 C-14.48279646 91.5538653 -16.77985591 87.36882327 -16 81 C-14 77.625 -14 77.625 -12 75 C-12.83402344 75.3609375 -13.66804688 75.721875 -14.52734375 76.09375 C-16.21537109 76.78984375 -16.21537109 76.78984375 -17.9375 77.5 C-19.59072266 78.19609375 -19.59072266 78.19609375 -21.27734375 78.90625 C-25.70782845 80.20796639 -29.46634581 81.29902705 -34 80 C-37.06321626 77.46862075 -39.19012425 74.44309073 -41.4375 71.1875 C-42.04787109 70.35412109 -42.65824219 69.52074219 -43.28710938 68.66210938 C-50.04583327 59.38469895 -50.04583327 59.38469895 -49.76171875 57 C-48.76961368 54.39508824 -47.12520108 52.41572976 -45.4609375 50.203125 C-43.05683382 46.57768522 -41.33610652 42.62008848 -39.52734375 38.671875 C-37.96583834 35.94023894 -36.63726364 34.65608814 -34 33 C-33.2575 33.99 -33.2575 33.99 -32.5 35 C-29.68231618 37.25414706 -27.87041733 37.64619873 -24.28125 37.4453125 C-17.4096706 36.10394255 -11.40766735 32.49279762 -7.17578125 26.92578125 C-3.07161165 20.20366958 -2.37530533 12.63077226 -1.4296875 4.94140625 C-1 2 -1 2 0 0 Z " fill="#CC3745" transform="translate(259,319)"/>
<path d="M0 0 C3.84623182 1.81605585 5.72021715 4.50796809 7.8125 8.1875 C9.71450058 14.2939229 10.87722951 20.74256828 9 27 C10.03125 27.0825 11.0625 27.165 12.125 27.25 C18.99918854 28.5804881 23.02515922 32.36897556 27 38 C29.51994733 43.99987459 29.63886986 50.57372077 29 57 C28.34 57.99 27.68 58.98 27 60 C26.14728516 59.02160156 26.14728516 59.02160156 25.27734375 58.0234375 C16.18049133 46.92298956 16.18049133 46.92298956 3.37207031 41.75708008 C1.98906738 41.76324341 1.98906738 41.76324341 0.578125 41.76953125 C-0.44796875 41.77146484 -1.4740625 41.77339844 -2.53125 41.77539062 C-3.5934375 41.78763672 -4.655625 41.79988281 -5.75 41.8125 C-7.32007813 41.8134668 -7.32007813 41.8134668 -8.921875 41.81445312 C-15.02398104 41.84877747 -20.94943003 42.20886899 -27 43 C-27.0825 44.051875 -27.165 45.10375 -27.25 46.1875 C-28.08858957 50.45033033 -29.00671351 51.92232566 -32 55 C-35.05859375 56.44140625 -35.05859375 56.44140625 -38.4375 57.5625 C-43.59736058 59.2904255 -48.18824624 61.00380483 -51.12182617 65.85522461 C-52.08504081 68.20769627 -52.25803973 69.88112578 -52.265625 72.4140625 C-52.26949219 73.25251709 -52.27335937 74.09097168 -52.27734375 74.95483398 C-52.26832031 75.83598877 -52.25929687 76.71714355 -52.25 77.625 C-52.24419922 78.98250366 -52.24419922 78.98250366 -52.23828125 80.36743164 C-52.16972064 85.64612277 -51.73624286 90.49252855 -50.453125 95.625 C-49.30439562 101.64592643 -48.53936144 108.80904216 -52 114 C-52.3403125 113.46890625 -52.680625 112.9378125 -53.03125 112.390625 C-56.59944872 107.19016517 -59.88874928 103.88311795 -66 102 C-69.89609183 101.53775182 -72.15673766 101.63586399 -75.75 103.1875 C-79.10109646 105.88699437 -80.76229971 108.56389406 -81.46875 112.83203125 C-81.55524243 121.08124704 -80.06591205 125.57723928 -74.53125 131.59765625 C-69.91145262 135.66262502 -65.3273271 135.43123491 -59.37890625 135.17578125 C-58.20134766 135.08876953 -58.20134766 135.08876953 -57 135 C-55.49352402 137.95507906 -53.99593635 140.91457341 -52.5 143.875 C-52.07074219 144.71675781 -51.64148438 145.55851563 -51.19921875 146.42578125 C-50.79316406 147.23144531 -50.38710937 148.03710938 -49.96875 148.8671875 C-49.40317383 149.98262939 -49.40317383 149.98262939 -48.82617188 151.12060547 C-48 153 -48 153 -48 155 C-61.22342774 153.72851656 -73.7148851 145.99739775 -84 138 C-84.59683594 137.566875 -85.19367188 137.13375 -85.80859375 136.6875 C-96.93328019 128.05494886 -106.60034856 112.98417563 -109 99 C-109.93009306 87.70601287 -108.46047053 80.29713486 -101.875 71 C-100 69 -100 69 -97 67 C-96.37438748 63.83227116 -96.37438748 63.83227116 -96.125 60.125 C-94.78606203 47.84208334 -89.80818109 38.51811222 -82 29 C-81.21882813 28.04673828 -81.21882813 28.04673828 -80.421875 27.07421875 C-76.79969189 23.09530549 -72.53731282 20.18152905 -68.0625 17.25 C-67.48935059 16.87278809 -66.91620117 16.49557617 -66.32568359 16.10693359 C-58.11891268 10.92407601 -50.66628807 9.5723673 -41.0625 8.75 C-33.0008095 7.9504302 -25.99602818 6.72343391 -18.625 3.3125 C-12.38968244 0.42781239 -6.90890381 -1.70009675 0 0 Z " fill="#2D1929" transform="translate(284,32)"/>
<path d="M0 0 C8.91 0 17.82 0 27 0 C27 4.62 27 9.24 27 14 C24.89625 14.103125 22.7925 14.20625 20.625 14.3125 C2.75569007 15.70491376 -15.09425542 25.65921798 -26.94140625 39.22265625 C-38.03064073 54.08272661 -43.77246606 72.33443581 -50.09393311 89.53833008 C-51.07909911 92.21490233 -52.06867626 94.8898154 -53.05908203 97.56445312 C-58.41414531 112.02791724 -63.72545817 126.50698142 -69 141 C-69.31938538 141.8765625 -69.63877075 142.753125 -69.96783447 143.65625 C-82.40511924 174.968109 -82.40511924 174.968109 -87.625 207.875 C-87.6362793 208.6779248 -87.64755859 209.48084961 -87.65917969 210.30810547 C-87.49657796 216.82457623 -85.60321008 222.10691281 -81.2109375 226.98828125 C-76.06382951 230.70076978 -71.15246455 232.54613123 -65 234 C-63.90365234 234.30744141 -63.90365234 234.30744141 -62.78515625 234.62109375 C-50.71222161 237.78669144 -38.96865981 235.38238726 -27 233 C-27.66 233.99 -28.32 234.98 -29 236 C-29.66 236 -30.32 236 -31 236 C-28.89606953 240.20786093 -27.38964381 241.46254701 -23 243 C-22.97296619 244.93742341 -22.95358875 246.87495479 -22.9375 248.8125 C-22.92589844 249.89144531 -22.91429687 250.97039062 -22.90234375 252.08203125 C-23 255 -23 255 -24 258 C-34.60545543 260.93045479 -45.13377213 261.33315663 -56.0625 261.375 C-57.07195679 261.38623901 -57.07195679 261.38623901 -58.10180664 261.39770508 C-74.63053752 261.54831312 -93.26647946 259.55672599 -106 248 C-112.63227669 241.18847259 -114.12268934 232.13973915 -114.1328125 222.921875 C-114.13490723 221.76969482 -114.13700195 220.61751465 -114.13916016 219.43041992 C-114.1344873 218.21588135 -114.12981445 217.00134277 -114.125 215.75 C-114.12161621 214.49743408 -114.11823242 213.24486816 -114.11474609 211.9543457 C-114.06490629 202.94782864 -113.90417634 193.97685178 -113.15332031 184.99951172 C-112.99452893 182.92864956 -112.89975455 180.85982663 -112.8046875 178.78515625 C-112.18866408 169.20371046 -112.18866408 169.20371046 -109.1484375 166.125 C-107.61165192 165.19553518 -106.04130863 164.31975091 -104.4453125 163.49609375 C-92.84494685 156.39874544 -88.50341911 138.87088526 -84.18139648 126.86581421 C-76.20193686 104.84079033 -66.14351909 84.42832852 -53 65 C-52.43490723 64.16452637 -51.86981445 63.32905273 -51.28759766 62.46826172 C-43.92896712 51.65893948 -36.30844019 41.09992892 -28 31 C-27.53948242 30.43651855 -27.07896484 29.87303711 -26.60449219 29.29248047 C-20.08566721 21.35953067 -13.16025206 13.96921288 -5.81152344 6.79711914 C-5.19954102 6.19891357 -4.58755859 5.60070801 -3.95703125 4.984375 C-3.41022705 4.45553711 -2.86342285 3.92669922 -2.30004883 3.38183594 C-0.88604547 2.01139352 -0.88604547 2.01139352 0 0 Z " fill="#1672D7" transform="translate(209,221)"/>
<path d="M0 0 C10.69391321 7.33896005 14.39360428 17.74155905 17.40844727 29.74462891 C17.80236028 31.24647307 18.23272657 32.73922999 18.69897461 34.22021484 C21.73360422 44.15262768 22.74243827 54.48277197 24.0625 64.75 C24.32972978 66.78963515 24.59698248 68.8292673 24.86425781 70.86889648 C26.49691213 83.45199923 27.8955048 96.00814308 28.80566406 108.66552734 C29.00013181 111.0015834 29.26412905 113.31859617 29.5546875 115.64453125 C30.89113699 126.53947539 31.18839629 137.34702219 31.1875 148.3125 C31.18840637 149.03854431 31.18931274 149.76458862 31.19024658 150.51263428 C31.18994972 152.6087829 31.18096606 154.70467601 31.16796875 156.80078125 C31.15672974 158.62863159 31.15672974 158.62863159 31.14526367 160.4934082 C31 164 31 164 30.41748047 167.80175781 C29.7081546 170.95219596 29.7081546 170.95219596 31.15234375 173.37109375 C31.74144531 174.05300781 32.33054687 174.73492187 32.9375 175.4375 C33.58332031 176.19417969 34.22914063 176.95085937 34.89453125 177.73046875 C39.04367106 182.20291816 43.35323749 186.46302166 47.8125 190.625 C53.58768896 196.89520515 54.14497481 203.73643608 54 212 C52.81296288 221.49629695 49.69193464 230.21523853 46 239 C38.82765954 238.4482815 29.24192427 237.24192427 24 232 C24.2673999 231.5059668 24.5347998 231.01193359 24.81030273 230.50292969 C26.02398612 228.25441041 27.23079516 226.00227155 28.4375 223.75 C29.06881836 222.58404297 29.06881836 222.58404297 29.71289062 221.39453125 C30.11572266 220.64042969 30.51855469 219.88632812 30.93359375 219.109375 C31.30540771 218.41811523 31.67722168 217.72685547 32.06030273 217.01464844 C34.57094131 211.63200632 34.61873456 205.83136131 34 200 C32.39711048 196.59453773 32.39711048 196.59453773 30 194 C29.360625 193.13375 28.72125 192.2675 28.0625 191.375 C26.02628066 188.88417587 26.02628066 188.88417587 23.25 186.8125 C22.5075 186.214375 21.765 185.61625 21 185 C21 184.34 21 183.68 21 183 C20.2575 183.12375 19.515 183.2475 18.75 183.375 C16 183 16 183 13.875 180.75 C6.15394438 167.19939234 6.54544322 147.60458584 5.02734375 132.43359375 C4.94247208 131.58884995 4.8576004 130.74410614 4.77015686 129.87376404 C4.34711534 125.64881367 3.93280106 121.42330075 3.53344727 117.19604492 C2.51787748 106.68383342 0.99816924 96.36951568 -1 86 C-1.13778366 85.27729919 -1.27556732 84.55459839 -1.41752625 83.80999756 C-7.22346759 53.52006216 -19.68548036 25.5432959 -34.93774414 -1.09082031 C-36.01877373 -3.0337418 -37.02023299 -5.00437368 -38 -7 C-25.42712444 -10.52723206 -10.85133158 -6.70406942 0 0 Z " fill="#EEBB42" transform="translate(322,231)"/>
<path d="M0 0 C0.69738281 0.00451172 1.39476562 0.00902344 2.11328125 0.01367188 C3.82555803 0.0253998 5.53779033 0.04333347 7.25 0.0625 C21.40570548 30.39277744 39.57013227 72.43310347 29.25 106.0625 C26.0268438 112.39369968 20.97459786 116.57635571 14.8125 119.9375 C10.53018297 121.28981064 7.71631599 121.5091316 3.25 121.0625 C0.26132042 118.86925143 -0.27541993 116.78615569 -0.890625 113.21484375 C-1.07004639 112.23112793 -1.24946777 111.24741211 -1.43432617 110.23388672 C-1.62099854 109.1667041 -1.8076709 108.09952148 -2 107 C-5.87722403 86.44314516 -11.7245363 66.56732992 -18.28588867 46.72998047 C-25.17816472 25.84653456 -25.17816472 25.84653456 -25.1875 17.6875 C-25.21650391 15.97433594 -25.21650391 15.97433594 -25.24609375 14.2265625 C-24.64075218 10.36572254 -23.49126206 8.80851295 -20.75 6.0625 C-18.53125 4.515625 -18.53125 4.515625 -16.25 3.3125 C-15.4971875 2.90515625 -14.744375 2.4978125 -13.96875 2.078125 C-9.32155639 -0.04911151 -5.05754022 -0.06214369 0 0 Z " fill="#EEBC42" transform="translate(225.75,235.9375)"/>
<path d="M0 0 C1.92089844 0.74169922 1.92089844 0.74169922 4 2 C4.82128906 3.87939453 4.82128906 3.87939453 5.265625 6.1328125 C5.51699219 7.34130859 5.51699219 7.34130859 5.7734375 8.57421875 C5.93070312 9.41597656 6.08796875 10.25773438 6.25 11.125 C6.42273438 11.97449219 6.59546875 12.82398438 6.7734375 13.69921875 C7.19759504 15.79644214 7.6008098 17.89788137 8 20 C9.32 14.72 10.64 9.44 12 4 C13.32 4.33 14.64 4.66 16 5 C17.5402775 9.97677898 18.50636739 14.77039648 19.125 19.9375 C19.21136719 20.62134766 19.29773438 21.30519531 19.38671875 22.00976562 C19.59602285 23.67257046 19.79871722 25.33620513 20 27 C20.38671875 26.22914063 20.7734375 25.45828125 21.171875 24.6640625 C21.69265625 23.66117188 22.2134375 22.65828125 22.75 21.625 C23.51570313 20.12839844 23.51570313 20.12839844 24.296875 18.6015625 C26.04307055 15.93420875 27.05303231 15.06347095 30 14 C30.05561623 15.77045012 30.09349478 17.54145674 30.125 19.3125 C30.14820313 20.29863281 30.17140625 21.28476563 30.1953125 22.30078125 C30.03129802 25.4072155 29.60316794 28.03701562 28.9609375 31.05859375 C27.6858918 37.69639807 28.09410688 44.0367655 28.5 50.75 C29.24338682 67.04362927 29.24338682 67.04362927 28.5 74.0625 C28.3865625 75.16722656 28.273125 76.27195312 28.15625 77.41015625 C27 80 27 80 24.04296875 81.734375 C19.41839706 83.36171528 14.62032766 84.27962953 9.8125 85.1875 C8.92369141 85.36474609 8.03488281 85.54199219 7.11914062 85.72460938 C3.28876668 86.46996388 -0.07345713 87 -4 87 C-5.375 84.9375 -5.375 84.9375 -7 82 C-7.92678415 80.93912794 -8.87268017 79.89479659 -9.83203125 78.86328125 C-13.19620833 74.99579809 -15.24997563 70.91203732 -17.3125 66.25 C-17.65861328 65.49589844 -18.00472656 64.74179688 -18.36132812 63.96484375 C-19.71444324 60.99484838 -20.96683298 58.09950107 -22 55 C-23.79932579 53.93283296 -23.79932579 53.93283296 -26 53 C-27.67334039 52.01120795 -29.34151823 51.01351664 -31 50 C-30.625 48.0625 -30.625 48.0625 -30 46 C-26.78735933 44.39367966 -23.48465653 44.51026449 -20 45 C-17.51839315 46.14683967 -15.33062018 47.55501549 -13 49 C-12.01 48.505 -12.01 48.505 -11 48 C-11.09087891 47.32646484 -11.18175781 46.65292969 -11.27539062 45.95898438 C-13.0090158 32.91678885 -14.52995924 20.17046856 -14 7 C-12.68 6.67 -11.36 6.34 -10 6 C-6.47762012 10.73699363 -4.65707832 15.35086937 -3 21 C-2.95101563 19.98679688 -2.90203125 18.97359375 -2.8515625 17.9296875 C-2.77647436 16.57810089 -2.70092919 15.22653962 -2.625 13.875 C-2.57859375 12.87726563 -2.57859375 12.87726563 -2.53125 11.859375 C-2.28080367 7.60178738 -1.52471803 3.97914217 0 0 Z " fill="#935B42" transform="translate(379,138)"/>
<path d="M0 0 C0.495 0.99 0.495 0.99 1 2 C-0.06221404 4.12132219 -1.18409113 6.1395365 -2.375 8.1875 C-25.94982566 50.80292827 -38.72458418 108.72798991 -40.5625 157.5 C-40.77913604 162.73613912 -41.17551153 167.82139475 -42 173 C-49.08837637 170.03343605 -54.91451305 166.70855527 -59 160 C-60.80168549 154.84992547 -61.21451079 150.38748626 -60.79296875 145 C-60.74077682 144.2579834 -60.6885849 143.5159668 -60.6348114 142.75146484 C-60.05599157 135.3949495 -58.83316144 128.21930634 -57.3125 121 C-57.16882996 120.30810577 -57.02515991 119.61621155 -56.87713623 118.90335083 C-36.9489273 23.88228101 -36.9489273 23.88228101 -14 6 C-9.54063755 3.27191944 -5.11914643 1.12457221 0 0 Z " fill="#EDBC42" transform="translate(137,256)"/>
<path d="M0 0 C1.32 0 2.64 0 4 0 C7.10286555 6.46430323 7.21086443 11.79360009 6.91015625 18.92578125 C6.73322152 22.1741693 6.73322152 22.1741693 9 25 C9.21118164 27.34423828 9.21118164 27.34423828 9.16015625 30.0703125 C9.1437207 31.53791016 9.1437207 31.53791016 9.12695312 33.03515625 C9.10568359 34.05480469 9.08441406 35.07445312 9.0625 36.125 C9.02822713 38.14836887 8.99805024 40.17181272 8.97265625 42.1953125 C8.95468994 43.09266113 8.93672363 43.99000977 8.91821289 44.91455078 C8.76327519 46.98955973 8.76327519 46.98955973 10 48 C10.17555876 56.25126186 4.5054814 61.31307546 -0.88671875 66.984375 C-8.71308336 74.40055278 -20.71390744 80.8854832 -31.73876953 80.61962891 C-36.45085884 79.32840858 -38.78568137 75.02897428 -41.4375 71.1875 C-42.04787109 70.35412109 -42.65824219 69.52074219 -43.28710938 68.66210938 C-50.04583327 59.38469895 -50.04583327 59.38469895 -49.76171875 57 C-48.76961368 54.39508824 -47.12520108 52.41572976 -45.4609375 50.203125 C-43.05683382 46.57768522 -41.33610652 42.62008848 -39.52734375 38.671875 C-37.96583834 35.94023894 -36.63726364 34.65608814 -34 33 C-33.505 33.66 -33.01 34.32 -32.5 35 C-29.68231618 37.25414706 -27.87041733 37.64619873 -24.28125 37.4453125 C-17.4096706 36.10394255 -11.40766735 32.49279762 -7.17578125 26.92578125 C-3.07161165 20.20366958 -2.37530533 12.63077226 -1.4296875 4.94140625 C-1 2 -1 2 0 0 Z " fill="#945C42" transform="translate(259,319)"/>
<path d="M0 0 C0 3 0 3 -1.5 4.8125 C-3.61072163 7.89063571 -3.54958051 9.29033159 -3 13 C-0.83665641 18.55738932 2.19036224 23.38076462 5.6875 28.1875 C10.62012584 35.08245307 11.90875171 41.64647468 11 50 C9.17254502 59.31076748 5.51423302 67.03692783 -1 74 C-3.75390625 75.8046875 -3.75390625 75.8046875 -6 77 C-7.842617 75.07063642 -9.67395452 73.13244033 -11.5 71.1875 C-12.28697266 70.36668945 -12.28697266 70.36668945 -13.08984375 69.52929688 C-17 65.33984375 -17 65.33984375 -17 62 C-15.57921433 60.8836684 -14.15746603 59.76853656 -12.73046875 58.66015625 C-7.97413684 54.09708388 -4.59954614 47.5223336 -3.5 41.0625 C-3.52160037 35.97561318 -6.71126702 32.06733626 -9.30859375 27.890625 C-11.25124833 24.57061486 -12.23482211 21.74086968 -13 18 C-15.21018188 20.85481826 -17.1254445 23.7913562 -19 26.875 C-27.40594368 40.07933652 -37.58900494 51.32643929 -49 62 C-49.50515137 62.47324707 -50.01030273 62.94649414 -50.53076172 63.43408203 C-54.55271214 67.12845278 -57.49132179 69.73657999 -62.9375 70.6875 C-66 70 -66 70 -67.9375 68.6875 C-69 67 -69 67 -69 64 C-67.6015625 62.4921875 -67.6015625 62.4921875 -65.625 60.875 C-64.52285156 59.946875 -64.52285156 59.946875 -63.3984375 59 C-62.60695312 58.34 -61.81546875 57.68 -61 57 C-47.1999151 45.1845427 -32.59826565 31.00181285 -25.30859375 14.06567383 C-22.04637733 6.48830942 -22.04637733 6.48830942 -18.48046875 4.82421875 C-15.6875 4.375 -15.6875 4.375 -12.8671875 4.21875 C-8.21670127 3.86394451 -4.21903255 1.88529437 0 0 Z " fill="#EEBA42" transform="translate(247,393)"/>
<path d="M0 0 C0.99 0 1.98 0 3 0 C6.02210145 11.95197949 8.73640026 23.72233682 10 36 C9.07755493 36.37934692 9.07755493 36.37934692 8.13647461 36.76635742 C5.65952873 38.19659482 5.04747155 39.19509914 3.81640625 41.73828125 C3.44580078 42.47626953 3.07519531 43.21425781 2.69335938 43.97460938 C2.32017578 44.74611328 1.94699219 45.51761719 1.5625 46.3125 C-2.41375405 54.49400702 -6.13360392 59.42896347 -14.5625 63.5 C-15.56506836 63.99258301 -15.56506836 63.99258301 -16.58789062 64.49511719 C-21.25193208 66.76173505 -25.97355149 68.88480205 -30.71484375 70.984375 C-44.31420664 77.05002609 -56.64145959 83.24949387 -68 93 C-69.28119568 94.06673538 -70.56376545 95.13182242 -71.84765625 96.1953125 C-74.92914377 98.76261384 -77.9738986 101.36770631 -81 104 C-81 99.87658012 -78.81910692 98.21235826 -76.125 95.375 C-75.62250732 94.84084473 -75.12001465 94.30668945 -74.60229492 93.75634766 C-63.79634752 82.39437432 -52.02595937 73.45325663 -37.625 67.125 C-22.23109237 59.64676882 -11.94655543 37.46254388 -6 22 C-3.53342409 14.81707958 -1.36705037 7.47514776 0 0 Z " fill="#CC3745" transform="translate(216,317)"/>
<path d="M0 0 C3.4375 0.25 3.4375 0.25 7 1 C9.48160733 4.72241099 9.33090836 7.67800701 9.37890625 11.9921875 C9.39590073 12.77514191 9.4128952 13.55809631 9.43040466 14.36477661 C9.48351873 16.86810227 9.52379466 19.37141339 9.5625 21.875 C9.60655337 24.37135774 9.653412 26.86759275 9.70530701 29.36380005 C9.73703111 30.91633892 9.7639916 32.46898453 9.78553772 34.021698 C9.85742919 37.80916274 10.23639306 41.29811834 11 45 C10 46 10 46 7.0625 46.1875 C4 46 4 46 2 44 C1.53340269 41.27530214 1.16400746 38.61820198 0.875 35.875 C0.78863281 35.12089844 0.70226562 34.36679688 0.61328125 33.58984375 C0.40110739 31.72742873 0.19954237 29.86381069 0 28 C-3.63 28 -7.26 28 -11 28 C-10.69012383 30.25036286 -10.37700182 32.50027894 -10.0625 34.75 C-9.88847656 36.00296875 -9.71445312 37.2559375 -9.53515625 38.546875 C-9.08507283 41.84390624 -9.08507283 41.84390624 -8.37109375 44.390625 C-8.24863281 44.92171875 -8.12617188 45.4528125 -8 46 C-9 47 -9 47 -11.875 47.3125 C-15 47 -15 47 -16.64038086 45.2956543 C-18.16596876 42.7197694 -18.54994996 40.92145338 -18.87890625 37.95703125 C-18.99451904 36.97283203 -19.11013184 35.98863281 -19.22924805 34.97460938 C-19.33922119 33.93111328 -19.44919434 32.88761719 -19.5625 31.8125 C-19.68471924 30.74708984 -19.80693848 29.68167969 -19.93286133 28.58398438 C-20.18006536 26.42196352 -20.42220094 24.25935693 -20.65917969 22.09619141 C-21.05778244 18.47507384 -21.48656701 14.85808643 -21.91967773 11.2409668 C-22.28770525 8.16154603 -22.64419481 5.08085436 -23 2 C-16.25 1.875 -16.25 1.875 -14 3 C-13.09166031 5.72501908 -12.81640015 7.62233971 -12.68359375 10.44921875 C-12.62075195 11.72055664 -12.62075195 11.72055664 -12.55664062 13.01757812 C-12.51732422 13.89865234 -12.47800781 14.77972656 -12.4375 15.6875 C-12.39431641 16.58017578 -12.35113281 17.47285156 -12.30664062 18.39257812 C-12.20064647 20.59490108 -12.09857949 22.79733473 -12 25 C-11.01 24.7525 -11.01 24.7525 -10 24.5 C-6.26900206 23.87816701 -2.78126622 23.93591074 1 24 C0.93417725 23.30849854 0.86835449 22.61699707 0.80053711 21.90454102 C0.50729345 18.79102193 0.2222888 15.67680332 -0.0625 12.5625 C-0.16626953 11.47388672 -0.27003906 10.38527344 -0.37695312 9.26367188 C-0.47041016 8.22919922 -0.56386719 7.19472656 -0.66015625 6.12890625 C-0.74918213 5.17056885 -0.83820801 4.21223145 -0.92993164 3.22485352 C-0.9530542 2.49065186 -0.97617676 1.7564502 -1 1 C-0.67 0.67 -0.34 0.34 0 0 Z " fill="#2C1828" transform="translate(366,68)"/>
<path d="M0 0 C5.69306896 6.83168275 7.48547614 12.9293733 7.4375 21.6875 C7.81577351 37.96769891 11.9509235 52.80928667 18.546875 67.62890625 C19.62967239 70.14087975 20.48455757 72.33462006 21 75 C11.94919071 70.34756645 7.03775815 59.74927604 3.0625 50.75 C2.78035645 50.11360596 2.49821289 49.47721191 2.20751953 48.8215332 C-1.82574744 39.21257719 -2.31501997 30.17776753 -2.25 19.8125 C-2.25773437 18.56791016 -2.26546875 17.32332031 -2.2734375 16.04101562 C-2.27085937 14.83767578 -2.26828125 13.63433594 -2.265625 12.39453125 C-2.26224121 10.76801636 -2.26224121 10.76801636 -2.25878906 9.10864258 C-1.9835809 5.80276949 -1.16988363 3.09345346 0 0 Z " fill="#CC3745" transform="translate(369,304)"/>
<path d="M0 0 C3.5520084 1.67304743 6.80538492 3.72074255 10.125 5.8125 C20.77351718 12.3938443 31.05762032 16.47557467 43 20 C43.99 20.33 44.98 20.66 46 21 C46 25.62 46 30.24 46 35 C28.19657741 31.04368387 13.73819385 22.60522748 3.375 7.359375 C1.98167391 4.9685541 0.95635911 2.5932045 0 0 Z " fill="#834A27" transform="translate(239,189)"/>
<path d="M0 0 C6.6 0.6 6.6 0.6 9 3 C9.13525391 4.91333008 9.13525391 4.91333008 8.9765625 7.26953125 C8.92491943 8.14915527 8.87327637 9.0287793 8.82006836 9.93505859 C8.7556958 10.88461426 8.69132324 11.83416992 8.625 12.8125 C7.98578573 23.88792197 7.8979395 34.90942551 8 46 C5.69 46 3.38 46 1 46 C-0.62490187 43.13340431 -1.24946015 41.08635252 -1.24291992 37.7980957 C-1.24599655 36.98077469 -1.24907318 36.16345367 -1.25224304 35.32136536 C-1.24505753 34.4483226 -1.23787201 33.57527985 -1.23046875 32.67578125 C-1.23001053 31.77377487 -1.22955231 30.87176849 -1.2290802 29.94242859 C-1.22606391 28.0403003 -1.21819625 26.13817434 -1.20581055 24.23608398 C-1.18750251 21.31290014 -1.18530129 18.39003219 -1.18554688 15.46679688 C-1.18063348 13.61978891 -1.17480593 11.7727831 -1.16796875 9.92578125 C-1.16685593 9.0466658 -1.1657431 8.16755035 -1.16459656 7.26179504 C-1.1160626 1.1160626 -1.1160626 1.1160626 0 0 Z " fill="#2C1828" transform="translate(386,68)"/>
<path d="M0 0 C3.375 -0.125 3.375 -0.125 7 0 C9 2 9 2 9.25 5.1875 C9.13166493 10.60132937 8.20674071 15.9292608 7.44140625 21.28125 C6.96280997 25.31331779 6.87358984 29.19110615 7.02734375 33.2421875 C7 35 7 35 6 36 C4.33382885 36.04063832 2.66611905 36.042721 1 36 C-0.70290698 33.03169179 -1.24911141 30.97353183 -1.1875 27.5625 C-1.17074219 26.61890625 -1.15398437 25.6753125 -1.13671875 24.703125 C-0.8325759 16.46519867 -0.43103936 8.23216401 0 0 Z " fill="#2C1828" transform="translate(403,70)"/>
<path d="M0 0 C-0.42594588 1.44096586 -0.86626633 2.87768712 -1.3125 4.3125 C-1.55613281 5.11300781 -1.79976563 5.91351563 -2.05078125 6.73828125 C-3.07698928 9.18344359 -3.89605308 10.39981502 -6 12 C-10.60147308 13.46370668 -14.05056478 13.47471761 -18.375 11.3125 C-20.66880186 9.29176979 -22.46959266 7.63570153 -24 5 C-24 4.01 -24 3.02 -24 2 C-20.93796326 1.66231828 -17.87530542 1.33063107 -14.8125 1 C-13.51602539 0.85691406 -13.51602539 0.85691406 -12.19335938 0.7109375 C-8.11207075 0.27309811 -4.11211498 -0.13621913 0 0 Z " fill="#E6F4F8" transform="translate(309,168)"/>
<path d="M0 0 C2.5 0.1875 2.5 0.1875 5 1 C7.71232939 5.06849409 7.30699887 7.16476784 7 12 C6.34 12.66 5.68 13.32 5 14 C2.33234797 13.82789342 1.21083937 13.19577941 -0.75 11.375 C-2.46793185 8.11092949 -2.33632436 5.63230308 -2 2 C-1.34 1.34 -0.68 0.68 0 0 Z " fill="#311B2A" transform="translate(266,132)"/>
<path d="M0 0 C2.3125 -0.25 2.3125 -0.25 5 0 C6.8125 1.5625 6.8125 1.5625 8 4 C8.42424242 10.15151515 8.42424242 10.15151515 7 13 C4.6875 13.25 4.6875 13.25 2 13 C0.1875 11.4375 0.1875 11.4375 -1 9 C-1.42424242 2.84848485 -1.42424242 2.84848485 0 0 Z " fill="#301B29" transform="translate(303,123)"/>
<path d="M0 0 C0 0.66 0 1.32 0 2 C-0.70125 1.94199219 -1.4025 1.88398437 -2.125 1.82421875 C-8.48696082 1.52167985 -12.30055251 2.05862558 -17.44140625 5.90625 C-19 7 -19 7 -21 7 C-19.25978079 2.83746561 -17.28740666 1.61238793 -13.30078125 -0.24609375 C-9.0399237 -1.64226609 -4.08207603 -2.04103801 0 0 Z " fill="#3A212C" transform="translate(309,105)"/>
<path d="M0 0 C0.90105469 0.00902344 1.80210937 0.01804687 2.73046875 0.02734375 C3.41753906 0.03894531 4.10460937 0.05054687 4.8125 0.0625 C4.8125 0.7225 4.8125 1.3825 4.8125 2.0625 C4.16023438 2.08828125 3.50796875 2.1140625 2.8359375 2.140625 C-2.97575709 2.51778512 -6.53344352 3.29493047 -11.1875 7.0625 C-12.363125 7.92875 -12.363125 7.92875 -13.5625 8.8125 C-14.366875 9.43125 -14.366875 9.43125 -15.1875 10.0625 C-14.93183121 6.61097139 -13.92552926 5.81761431 -11.3125 3.375 C-7.31395377 0.41607579 -4.83654129 -0.06281222 0 0 Z " fill="#37202B" transform="translate(266.1875,111.9375)"/>
<path d="M0 0 C2.625 0.375 2.625 0.375 5 1 C5.6875 2.8125 5.6875 2.8125 6 5 C4.5625 6.75 4.5625 6.75 3 8 C1.0625 7.25 1.0625 7.25 -1 6 C-1.875 4 -1.875 4 -2 2 C-1.34 1.34 -0.68 0.68 0 0 Z " fill="#2B1827" transform="translate(404,108)"/>
</svg>
