<?xml version="1.0" encoding="UTF-8"?>
<!DOCTYPE svg PUBLIC "-//W3C//DTD SVG 1.1//EN" "http://www.w3.org/Graphics/SVG/1.1/DTD/svg11.dtd">
<svg xmlns="http://www.w3.org/2000/svg" version="1.1" width="512px" height="512px" style="shape-rendering:geometricPrecision; text-rendering:geometricPrecision; image-rendering:optimizeQuality; fill-rule:evenodd; clip-rule:evenodd" xmlns:xlink="http://www.w3.org/1999/xlink">
<g><path style="opacity:0.984" fill="#020101" d="M 109.5,-0.5 C 113.167,-0.5 116.833,-0.5 120.5,-0.5C 122.807,0.977392 124.64,2.97739 126,5.5C 134.333,36.5 142.667,67.5 151,98.5C 164.421,99.4897 177.921,99.823 191.5,99.5C 191.5,102.167 191.5,104.833 191.5,107.5C 190.532,109.607 190.198,111.941 190.5,114.5C 178.5,114.5 166.5,114.5 154.5,114.5C 154.263,115.791 154.596,116.791 155.5,117.5C 162.146,141.418 168.48,165.418 174.5,189.5C 178.897,189.575 183.23,189.075 187.5,188C 196.315,184.728 205.315,182.062 214.5,180C 222.861,179.295 231.194,179.462 239.5,180.5C 246.802,182.657 254.136,185.157 261.5,188C 266.085,189.225 270.752,189.725 275.5,189.5C 276.498,164.672 276.831,139.672 276.5,114.5C 259.5,114.5 242.5,114.5 225.5,114.5C 225.5,112.167 225.5,109.833 225.5,107.5C 225.5,104.833 225.5,102.167 225.5,99.5C 245.836,99.3334 266.169,99.5 286.5,100C 288.286,100.785 289.786,101.951 291,103.5C 291.167,153.17 291.667,202.837 292.5,252.5C 311.892,248.328 331.226,248.661 350.5,253.5C 352.767,252.638 353.767,250.971 353.5,248.5C 321.207,245.2 304.874,227.2 304.5,194.5C 304.995,174.519 309.495,155.519 318,137.5C 324.521,125.992 334.021,122.492 346.5,127C 370.162,140.999 386.995,160.832 397,186.5C 402.802,209.769 395.969,228.269 376.5,242C 374.35,243.411 372.016,244.245 369.5,244.5C 369.182,248.933 369.182,253.266 369.5,257.5C 391.487,246.269 414.82,241.103 439.5,242C 454.007,246.846 459.174,256.679 455,271.5C 451.911,278.256 446.745,282.423 439.5,284C 434.167,284.333 428.833,284.667 423.5,285C 419.279,285.375 415.279,286.375 411.5,288C 442.507,320.363 454.674,358.863 448,403.5C 444.074,425.846 434.908,445.68 420.5,463C 419,463.5 417.5,464 416,464.5C 414.56,463.852 413.06,463.519 411.5,463.5C 410.928,461.745 410.094,460.078 409,458.5C 408.333,456.833 408.333,455.167 409,453.5C 435.556,417.609 441.223,378.609 426,336.5C 418.935,320.103 408.768,305.936 395.5,294C 391.518,293.981 387.852,295.148 384.5,297.5C 377.321,301.932 370.655,307.099 364.5,313C 357.866,315.021 351.866,313.688 346.5,309C 339.623,303.581 335.29,296.581 333.5,288C 333.858,285.968 334.692,284.134 336,282.5C 340.087,279.084 343.42,275.084 346,270.5C 346.617,269.551 346.451,268.718 345.5,268C 293.105,258.455 251.605,275.288 221,318.5C 202.663,348.196 198.33,379.863 208,413.5C 217.969,444.955 237.469,468.288 266.5,483.5C 308.525,503.453 348.858,500.287 387.5,474C 391.421,472.861 394.754,473.695 397.5,476.5C 398.634,478.966 398.801,481.633 398,484.5C 378.957,499.44 357.457,508.44 333.5,511.5C 323.5,511.5 313.5,511.5 303.5,511.5C 299.401,510.643 295.235,509.643 291,508.5C 289.855,509.636 288.688,510.636 287.5,511.5C 211.167,511.5 134.833,511.5 58.5,511.5C 57.8783,510.373 57.045,509.373 56,508.5C 55.3333,373.5 55.3333,238.5 56,103.5C 57.214,101.951 58.714,100.785 60.5,100C 70.8494,99.8323 81.1827,99.3323 91.5,98.5C 85.0013,74.5056 78.5013,50.5056 72,26.5C 69.083,19.4823 70.583,13.649 76.5,9C 87.7005,6.09457 98.7005,2.92791 109.5,-0.5 Z"/></g>
<g><path style="opacity:1" fill="#7dc98e" d="M 134.5,98.5 C 125.682,99.4933 116.682,99.8266 107.5,99.5C 100.832,73.4939 94.1652,47.4939 87.5,21.5C 95.4496,19.9436 103.283,17.9436 111,15.5C 111.772,15.6448 112.439,15.9781 113,16.5C 120.481,43.7564 127.647,71.0897 134.5,98.5 Z"/></g>
<g><path style="opacity:1" fill="#497654" d="M 134.5,98.5 C 135.043,98.56 135.376,98.8933 135.5,99.5C 126.008,100.822 116.675,100.822 107.5,99.5C 116.682,99.8266 125.682,99.4933 134.5,98.5 Z"/></g>
<g><path style="opacity:0.999" fill="#deecfe" d="M 191.5,107.5 C 202.833,107.5 214.167,107.5 225.5,107.5C 225.5,109.833 225.5,112.167 225.5,114.5C 231.31,115.49 237.31,115.823 243.5,115.5C 243.5,137.167 243.5,158.833 243.5,180.5C 242.167,180.5 240.833,180.5 239.5,180.5C 231.194,179.462 222.861,179.295 214.5,180C 205.315,182.062 196.315,184.728 187.5,188C 183.23,189.075 178.897,189.575 174.5,189.5C 168.48,165.418 162.146,141.418 155.5,117.5C 166.964,115.841 178.631,114.841 190.5,114.5C 190.198,111.941 190.532,109.607 191.5,107.5 Z"/></g>
<g><path style="opacity:1" fill="#1f4728" d="M 139.5,115.5 C 130.318,115.173 121.318,115.507 112.5,116.5C 111.957,116.44 111.624,116.107 111.5,115.5C 120.992,114.178 130.325,114.178 139.5,115.5 Z"/></g>
<g><path style="opacity:1" fill="#575d64" d="M 190.5,114.5 C 178.631,114.841 166.964,115.841 155.5,117.5C 154.596,116.791 154.263,115.791 154.5,114.5C 166.5,114.5 178.5,114.5 190.5,114.5 Z"/></g>
<g><path style="opacity:1" fill="#ddebfd" d="M 70.5,115.5 C 79.4178,115.183 88.2511,115.516 97,116.5C 102.693,137.803 108.193,159.137 113.5,180.5C 103.14,181.451 93.1399,183.951 83.5,188C 79.23,189.075 74.8967,189.575 70.5,189.5C 70.5,164.833 70.5,140.167 70.5,115.5 Z"/></g>
<g><path style="opacity:1" fill="#50b668" d="M 139.5,115.5 C 146.141,139.398 152.475,163.398 158.5,187.5C 148.782,184.315 138.948,181.648 129,179.5C 123.653,158.443 118.153,137.443 112.5,116.5C 121.318,115.507 130.318,115.173 139.5,115.5 Z"/></g>
<g><path style="opacity:1" fill="#b3e6fc" d="M 243.5,115.5 C 254.167,115.5 264.833,115.5 275.5,115.5C 275.5,140.167 275.5,164.833 275.5,189.5C 270.752,189.725 266.085,189.225 261.5,188C 254.136,185.157 246.802,182.657 239.5,180.5C 240.833,180.5 242.167,180.5 243.5,180.5C 243.5,158.833 243.5,137.167 243.5,115.5 Z"/></g>
<g><path style="opacity:1" fill="#7998a7" d="M 225.5,114.5 C 242.5,114.5 259.5,114.5 276.5,114.5C 276.831,139.672 276.498,164.672 275.5,189.5C 275.5,164.833 275.5,140.167 275.5,115.5C 264.833,115.5 254.167,115.5 243.5,115.5C 237.31,115.823 231.31,115.49 225.5,114.5 Z"/></g>
<g><path style="opacity:1" fill="#50b467" d="M 358.5,176.5 C 356.841,171.173 354.174,166.507 350.5,162.5C 349.263,161.035 348.263,159.368 347.5,157.5C 343.885,151.884 339.885,146.55 335.5,141.5C 336.601,140.402 337.934,140.235 339.5,141C 357.926,152.425 371.759,167.925 381,187.5C 386.871,203.875 383.037,217.375 369.5,228C 368.668,228.688 368.002,228.521 367.5,227.5C 365.266,219.631 362.933,211.798 360.5,204C 364.453,197.263 368.286,190.43 372,183.5C 373.291,175.212 369.791,172.045 361.5,174C 360.627,175.045 359.627,175.878 358.5,176.5 Z"/></g>
<g><path style="opacity:1" fill="#7bc78c" d="M 335.5,141.5 C 339.885,146.55 343.885,151.884 347.5,157.5C 340.799,154.673 336.465,156.673 334.5,163.5C 337.993,175.806 341.326,188.139 344.5,200.5C 344.167,201.167 343.833,201.833 343.5,202.5C 339.86,199.833 335.86,198.666 331.5,199C 325.85,202.412 325.183,206.579 329.5,211.5C 335.03,215.097 340.696,218.43 346.5,221.5C 343.325,224.328 339.658,226.328 335.5,227.5C 324.019,219.191 319.019,207.857 320.5,193.5C 320.486,176.245 324.319,159.912 332,144.5C 333.039,143.29 334.206,142.29 335.5,141.5 Z"/></g>
<g><path style="opacity:1" fill="#76c187" d="M 350.5,162.5 C 354.174,166.507 356.841,171.173 358.5,176.5C 358.038,178.757 357.038,180.757 355.5,182.5C 353.073,176.031 351.406,169.364 350.5,162.5 Z"/></g>
<g><path style="opacity:1" fill="#8a732b" d="M 111.5,195.5 C 112.449,194.848 113.615,194.514 115,194.5C 116.681,194.608 117.848,195.275 118.5,196.5C 116.283,195.631 113.95,195.298 111.5,195.5 Z"/></g>
<g><path style="opacity:1" fill="#fed44e" d="M 111.5,195.5 C 113.95,195.298 116.283,195.631 118.5,196.5C 138.329,270.482 158.162,344.482 178,418.5C 181.839,425.598 187.339,427.264 194.5,423.5C 200.189,436.541 207.189,448.875 215.5,460.5C 182.167,461.167 148.833,461.833 115.5,462.5C 112.131,463.559 110.464,465.892 110.5,469.5C 103.833,469.5 97.1667,469.5 90.5,469.5C 90.2562,466.737 88.9229,464.571 86.5,463C 81.1771,462.501 75.8437,462.334 70.5,462.5C 70.5,376.5 70.5,290.5 70.5,204.5C 73.8499,204.665 77.1832,204.498 80.5,204C 90.8678,201.141 101.201,198.307 111.5,195.5 Z"/></g>
<g><path style="opacity:1" fill="#fdd34e" d="M 245.5,198.5 C 244.167,223.167 244.167,247.833 245.5,272.5C 230.147,282.687 217.647,295.687 208,311.5C 197.924,276.673 188.424,241.673 179.5,206.5C 179.608,205.558 179.941,204.725 180.5,204C 184.872,203.579 189.205,202.912 193.5,202C 200.643,199.063 207.976,196.73 215.5,195C 221.5,194.333 227.5,194.333 233.5,195C 237.868,195.293 241.868,196.46 245.5,198.5 Z"/></g>
<g><path style="opacity:1" fill="#fabd06" d="M 189.5,400.5 C 189.5,401.167 189.167,401.5 188.5,401.5C 170.715,333.193 152.381,265.026 133.5,197C 133.833,196.5 134.167,196 134.5,195.5C 143.738,199.803 153.404,202.469 163.5,203.5C 174.453,246.267 185.787,288.934 197.5,331.5C 189.132,353.81 186.465,376.81 189.5,400.5 Z"/></g>
<g><path style="opacity:1" fill="#fcbe06" d="M 245.5,198.5 C 255.487,202.11 265.82,204.11 276.5,204.5C 276.5,222.167 276.5,239.833 276.5,257.5C 265.5,261.167 255.167,266.167 245.5,272.5C 244.167,247.833 244.167,223.167 245.5,198.5 Z"/></g>
<g><path style="opacity:1" fill="#4fb165" d="M 346.5,221.5 C 350.984,223.636 352.984,227.303 352.5,232.5C 346.097,233.03 340.431,231.363 335.5,227.5C 339.658,226.328 343.325,224.328 346.5,221.5 Z"/></g>
<g><path style="opacity:1" fill="#a9cf7d" d="M 417.5,257.5 C 424.508,257.334 431.508,257.5 438.5,258C 442.5,261.333 442.5,264.667 438.5,268C 407.889,268.532 381.056,278.699 358,298.5C 354.005,296.538 351.672,293.538 351,289.5C 370.142,272.512 392.309,261.845 417.5,257.5 Z"/></g>
<g><path style="opacity:1" fill="#fbb44b" d="M 384.5,297.5 C 404.786,334.348 406.953,372.348 391,411.5C 385.818,422.484 379.318,432.484 371.5,441.5C 362.285,436.193 358.118,438.859 359,449.5C 359.698,450.691 360.531,451.691 361.5,452.5C 334.111,475.407 302.444,485.74 266.5,483.5C 237.469,468.288 217.969,444.955 208,413.5C 198.33,379.863 202.663,348.196 221,318.5C 251.605,275.288 293.105,258.455 345.5,268C 346.451,268.718 346.617,269.551 346,270.5C 343.42,275.084 340.087,279.084 336,282.5C 334.692,284.134 333.858,285.968 333.5,288C 335.29,296.581 339.623,303.581 346.5,309C 351.866,313.688 357.866,315.021 364.5,313C 370.655,307.099 377.321,301.932 384.5,297.5 Z"/></g>
<g><path style="opacity:1" fill="#f7980f" d="M 411.5,463.5 C 406.807,467.861 402.141,472.195 397.5,476.5C 394.754,473.695 391.421,472.861 387.5,474C 348.858,500.287 308.525,503.453 266.5,483.5C 302.444,485.74 334.111,475.407 361.5,452.5C 370.389,453.943 373.722,450.276 371.5,441.5C 379.318,432.484 385.818,422.484 391,411.5C 406.953,372.348 404.786,334.348 384.5,297.5C 387.852,295.148 391.518,293.981 395.5,294C 408.768,305.936 418.935,320.103 426,336.5C 441.223,378.609 435.556,417.609 409,453.5C 408.333,455.167 408.333,456.833 409,458.5C 410.094,460.078 410.928,461.745 411.5,463.5 Z"/></g>
<g><path style="opacity:1" fill="#0a0602" d="M 370.5,373.5 C 378.775,372.706 381.942,376.373 380,384.5C 375.667,389.833 371.333,389.833 367,384.5C 365.518,379.774 366.685,376.107 370.5,373.5 Z"/></g>
<g><path style="opacity:1" fill="#7f6004" d="M 189.5,400.5 C 190.637,403.32 191.137,406.32 191,409.5C 189.856,406.92 189.022,404.253 188.5,401.5C 189.167,401.5 189.5,401.167 189.5,400.5 Z"/></g>
<g><path style="opacity:1" fill="#0c0600" d="M 395.5,410.5 C 404.06,409.877 407.227,413.544 405,421.5C 400.162,427.036 395.829,426.703 392,420.5C 391.333,418.5 391.333,416.5 392,414.5C 393.376,413.295 394.542,411.962 395.5,410.5 Z"/></g>
<g><path style="opacity:1" fill="#080401" d="M 371.5,441.5 C 373.722,450.276 370.389,453.943 361.5,452.5C 360.531,451.691 359.698,450.691 359,449.5C 358.118,438.859 362.285,436.193 371.5,441.5 Z"/></g>
<g><path style="opacity:1" fill="#887026" d="M 215.5,460.5 C 216.043,460.56 216.376,460.893 216.5,461.5C 182.84,462.5 149.173,462.833 115.5,462.5C 148.833,461.833 182.167,461.167 215.5,460.5 Z"/></g>
<g><path style="opacity:1" fill="#bbd6fb" d="M 90.5,469.5 C 97.1667,469.5 103.833,469.5 110.5,469.5C 110.464,473.108 112.131,475.441 115.5,476.5C 133.996,477.332 152.662,477.832 171.5,478C 162.67,480.791 153.67,482.791 144.5,484C 119.836,484.5 95.1689,484.667 70.5,484.5C 70.5,481.833 70.5,479.167 70.5,476.5C 75.8437,476.666 81.1771,476.499 86.5,476C 88.7337,474.362 90.067,472.195 90.5,469.5 Z"/></g>
<g><path style="opacity:1" fill="#7fb4f6" d="M 115.5,476.5 C 153.835,476.333 192.168,476.5 230.5,477C 238.946,484.111 247.946,490.445 257.5,496C 195.168,496.5 132.834,496.667 70.5,496.5C 70.5,492.5 70.5,488.5 70.5,484.5C 95.1689,484.667 119.836,484.5 144.5,484C 153.67,482.791 162.67,480.791 171.5,478C 152.662,477.832 133.996,477.332 115.5,476.5 Z"/></g>
</svg>
