<?xml version="1.0" encoding="UTF-8"?>
<svg version="1.1" viewBox="0 0 1200 1600" width="1280" height="1280" xmlns="http://www.w3.org/2000/svg">
<path transform="translate(492,421)" d="m0 0h66l44 2 48 4 56 6 61 9 28 5 5 2 5 8 8 17 8 16 9 17 3 10 6-3 21-14 22-14 15-10 2-1h7l15 6 13 7 13 11 8 10 5 11 2 7v27l-4 18-10 40-21 91-17 74-3 13v8l11 7 13 13 10 15 8 16 5 15 2 14v11l-2 16-6 21-9 16-10 13-14 12-19 12-15 6-11 2h-31l-3 10-3 4 1 5 6 4 9 5 11 10 7 10 10 18 14 21 3 3 3-1 5-6 7 4 23 23 5 4 2 3-1 4-8 6 4 6 8 8 17 13 18 12 5-1 22-12 18-8 21-6 6-1h31l11 4 11 8 8 11 7 16 5 3 36 15 8 4 4 5 2 6v12l-7 27-14 47-6 16-9 15-9 10-8 7-10 6-13 5-16 3h-41l-26-6-30-10-24-10-24-9-9-3-4-5-2-3-1-8-16-8-18-11-20-14-16-13-11-9-13-11-6-3-5 26-9 55-4 23-3 5-16-1-5 19-4 13-1 5-3 53-2 45-1 10v11l4 6 11 11 7 8 7 7 7 8 18 18 7 8 10 11v18l-1 19h-224l3-90 1-18 1-36v-43l-2-38-31 1-2 40v35l1 35 3 76 1 20v18h-222l-1-3-2-22v-10l4-6 13-13 8-10 25-25 7-8 12-12 3-6-1-10-1-16-2-47-1-7v-27l-8-8-8-16-3-10-2-11-12-2-2-4-11-64-5-34v-9l-8 3-3 2-7-1-4-6-2-7-7 1-29 13-28 11-19 7h-2l-2 8-4 4-25 9-37 15-25 8-22 5-8 1h-43l-16-4-14-7-14-12-9-12-7-12-7-19-15-52-4-17v-14l3-7 6-5 29-12 15-6 4-7 8-16 8-9 12-7 9-2h26l15 3 21 7 16 8 21 11 3 2 6-1 26-9 24-11 6-4-3-7-3-3 2-5 11-6 22-13 4-3 5 1 5 7 5-1 11-9 15-14 8-7 7-9 3-8 3-13 3-3h11l1-4v-23l1-9v-17l-14-1-15-5-14-8-10-8-9-8-9-11-9-14-6-14-4-17v-30l4-17 8-18 9-13 11-12 15-12 15-8 11-3v-248l3-15 6-14 7-9 9-9 14-8 15-5 17-3 18-1z" fill="#B57C5D"/>
<path transform="translate(492,421)" d="m0 0h66l44 2 48 4 56 6 61 9 28 5 5 2 5 8 8 17 8 16 9 17 3 10 6-3 21-14 22-14 15-10 2-1h7l15 6 13 7 13 11 8 10 5 11 2 7v27l-4 18-10 40-21 91-17 74-5 22-3 7-6 23-2 5-5 21-10 40-6 16-5 7-8 5-4 1h-13l-10-3-6-4-6-7-4-11 1-13 6-26 11-44 6-25 4-14 6-26 8-34 3-15v-3l-48 8-40 4-15 1h-96l-44-3-36-5-25-4-29-6-37-10-57-19-4-2v181l-2 10-6 9-9 6-9 3h-9l-11-3-5-5-6-9-3-7-1-6-1-117v-239l3-15 6-14 7-9 9-9 14-8 15-5 17-3 18-1z" fill="#414346"/>
<path transform="translate(432,1007)" d="m0 0 10 1 17 4 8 1 3 5 18 12 21 12 24 14 18 10 25 15 23 13 5-2 18-10 17-10 42-24 10-6 6-4 15 1 29 3 16 1h33l-2 4-10 7-25 14-24 14-13 8-12 8-13 11-17 16-11 9-14 11-13 10-4 3v37l2 43 5 37 5 35 24 5 70 9 43 6-1 9-7 23-1 5-3 53-2 45-1 10v11l4 6 11 11 7 8 7 7 7 8 18 18 7 8 10 11v18l-1 19h-224l3-90 1-18 1-36v-43l-2-38-31 1-2 40v35l1 35 3 76 1 20v18h-222l-1-3-2-22v-10l4-6 13-13 8-10 25-25 7-8 12-12 3-6-1-10-1-16-2-47-1-7v-27l-8-8-8-16-3-10-2-11-3-2 14-2 65-8 53-8 12-3 10-54 3-36 1-25v-37l-21-16-14-11-14-12-25-25-15-10-25-15-23-13-13-7-2-2 1-5 13-22z" fill="#6266BE"/>
<path transform="translate(832 1e3)" d="m0 0 8 5 9 5 11 10 7 10 10 18 14 21 3 3 3-1 5-6 7 4 23 23 5 4 2 3-1 4-8 6 4 6 8 8 17 13 18 12 5-1 22-12 18-8 21-6 6-1h31l11 4 11 8 8 11 7 16 5 3 36 15 8 4 4 5 2 6v12l-7 27-14 47-6 16-9 15-9 10-8 7-10 6-13 5-16 3h-41l-26-6-30-10-24-10-24-9-9-3-4-5-2-3-1-8-16-8-18-11-20-14-16-13-11-9-13-11-6-3-5 26-9 55-4 23-3 5-16-1-14-1-100-13-24-5-1-1-9-63-2-24-1-28v-37l15-12 17-13 15-13 16-15 14-11 20-12 13-8 25-14 20-12 7-6 15-11 10-9 9-11 2-3h2z" fill="#D79760"/>
<path transform="translate(373,986)" d="m0 0 11 1 2 9 2 4 8 2 31 4 4 1-1 6-15 26-3 5 1 4 22 12 23 13 24 15 10 8 25 25 11 9 16 13 19 14 1 1v37l-2 40-2 21-10 54-8 3-38 6-43 6-52 6h-13l-2-4-11-64-5-34v-9l-8 3-3 2-7-1-4-6-2-7-7 1-29 13-28 11-19 7h-2l-2 8-4 4-25 9-37 15-25 8-22 5-8 1h-43l-16-4-14-7-14-12-9-12-7-12-7-19-15-52-4-17v-14l3-7 6-5 29-12 15-6 4-7 8-16 8-9 12-7 9-2h26l15 3 21 7 16 8 21 11 3 2 6-1 26-9 24-11 6-4-3-7-3-3 2-5 11-6 22-13 4-3 5 1 5 7 5-1 11-9 15-14 8-7 7-9 3-8 3-13z" fill="#D79760"/>
<path transform="translate(929,1118)" d="m0 0 4 1 9 9 17 13 18 12 5-1 22-12 18-8 21-6 6-1h31l11 4 11 8 8 11 7 16 5 3 36 15 8 4 4 5 2 6v12l-7 27-14 47-6 16-9 15-9 10-8 7-10 6-13 5-16 3h-41l-26-6-30-10-24-10-24-9-9-3-4-5-2-3-1-8-16-8-18-11-20-14-16-13-11-9-13-11-2-1 1-4 18-18 8-7 9-9 8-7 59-59z" fill="#B67D5E"/>
<path transform="translate(111,1073)" d="m0 0h26l15 3 21 7 16 8 21 11 3 2 6-1 26-9 24-11 3-2 4 1 8 11 11 19 16 27 11 19 13 22 9 16 5 11v4l-24 11-32 13-22 8h-2l-2 8-4 4-25 9-37 15-25 8-22 5-8 1h-43l-16-4-14-7-14-12-9-12-7-12-7-19-15-52-4-17v-14l3-7 6-5 29-12 15-6 4-7 8-16 8-9 12-7z" fill="#B67D5E"/>
<path transform="translate(432,1007)" d="m0 0 10 1 17 4 8 1 3 5 18 12 21 12 24 14 18 10 25 15 23 13 5-2 18-10 17-10 42-24 10-6 6-4 15 1 29 3 16 1h33l-2 4-10 7-25 14-24 14-13 8-12 8-13 11-17 16-11 9-14 11-13 10-4 3v37l2 43 5 37 5 36-36-1h-58l1-11 8-43 3-36 1-25v-37l-21-16-14-11-14-12-25-25-15-10-25-15-23-13-13-7-2-2 1-5 13-22z" fill="#A7B7C3"/>
<path transform="translate(765,1486)" d="m0 0 4 5 12 12 7 8 7 7 7 8 18 18 7 8 10 11v18l-1 19h-224l3-90 1-18 1-5z" fill="#FCFCFC"/>
<path transform="translate(582,1486)" d="m0 0h1l3 76 1 20v18h-222l-1-3-2-22v-10l4-6 13-13 8-10 25-25 7-8 12-12 2-4z" fill="#FBFBFB"/>
<path transform="translate(1146,1204)" d="m0 0 10 1 6 3 6 2v9l-2 3-1 14-14 47-6 16-9 15-9 10-8 7-10 6-13 5-16 3h-41l-26-6-30-10-24-10-24-9-9-3-4-5-2-3-1-8-16-8-18-11-5-5-16-12-5-6-2-1v-2h-2v-3h-2l-1-2v-6l6-6 7-3h14l3 1 11 1 8 5 20 12 2 1-11-8-6-3 4-1 8 4 11 8 15 6 3 2 8 2 7 3 8 4 15 5 13 3 12 3 13 2h17l28-4 17-9 5-3 7-3-11 3 3-3 10-3 3-3 1-3h3l8-7 4-4 6-4 4-8 4-5 7-11 4-4z" fill="#A16C52"/>
<path transform="translate(30,1156)" d="m0 0 4 1 3 5 5-1 3 9 1 7 7 14 6 8 8 12 9 5 21 5 16 3 6-1 17-1 13-1 20-4 14-4 19-4 3-2 16-2 10-3 27-13 24-8 2-1 15-2 10-1 8-1h7l5-1 5 3 10 18 5 11v4l-24 11-32 13-22 8h-2l-2 8-4 4-25 9-37 15-25 8-22 5-8 1h-43l-16-4-14-7-14-12-9-12-7-12-2-7-3-13-5-15 1-8h-2l-1-6 1-5-3-1h2l-2-12h-2l-2-5-3-2-1-7 2-7 3 2z" fill="#A16C52"/>
<path transform="translate(631,842)" d="m0 0h9l13 4 8 6 4 6 3 5v10l-7 11-7 7 1 2 16 5 15 7 9 5v2l4 2 10 9 8 7 9 14 3 8v6l-5 8-5 3-9 1h-21l-23-4-25-7-22-10h-9l-18 5-11 1h-33l-10-1-21-6-8-5-4-6v-7l6-12 9-10 13-9 16-8 9-3 16-3h13l13 2-1-8 3-9 1-1 1-7 6-10h2l2-4 7-4z" fill="#414345"/>
<path transform="translate(496,1100)" d="m0 0 5 2 9 5 8 2 20 12 22 12 13 6 4-4 9-15 7-11 6-9h2l7 10 8 11 10 18 16-4 11-6 9-6 15-5h2l-2 4-10 9-17 13-14 11-4 3v37l2 43 5 37 5 36-36-1h-58l1-11 8-43 3-36 1-25v-37l-21-16-14-11-14-12-18-18z" fill="#E2F1F9"/>
<path transform="translate(905,795)" d="m0 0 5 5 9 6 12 12 10 15 8 16 5 15 2 14v11l-2 16-6 21-9 16-10 13-14 12-19 12-15 6-11 2h-23v-1l-7-1 1-5 1-1v-33l-1-7 2-4-1-8-1-2-5-2 2-1 5 1h13l8-3 5-4 6-12 6-20 10-41 3-12 9-30z" fill="#A16C52"/>
<path transform="translate(832 1e3)" d="m0 0 8 5 9 5 11 10 7 10 10 18 14 21 3 3 3-1 5-6 7 4 23 23 5 4 2 3-1 4-8 6 1 4-8 6-62 62-8 7-9 9-8 7-12 12-1 2-4-1-1 2 1-19 8-72 4-65v-31l-1-18v-11z" fill="#C1D3E0"/>
<path transform="translate(367,734)" d="m0 0h2l1 9 1 99 2 9 6 11 4 5 8 3 14 2v1h-10l-1 4-2 3-1 5h-2v7l-4 6-2 5-3 15-6 5-8 2v3l-7-2v-2l-4-1-7-3-8-5-5-2-11-10-9-11-9-14-6-14-4-17v-30l4-17 8-18 9-13 11-12 15-12 15-8z" fill="#A16C52"/>
<path transform="translate(363,1012)" d="m0 0h1v75l3 39 5 45 4 34 1 15-10 5-7-1-4-6-2-7h-5l-5-13-8-15-13-22-10-17-13-22-17-29-8-11v-3l-3-7-3-3 2-5 11-6 22-13 4-3 5 1 5 7 5-1 11-9 15-14 8-7z" fill="#C1D3E1"/>
<path transform="translate(618,1416)" d="m0 0h1l1 9h3l54-1h39l50 1 2 1v18l-2 31-1 12h-148v-31z" fill="#484EA8"/>
<path transform="translate(437,1425)" d="m0 0h141l3 1 1 25v36h-148v-7l-1-10 1-44z" fill="#484EA8"/>
<path transform="translate(366,1562)" d="m0 0h220l1 20v18h-222l-1-3-2-22v-10l1-2z" fill="#D79760"/>
<path transform="translate(469,1014)" d="m0 0h14l25 2 58 6 54 6 56 7 17 3v4l-11 6-13 8-18 10-21 12-19 11-10 6-6-2-21-12-32-19-18-10-24-14-17-10-14-10z" fill="#7E5036"/>
<path transform="translate(772,1562)" d="m0 0h64l1 1v18l-1 19h-224l1-26 1-11z" fill="#D79860"/>
<path transform="translate(496,767)" d="m0 0 12 1 8 2 35 5 11 3 8 9 5 12 1 5v15l-4 15-6 11-12 12-11 7-7 3-17 2-11-2-9-4-8-6-7-8-7-14-3-14v-14l4-16 6-10z" fill="#FAFAFA"/>
<path transform="translate(705,796)" d="m0 0h23l32 2 11 2 5 6 8 16 2 6 1 13-3 15-6 12-9 10-11 8-8 4-7 2h-19l-11-3-10-6-5-4-6-8-6-13-3-13v-10l3-15 8-14 9-9z" fill="#FAFAFA"/>
<path transform="translate(634,1519)" d="m0 0h11l16 4 30 5h47l28 1 16 3 14 5 9 6 15 12 2 5 13 1v1l-63 1h-158l1-4 2-27 3-5 5-4z" fill="#E7E6E5"/>
<path transform="translate(558,1521)" d="m0 0h10l8 6 5 4 2 6 1 11 1 3v11l-72 1h-95l-52-1 4-1 1-5 14-10 23-11 10-3 16-2 68-2 33-3 20-3z" fill="#E7E6E6"/>
<path transform="translate(561,1250)" d="m0 0h72l2 1 5 31 4 29-36-1h-58l1-11 9-47z" fill="#C0D2E0"/>
<path transform="translate(832 1e3)" d="m0 0 8 5 9 5 11 10 7 10 10 18 14 21 3 3 3-1 5-6 7 4 1 2-6-1-6 4-14 11-16 15-16 16-8 7-14 12-1 3h-2v5h-1l1-15 4-65v-31l-1-18v-11z" fill="#E3F1F9"/>
<path transform="translate(682,757)" d="m0 0h11l86 7 32 2 4 1v8l-3 24-2 2h-21l-22-1-7-1-42-3-36-3-5-2v-8l4-25z" fill="#414346"/>
<path transform="translate(471,727)" d="m0 0 43 7 81 14 9 2 1 4-4 14-2 13-2 1-14-1-20-4-9-2-26-2-12-2-8-2-25-4-17-4-2-1 5-26z" fill="#414346"/>
<path transform="translate(496,1100)" d="m0 0 5 2 9 5 8 2 20 12 22 12 13 6 4-4 9-15 7-11 6-9h2l7 10 8 11 10 18 16-4 11-6 9-6 15-5h2l-2 4-10 9-17 13-14 11-4 3-1 30h-1l-1-25-4 4-5 2h-19l-12-2-8-3-5-3-4-8-7-1-3 3h-3l-21-16-16-13-13-12-13-13z" fill="#D2DDE5"/>
<path transform="translate(529,782)" d="m0 0h15l9 4 5 4 7 11 2 9v10l-3 10-6 8-6 6-8 4-6 1h-13l-7-4-8-8-3-4-2-8v-14l4-14 8-10 5-3z" fill="#43454A"/>
<path transform="translate(717,804)" d="m0 0h12l8 2 7 6 6 10 2 9v13l-3 10-7 9-5 3-7 4h-19l-7-4-8-8-3-5-2-6v-18l4-10 6-8 8-5z" fill="#424449"/>
<path transform="translate(367,734)" d="m0 0h2v20l-1 22-4 4-4 1v2l-9 6h-2v2l-8 7-6 5h-5l-4-3-8 8-5 3-6 8-7 4h-2l-1 24h-1v-30l4-17 8-18 9-13 11-12 15-12 15-8z" fill="#B77E5F"/>
<path transform="translate(276,1080)" d="m0 0 4 4 6 10 16 26 6 11 6 9 8 4 12 2 13 1 14-1 3-3 2-8h2l5 44 3 26 1 15-10 5-7-1-4-6-2-7h-5l-5-13-8-15-13-22-10-17-13-22-17-29-7-10z" fill="#A8B7C3"/>
<path transform="translate(631,842)" d="m0 0h9l13 4 8 6 4 6 3 5v10l-7 11-7 7v2l-9 1-5 1h-18l-25-7 3-1-1-8 3-9 1-1 1-7 6-10h2l2-4 7-4z" fill="#8D583E"/>
<path transform="translate(363,1012)" d="m0 0h1v75l2 30v9l-3-3-3-1-5-10-13-19-13-22-10-18v-2l8-5 11-10 8-7 11-10z" fill="#E3F2FA"/>
<path transform="translate(1049,1125)" d="m0 0h31l11 4 11 8 8 11 4 9-1 3-45-8-39-3-12-1-9-2-1-4 3-5 21-8z" fill="#A26D53"/>
<path transform="translate(111,1073)" d="m0 0h26l15 3 16 5 1 3 5 1 8 5v3l-8 2-18 2-20 1-27 3-13 3-10 1-5-1v-2h-2l3-11 8-9 12-7z" fill="#A26D53"/>
<path transform="translate(905,795)" d="m0 0 5 5 9 6 12 12 10 15 8 16 5 15 1 10-3 2-4-8-3-4-5-4-5-5-1-3-5-4-11-2-7 1-3-2h-3l-5-5-2-8 1-10 1-4 3-17z" fill="#B67E5F"/>
<path transform="translate(909,1134)" d="m0 0h2l-2 4-48 48-8 7-9 9-8 7-12 12-1 2-4-1-1 2 1-19 4-31 2 2 4-4h8l6-2 10-1 20-8 10-5 10-7 9-10z" fill="#A9B8C4"/>
<path transform="translate(607,836)" d="m0 0h27l14 4 6 3 8 7 6 9 2 9-2 8-5 8-2 3-1 7 9 2 22 9 9 7 9 8 5 5 6 7-1 2-5-6-8-7-9-8-2-1v-2l-4-1-16-8-11-4-10-4v-3l7-7 6-10v-10l-3-5-4-6-7-5-13-4h-9l-12 3-6 4-1 2h-2l-2 6-3 4-1 7-3 7-1 8v3h-9l-5-2v-7l-2-6v-11l4-11 8-9 7-4z" fill="#A16C51"/>
<path transform="translate(469,1014)" d="m0 0h14l25 2 49 5-2 2h-22l-11 3-4 8 1 5 3 5 5 4 4 4v3l-5-2-26-15-17-10-14-10z" fill="#8F5A40"/>
<path transform="translate(599,1100)" d="m0 0h2l7 10 8 11 10 18 16-4 11-6 9-6 15-5h2l-2 4-10 9-9 7-12 2-19 4-3-3-19-10-7-4-9-1-9 6 2-5 10-17z" fill="#C1D3E0"/>
<path transform="translate(794,1276)" d="m0 0 7 1 5 4 1 10-3 6-2 16-3 12-9-3-2-3v-4h-2v3h-3v-14h-2l2-5 3-4-2-1 2-7h2l1-8 7 1z" fill="#B67D5E"/>
<path transform="translate(496,1100)" d="m0 0 5 2 9 5 8 2 20 12 22 12 13 6 5-4-2 5-2 2-6-1-20-6h-4l-1 7-5-3-16-13-13-12-13-13z" fill="#C2D3E0"/>
<path transform="translate(844,1013)" d="m0 0 5 2 11 10 7 10 10 18 14 21 3 3 3-1 5-6 7 4 1 2-6-1-6 4-4 1-7-6-8-4-7-7-2-7-2-11-4-9-2-5-4-2-4-5v-2l-3-1-5-5z" fill="#FCFCFC"/>
<path transform="translate(483,1014)" d="m0 0h21l48 5 47 5 40 4 25 4 17 2 17 3-3 3-6-2-28-4-85-10-60-6-17-2-16-1z" fill="#A16C52"/>
<path transform="translate(638,1278)" d="m0 0 2 4 4 29-36-1v-1l18-1v-4l3-3h2v-2h2v-2h2l2-14z" fill="#A8B8C4"/>
<path transform="translate(308,1042)" d="m0 0 5 1 9 13 8 15-1 2-6-7-8-7-2-2-1-4-6-2h-8l-7 5-7 3-2 3-7 1 5-4 24-14z" fill="#D3DFE7"/>
<path transform="translate(894,1081)" d="m0 0h2l-2 5-4 5h-2l-2 4-13 13-15 10-10 8-2-1 15-14 16-16 8-7z" fill="#D3DEE6"/>
<path transform="translate(21,1172)" d="m0 0 5 2 1 5h2l1-2 1 10 2 10h-2l1 6h2v8l6 17 2 11h-2l-9-29-10-35z" fill="#B98264"/>
<path transform="translate(369,770)" d="m0 0h1l1 72 2 9 6 11 2 3-8-1-2-3-3 5v3l-4-2h2l1-7 1-3-1-4v-8h2z" fill="#88563C"/>
<path transform="translate(363,1012)" d="m0 0h1v75l2 30v9l-3-3-3-1-2-5h4v-104z" fill="#E8E7E6"/>
<path transform="translate(832 1e3)" d="m0 0 1 3v24l2 33-2 9-2 30h-1v-17l1-19v-31l-1-18v-11z" fill="#DFE2E5"/>
<path transform="translate(352,1023)" d="m0 0 2 1-9 9-11 14-5 6-6 2-2-2v-3l6-4 11-10 8-7z" fill="#FDFDFD"/>
<path transform="translate(663,895)" d="m0 0 6 1 22 9 9 7 9 8 5 5 6 7-1 2-5-6-8-7-9-8-2-1v-2l-4-1-16-8-12-5z" fill="#976349"/>
<path transform="translate(143,1289)" d="m0 0h11l2 2-10 2h-37v-1z" fill="#905C42"/>
<path transform="translate(745,1327)" d="m0 0h15l21 3v3l-7 1-15-3-14-3z" fill="#4B51AB"/>
<path transform="translate(885,868)" d="m0 0h1l-1 9-7 28-5 9-6 7-5 1 9-9 5-12 6-21z" fill="#86543A"/>
<path transform="translate(667,862)" d="m0 0h2l1 6-2 8-5 8-2 3-1 7 3 1-2 1-7-3v-3l7-7 6-10z" fill="#A16C52"/>
<path transform="translate(631,1558)" d="m0 0h8l4 2h16l14 1v1h-49v-1l6-2z" fill="#D1DDE5"/>
<path transform="translate(363,1099)" d="m0 0 2 4 1 23-3-3-3-1-2-5h4z" fill="#D9E0E6"/>
<path transform="translate(431,1437)" d="m0 0h3v33l-2-3z" fill="#6E74BF"/>
<path transform="translate(909,1134)" d="m0 0h2l-2 4-12 12-2-1 2-5 9-8z" fill="#B6C2CB"/>
<path transform="translate(717,890)" d="m0 0 7 1h19l6-1-1 2-8 2h-19z" fill="#D89860"/>
<path transform="translate(32,1210)" d="m0 0 2 1 6 17 2 11h-2l-8-26z" fill="#BC8768"/>
<path transform="translate(338,914)" d="m0 0 5 2 8 5 8 3v2l4 1-1 2-16-8-8-6z" fill="#BE8B6E"/>
<path transform="translate(699,914)" d="m0 0 5 1 8 9 6 5 2 5-5-5-10-9-6-5z" fill="#946147"/>
<path transform="translate(660,885)" d="m0 0 1 2-1 7 3 1-2 1-7-3 2-4z" fill="#9D684E"/>
<path transform="translate(901,806)" d="m0 0h1l-1 15-2 5-3 1 2-10z" fill="#9B664C"/>
<path transform="translate(523,1047)" d="m0 0 6 2 2 5h-3l-7-4 2-1z" fill="#945F44"/>
<path transform="translate(902,1070)" d="m0 0 7 4 1 2-6-1-5 2 1-5z" fill="#E3F2FA"/>
<path transform="translate(619,1453)" d="m0 0 1 4-1 4-1 15h-1v-20z" fill="#6367BE"/>
<path transform="translate(922,1121)" d="m0 0h2l-2 4-6 6h-2l2-4z" fill="#BBC6CE"/>
<path transform="translate(550,859)" d="m0 0v3l-9 5h-5l3-2z" fill="#D89860"/>
<path transform="translate(289,1054)" d="m0 0 1 2-6 3-2 3-7 1 5-4z" fill="#DBE8F0"/>
<path transform="translate(935,853)" d="m0 0 4 2 5 5-1 3-8-8z" fill="#AF775A"/>
</svg>
