<?xml version="1.0" encoding="UTF-8"?>
<svg version="1.1" xmlns="http://www.w3.org/2000/svg" width="512" height="512">
<path d="M0 0 C0.78177738 -0.00581376 1.56355476 -0.01162753 2.36902237 -0.01761746 C4.99266607 -0.03223318 7.61537655 -0.0183252 10.23901367 -0.00457001 C12.13732889 -0.0091783 14.03564053 -0.01553074 15.9339447 -0.02347898 C21.15362574 -0.04020519 26.37301494 -0.03191092 31.59269714 -0.01953411 C37.22059119 -0.01049944 42.84843436 -0.02444549 48.47631836 -0.0354538 C59.5026231 -0.0532605 70.52881906 -0.04938943 81.5551281 -0.03780323 C90.51470713 -0.02877766 99.47425562 -0.02754112 108.43383789 -0.0318985 C109.70795878 -0.03251143 110.98207968 -0.03312436 112.2948103 -0.03375587 C114.88298671 -0.03503474 117.47116312 -0.03633159 120.05933952 -0.03764623 C143.64856533 -0.04873288 167.23771817 -0.03722649 190.82693172 -0.01627585 C212.36406376 0.00270679 233.9011012 0.00100829 255.43823242 -0.01811981 C279.631778 -0.03953534 303.82525631 -0.04795965 328.01881409 -0.03567076 C330.59758503 -0.03439653 333.17635599 -0.03313905 335.75512695 -0.0318985 C337.02400348 -0.0312814 338.29288 -0.03066429 339.60020733 -0.03002849 C348.55127417 -0.02657165 357.50230749 -0.03241114 366.45336914 -0.04181671 C377.35850801 -0.05302346 388.26353167 -0.05002449 399.1686573 -0.02869374 C404.73493924 -0.01816555 410.30102896 -0.01409168 415.86730957 -0.02729034 C420.95988286 -0.03918332 426.05208521 -0.03270273 431.14462471 -0.01138014 C432.98975825 -0.00690094 434.83492293 -0.00920973 436.68003654 -0.01888329 C439.18346151 -0.03100445 441.68560722 -0.01861646 444.18896484 0 C444.90948658 -0.00936466 445.63000832 -0.01872933 446.37236404 -0.02837777 C451.41802747 0.04688853 454.26774604 1.24922184 458.09448242 4.50336456 C461.53990797 8.69280368 462.5946648 11.5184249 462.59784698 16.90961456 C462.60827797 18.18581665 462.61870896 19.46201874 462.62945604 20.77689362 C462.62080857 22.18571956 462.61178198 23.59454321 462.60241699 25.00336456 C462.60702695 26.50570022 462.6133805 28.00803137 462.62132597 29.51035309 C462.63802962 33.63550902 462.62976834 37.76029498 462.6173811 41.88545227 C462.60833713 46.33542645 462.62229708 50.78533665 462.63330078 55.23529816 C462.65109758 63.95151923 462.64724085 72.66760262 462.63565022 81.38382912 C462.62662074 88.46698004 462.62538979 95.55009235 462.62974548 102.63324738 C462.63035842 103.64093359 462.63097135 104.6486198 462.63160285 105.68684196 C462.63288174 107.73386638 462.63417859 109.78089079 462.63549322 111.82791519 C462.64690242 131.02786547 462.63377998 150.22773939 462.61229175 169.42767715 C462.59442047 185.90606954 462.59752448 202.38434921 462.6159668 218.86273956 C462.6373675 237.99346523 462.64580375 257.12412396 462.63351774 276.25485992 C462.63224353 278.29440052 462.63098605 280.33394113 462.62974548 282.37348175 C462.62881983 283.87876466 462.62881983 283.87876466 462.62787548 285.41445732 C462.62442018 292.49000784 462.6302548 299.56551593 462.6396637 306.64105988 C462.65087616 315.26250722 462.64785948 323.88380886 462.62654072 332.50523949 C462.61602016 336.904985 462.61192554 341.30448749 462.62513733 345.70423126 C462.63704634 349.73099643 462.63052362 353.75729306 462.60922712 357.78401566 C462.60475469 359.24153301 462.60704175 360.69908986 462.61673027 362.15658188 C462.62888457 364.13673214 462.61403143 366.11699314 462.59784698 368.09711456 C462.59719758 369.19732941 462.59654817 370.29754425 462.59587908 371.43109894 C461.7525528 376.59850944 459.26156737 379.51091026 455.33857727 382.84690428 C451.50995874 384.80182694 448.38799825 385.06130422 444.18896484 385.00672913 C443.40718746 385.01254289 442.62541008 385.01835665 441.81994247 385.02434659 C439.19629877 385.03896231 436.57358829 385.02505433 433.94995117 385.01129913 C432.05163596 385.01590743 430.15332431 385.02225986 428.25502014 385.03020811 C423.0353391 385.04693431 417.81594991 385.03864005 412.5962677 385.02626324 C406.96837366 385.01722856 401.34053048 385.03117461 395.71264648 385.04218292 C384.68634175 385.05998963 373.66014579 385.05611856 362.63383675 385.04453236 C353.67425772 385.03550678 344.71470922 385.03427024 335.75512695 385.03862762 C334.48100606 385.03924056 333.20688517 385.03985349 331.89415455 385.04048499 C329.30597813 385.04176387 326.71780172 385.04306072 324.12962532 385.04437536 C300.54039952 385.055462 276.95124667 385.04395562 253.36203313 385.02300497 C231.82490108 385.00402234 210.28786364 385.00572084 188.75073242 385.02484894 C164.55718684 385.04626446 140.36370853 385.05468877 116.17015076 385.04239988 C113.59137981 385.04112566 111.01260885 385.03986818 108.43383789 385.03862762 C107.16496137 385.03801052 105.89608484 385.03739342 104.58875751 385.03675762 C95.63769068 385.03330078 86.68665735 385.03914026 77.7355957 385.04854584 C66.83045684 385.05975259 55.92543317 385.05675361 45.02030754 385.03542286 C39.4540256 385.02489468 33.88793588 385.02082081 28.32165527 385.03401947 C23.22908198 385.04591245 18.13687963 385.03943186 13.04434013 385.01810926 C11.1992066 385.01363007 9.35404191 385.01593886 7.5089283 385.02561241 C5.00550334 385.03773357 2.50335763 385.02534559 0 385.00672913 C-0.72052174 385.01609379 -1.44104347 385.02545846 -2.1833992 385.0351069 C-7.22906263 384.9598406 -10.07878119 383.75750729 -13.90551758 380.50336456 C-17.35094313 376.31392544 -18.40569995 373.48830423 -18.40888214 368.09711456 C-18.41931313 366.82091248 -18.42974412 365.54471039 -18.4404912 364.22983551 C-18.43184373 362.82100957 -18.42281714 361.41218592 -18.41345215 360.00336456 C-18.4180621 358.50102891 -18.42441566 356.99869776 -18.43236113 355.49637604 C-18.44906477 351.3712201 -18.44080349 347.24643415 -18.42841625 343.12127686 C-18.41937229 338.67130268 -18.43333224 334.22139247 -18.44433594 329.77143097 C-18.46213274 321.05520989 -18.45827601 312.33912651 -18.44668537 303.62290001 C-18.43765589 296.53974908 -18.43642495 289.45663678 -18.44078064 282.37348175 C-18.44139357 281.36579554 -18.4420065 280.35810932 -18.44263801 279.31988716 C-18.4439169 277.27286274 -18.44521375 275.22583833 -18.44652838 273.17881393 C-18.45793757 253.97886365 -18.44481513 234.77898973 -18.42332691 215.57905197 C-18.40545563 199.10065959 -18.40855964 182.62237991 -18.42700195 166.14398956 C-18.44840265 147.01326389 -18.45683891 127.88260517 -18.4445529 108.7518692 C-18.44327869 106.7123286 -18.4420212 104.67278799 -18.44078064 102.63324738 C-18.44016354 101.62972544 -18.43954644 100.6262035 -18.43891063 99.5922718 C-18.43545533 92.51672129 -18.44128996 85.4412132 -18.45069885 78.36566925 C-18.46191132 69.74422191 -18.45889463 61.12292026 -18.43757588 52.50148964 C-18.42705532 48.10174413 -18.4229607 43.70224164 -18.43617249 39.30249786 C-18.44808149 35.27573269 -18.44155877 31.24943606 -18.42026228 27.22271347 C-18.41578985 25.76519611 -18.41807691 24.30763927 -18.42776543 22.85014725 C-18.43991972 20.86999698 -18.42506659 18.88973599 -18.40888214 16.90961456 C-18.40823273 15.80939972 -18.40758332 14.70918488 -18.40691423 13.57563019 C-17.56358795 8.40821969 -15.07260253 5.49581887 -11.14961243 2.15982485 C-7.3209939 0.20490218 -4.1990334 -0.05457509 0 0 Z " fill="#5FAA46" transform="translate(33.905517578125,63.49663543701172)"/>
<path d="M0 0 C0.78177738 -0.00581376 1.56355476 -0.01162753 2.36902237 -0.01761746 C4.99266607 -0.03223318 7.61537655 -0.0183252 10.23901367 -0.00457001 C12.13732889 -0.0091783 14.03564053 -0.01553074 15.9339447 -0.02347898 C21.15362574 -0.04020519 26.37301494 -0.03191092 31.59269714 -0.01953411 C37.22059119 -0.01049944 42.84843436 -0.02444549 48.47631836 -0.0354538 C59.5026231 -0.0532605 70.52881906 -0.04938943 81.5551281 -0.03780323 C90.51470713 -0.02877766 99.47425562 -0.02754112 108.43383789 -0.0318985 C109.70795878 -0.03251143 110.98207968 -0.03312436 112.2948103 -0.03375587 C114.88298671 -0.03503474 117.47116312 -0.03633159 120.05933952 -0.03764623 C143.64856533 -0.04873288 167.23771817 -0.03722649 190.82693172 -0.01627585 C212.36406376 0.00270679 233.9011012 0.00100829 255.43823242 -0.01811981 C279.631778 -0.03953534 303.82525631 -0.04795965 328.01881409 -0.03567076 C330.59758503 -0.03439653 333.17635599 -0.03313905 335.75512695 -0.0318985 C337.02400348 -0.0312814 338.29288 -0.03066429 339.60020733 -0.03002849 C348.55127417 -0.02657165 357.50230749 -0.03241114 366.45336914 -0.04181671 C377.35850801 -0.05302346 388.26353167 -0.05002449 399.1686573 -0.02869374 C404.73493924 -0.01816555 410.30102896 -0.01409168 415.86730957 -0.02729034 C420.95988286 -0.03918332 426.05208521 -0.03270273 431.14462471 -0.01138014 C432.98975825 -0.00690094 434.83492293 -0.00920973 436.68003654 -0.01888329 C439.18346151 -0.03100445 441.68560722 -0.01861646 444.18896484 0 C444.90948658 -0.00936466 445.63000832 -0.01872933 446.37236404 -0.02837777 C451.39654491 0.04656807 454.20662623 1.38479968 458.09448242 4.50336456 C462.99028625 9.81745466 462.6504751 14.93085371 462.57550049 21.77884674 C462.57891819 22.91920085 462.58233589 24.05955495 462.58585715 25.23446524 C462.59244891 29.05791476 462.57043724 32.88066324 462.54858398 36.70404816 C462.54522841 39.44381912 462.54791266 42.18357636 462.550354 44.92334747 C462.55244996 50.8230427 462.53991526 56.72256078 462.51740265 62.62221146 C462.48487464 71.15205253 462.47447483 79.68180807 462.46945068 88.21170445 C462.46069928 102.05132329 462.43408791 115.89084774 462.39624023 129.73041534 C462.35951613 143.17311888 462.33120633 156.61579676 462.31420898 170.05854034 C462.31315809 170.88734877 462.3121072 171.7161572 462.31102446 172.57008104 C462.30580425 176.72802888 462.30074943 180.8859769 462.29577684 185.04392505 C462.25431961 219.53048853 462.18058439 254.01687647 462.09448242 288.50336456 C436.68448242 288.50336456 411.27448242 288.50336456 385.09448242 288.50336456 C384.76448242 285.53336456 384.43448242 282.56336456 384.09448242 279.50336456 C381.56058174 273.51414478 377.36312517 271.87787014 371.65307617 269.48383331 C366.28067602 267.42509677 361.31020439 266.09543025 355.86401367 268.47992706 C352.16119707 270.67868519 349.53325144 272.30215902 348.09448242 276.50336456 C347.85275535 280.0120587 347.85275535 280.0120587 347.96948242 283.75336456 C348.01073242 285.98086456 348.05198242 288.20836456 348.09448242 290.50336456 C343.47448242 290.83336456 338.85448242 291.16336456 334.09448242 291.50336456 C331.56633928 275.03684769 331.56633928 275.03684769 335.50146484 267.98035431 C340.06740181 262.02070712 345.7286741 257.13262332 351.34448242 252.19086456 C353.81269229 249.93111674 356.26549308 247.65616196 358.71063232 245.37148285 C360.22559747 243.96547419 361.75632216 242.57618469 363.30499268 241.20738983 C368.83299699 236.21672661 372.54089091 231.44770409 373.59448242 223.94086456 C372.38767557 215.64406747 367.41153546 211.83012009 361.08276367 207.09711456 C334.12072544 185.4577564 334.12072544 185.4577564 331.97163391 167.90848541 C331.10783995 155.85317232 331.56091793 143.69285279 332.80670166 131.67455292 C333.48732509 125.50200375 333.48732509 125.50200375 331.26220703 119.90497589 C328.36212539 116.69198985 326.20881251 114.87480793 322.09448242 113.50336456 C320.52056886 113.56944143 318.94915862 113.7064479 317.3840332 113.8852005 C274.07323862 118.29332415 274.07323862 118.29332415 259.16900635 106.6503067 C250.5441831 99.08744673 242.91123727 90.43253801 235.923172 81.34511566 C232.30640938 76.65147649 229.9026653 74.07293626 223.84838867 73.16742706 C223.12522461 73.15453644 222.40206055 73.14164581 221.65698242 73.12836456 C220.93639648 73.10000519 220.21581055 73.07164581 219.47338867 73.04242706 C213.40814086 74.21763107 210.01055638 78.58129064 206.48287964 83.26685333 C185.46509275 111.11191528 185.46509275 111.11191528 169.16186523 114.17719269 C155.97092235 115.79250092 142.45994776 115.15882268 129.26565552 113.79114532 C124.6680188 113.36421824 121.89469394 113.13669736 117.6328125 115.0895462 C112.69194658 119.62176541 112.69194658 119.62176541 110.96875 125.91187286 C111.13337944 128.90784938 111.4316069 131.87151383 111.75073242 134.85492706 C114.63290315 174.08994087 114.63290315 174.08994087 104.43890381 187.29096222 C97.14440506 195.66328781 88.74632954 203.04292461 79.89712524 209.73931122 C75.69389034 212.93250782 72.95725663 215.3796198 71.09448242 220.50336456 C70.33092391 226.39367311 71.87779041 230.64258552 75.09448242 235.50336456 C78.48894375 239.34337374 82.14911979 242.89402544 85.84448242 246.44086456 C87.78059332 248.3211079 89.71100836 250.20703506 91.64135742 252.09320831 C92.49568359 252.91683868 93.35000977 253.74046906 94.23022461 254.58905792 C96.09448242 256.50336456 96.09448242 256.50336456 96.09448242 257.50336456 C58.47448242 257.17336456 20.85448242 256.84336456 -17.90551758 256.50336456 C-18.06672971 195.05467172 -18.06672971 195.05467172 -18.10083008 169.35102081 C-18.10866161 163.47748521 -18.11674355 157.60395002 -18.12524414 151.73041534 C-18.12629914 150.99425983 -18.12735413 150.25810432 -18.1284411 149.49964106 C-18.14584003 137.61376994 -18.1773762 125.7279762 -18.21412876 113.84215097 C-18.25153023 101.64477297 -18.27375174 89.44743549 -18.28187156 77.2500025 C-18.287361 69.72303467 -18.30470098 62.19628545 -18.33718345 54.66938491 C-18.3608198 48.89847804 -18.36333942 43.12771137 -18.3579483 37.35676575 C-18.35905032 34.98881305 -18.36702767 32.62085221 -18.38233948 30.25294876 C-18.40220421 27.02299398 -18.39746889 23.79397895 -18.38653564 20.56400299 C-18.39818701 19.62430676 -18.40983838 18.68461053 -18.42184281 17.71643865 C-18.37089672 12.15842394 -17.75886375 8.81070101 -13.90551758 4.50336456 C-9.30578734 0.80555507 -5.76125317 -0.07487936 0 0 Z " fill="#78D1EF" transform="translate(33.905517578125,63.49663543701172)"/>
<path d="M0 0 C1.09441406 -0.02513672 1.09441406 -0.02513672 2.2109375 -0.05078125 C9.66098383 1.07034223 12.92669857 5.84525013 17.1875 11.4453125 C33.56317543 32.00893019 33.56317543 32.00893019 57.12591553 41.52526855 C68.93918045 42.43508183 80.85274875 41.96701435 92.63180542 40.73912048 C98.2080883 40.19087817 101.78690095 40.00989258 106.625 43.3125 C109.10140735 45.62420567 111.10492505 48.2723501 112.625 51.3125 C112.56169726 52.88415985 112.42743109 54.45319596 112.2590332 56.01708984 C108.61013092 87.06936538 108.61013092 87.06936538 119.29417419 115.1182251 C126.58393136 123.48400627 134.97970825 130.85694686 143.82240295 137.54850769 C148.02564073 140.74165569 150.76223728 143.18878681 152.625 148.3125 C153.40396016 154.3216212 151.81584848 158.34970847 148.625 163.3125 C146.1426382 166.09688877 143.40079754 168.53754899 140.61328125 171.01171875 C139.03342668 172.48247298 137.45602782 173.95586868 135.88085938 175.43164062 C133.42068303 177.71967065 130.95089257 179.98815398 128.43432617 182.21411133 C116.61077345 192.53243017 116.61077345 192.53243017 112.13774109 207.02558899 C112.09798084 210.56019017 112.21426665 214.04338243 112.55558777 217.56184387 C112.5784938 218.13956039 112.60139984 218.71727692 112.625 219.3125 C110.78832055 221.14917945 108.1169233 220.7743709 105.64697266 221.05932617 C83.55199506 223.69433872 61.97590643 230.06181227 41.15234375 237.74609375 C32.14158421 240.90268857 32.14158421 240.90268857 28.64819336 239.54321289 C26.24446707 238.32820955 23.94056082 237.00058294 21.625 235.625 C19.82177285 234.5986802 18.01838184 233.57264828 16.21484375 232.546875 C14.35089154 231.46991043 12.48760321 230.39179598 10.625 229.3125 C-25.47001669 208.45550287 -69.0548668 190.7608501 -111.109375 187.94140625 C-121.29636092 187.25553236 -126.413806 185.0649818 -133.375 177.3125 C-134.55770741 176.16156581 -135.74979556 175.02022232 -136.94921875 173.88671875 C-138.21683094 172.67519559 -139.48375998 171.46295724 -140.75 170.25 C-141.34578857 169.68506836 -141.94157715 169.12013672 -142.55541992 168.53808594 C-147.47054813 163.67953374 -150.90093672 158.69020084 -151.875 151.75 C-150.66819315 143.45320291 -145.69205304 139.63925553 -139.36328125 134.90625 C-119.24633923 118.90655167 -119.24633923 118.90655167 -110.25215149 95.71762085 C-109.38835753 83.66230776 -109.84143551 71.50198823 -111.08721924 59.48368835 C-111.77267734 52.10185791 -111.77267734 52.10185791 -109.57788086 47.74536133 C-106.81960516 44.69912201 -104.06697866 42.15848933 -100.375 40.3125 C-98.80841036 40.38087198 -97.24469271 40.52048118 -95.6862793 40.69433594 C-64.48983195 44.37850508 -64.48983195 44.37850508 -36.35960388 33.45944214 C-26.37659573 24.75554479 -17.7742399 14.568262 -9.89057922 3.95094299 C-7.03567289 0.86459739 -4.11649241 0.02166575 0 0 Z " fill="#EF6423" transform="translate(255.375,135.6875)"/>
<path d="M0 0 C4.82015205 2.52642452 7.37541431 4.57114111 9.83203125 9.484375 C9.83203125 12.454375 9.83203125 15.424375 9.83203125 18.484375 C35.24203125 18.484375 60.65203125 18.484375 86.83203125 18.484375 C86.99246649 39.70639167 86.99246649 39.70639167 87.02734375 48.76171875 C87.05124295 54.9374773 87.07949721 61.11299833 87.13378906 67.28857422 C87.17729249 72.26822892 87.20117806 77.24762886 87.21154022 82.22745895 C87.21892349 84.12606186 87.23334139 86.02465102 87.25495148 87.92314529 C87.28404533 90.58529903 87.28798477 93.24640393 87.28613281 95.90869141 C87.30770447 97.08257919 87.30770447 97.08257919 87.32971191 98.28018188 C87.29079476 103.4600129 86.33275968 106.43555088 82.83203125 110.484375 C78.34572112 114.03402625 75.43074981 114.98357342 69.73747444 114.97656631 C69.04338329 114.98118169 68.34929213 114.98579707 67.63416791 114.99055231 C65.30879358 115.00113861 62.98452761 114.98319873 60.65921021 114.96539307 C58.97523549 114.96713751 57.29126183 114.97064009 55.60729396 114.97574973 C50.9802705 114.98469849 46.35361703 114.96868745 41.7266407 114.94863749 C36.7369246 114.93137546 31.74722962 114.93720831 26.75749207 114.94024658 C18.11258113 114.94234473 9.46779089 114.9297869 0.82291031 114.90729523 C-11.67614019 114.87479718 -24.17513229 114.86437045 -36.67422046 114.85934326 C-56.9527686 114.85058717 -77.23125241 114.82396304 -97.50976562 114.78613281 C-117.20930662 114.74942087 -136.90883014 114.7211051 -156.60839844 114.70410156 C-158.42959473 114.70252522 -158.42959473 114.70252522 -160.28758286 114.70091704 C-166.37847594 114.69569691 -172.46936915 114.69064207 -178.56026244 114.68566942 C-229.09620901 114.6441976 -279.63208574 114.57374059 -330.16796875 114.484375 C-330.16796875 114.154375 -330.16796875 113.824375 -330.16796875 113.484375 C-329.5531665 113.44997314 -328.93836426 113.41557129 -328.30493164 113.38012695 C-301.22392559 111.77953602 -274.17080152 108.46102602 -248.16796875 100.484375 C-246.57227051 99.99710938 -246.57227051 99.99710938 -244.94433594 99.5 C-228.87951313 94.52125179 -213.39559426 88.62092896 -198.16796875 81.484375 C-197.3275 81.09169434 -196.48703125 80.69901367 -195.62109375 80.29443359 C-185.4201743 75.47666444 -175.63348437 70.08934962 -165.91796875 64.359375 C-141.07795697 49.71013728 -114.91904685 38.44564056 -87.16796875 30.484375 C-86.18650879 30.20223145 -85.20504883 29.92008789 -84.19384766 29.62939453 C-65.95783437 24.49645133 -46.21132935 19.87760126 -27.16796875 20.484375 C-27.49796875 19.494375 -27.82796875 18.504375 -28.16796875 17.484375 C-28.66720712 12.27101694 -28.7941158 7.86189851 -26.60546875 3.046875 C-18.24583926 -5.74145344 -10.52122172 -4.46772718 0 0 Z " fill="#4B8C41" transform="translate(409.16796875,333.515625)"/>
<path d="M0 0 C1.09441406 -0.02513672 1.09441406 -0.02513672 2.2109375 -0.05078125 C9.66098383 1.07034223 12.92669857 5.84525013 17.1875 11.4453125 C33.56317543 32.00893019 33.56317543 32.00893019 57.12591553 41.52526855 C68.93918045 42.43508183 80.85274875 41.96701435 92.63180542 40.73912048 C98.2080883 40.19087817 101.78690095 40.00989258 106.625 43.3125 C109.10140735 45.62420567 111.10492505 48.2723501 112.625 51.3125 C112.56169726 52.88415985 112.42743109 54.45319596 112.2590332 56.01708984 C108.61013092 87.06936538 108.61013092 87.06936538 119.29417419 115.1182251 C126.58393136 123.48400627 134.97970825 130.85694686 143.82240295 137.54850769 C148.02564073 140.74165569 150.76223728 143.18878681 152.625 148.3125 C153.40396016 154.3216212 151.81584848 158.34970847 148.625 163.3125 C146.1426382 166.09688877 143.40079754 168.53754899 140.61328125 171.01171875 C139.03342668 172.48247298 137.45602782 173.95586868 135.88085938 175.43164062 C133.42068303 177.71967065 130.95089257 179.98815398 128.43432617 182.21411133 C116.61077345 192.53243017 116.61077345 192.53243017 112.13774109 207.02558899 C112.09798084 210.56019017 112.21426665 214.04338243 112.55558777 217.56184387 C112.5784938 218.13956039 112.60139984 218.71727692 112.625 219.3125 C110.78793459 221.14956541 108.11369169 220.77470528 105.64306641 221.06079102 C94.93658813 222.33358222 84.65625389 224.63372592 74.25 227.375 C73.57555847 227.55257843 72.90111694 227.73015686 72.20623779 227.91311646 C65.65919538 229.64486785 59.13356152 231.44207543 52.625 233.3125 C55.33372771 230.49863902 58.13426123 228.09949031 61.25 225.75 C79.40168212 211.2820416 92.03128404 188.93754654 95.30078125 165.87109375 C97.32567657 143.64603786 94.29349007 122.59548905 82.625 103.3125 C81.94566406 102.18585938 81.26632812 101.05921875 80.56640625 99.8984375 C67.66466747 80.06053457 49.49555674 67.35165208 26.9375 60.5625 C26.2364917 60.35141602 25.5354834 60.14033203 24.81323242 59.92285156 C0.43751939 52.93623703 -25.09914099 57.81803611 -47.1875 69.1875 C-69.79000007 82.12226405 -85.12071015 103.54391742 -92.27978516 128.31958008 C-97.34058125 147.84608894 -94.90158272 168.26681537 -88.14453125 187.01953125 C-87.375 189.3125 -87.375 189.3125 -87.375 191.3125 C-88.04660156 191.20292969 -88.71820313 191.09335937 -89.41015625 190.98046875 C-90.40917969 190.82191406 -91.40820312 190.66335938 -92.4375 190.5 C-93.61054688 190.30921875 -94.78359375 190.1184375 -95.9921875 189.921875 C-99.32469389 189.41986788 -102.64933754 189.10434862 -106.0078125 188.828125 C-124.85451489 187.13596825 -124.85451489 187.13596825 -131.04296875 180.109375 C-131.81253906 179.18640625 -132.58210938 178.2634375 -133.375 177.3125 C-134.54560318 176.15854691 -135.73037974 175.01886912 -136.92578125 173.890625 C-138.20081841 172.67739599 -139.47555846 171.46385467 -140.75 170.25 C-141.34627197 169.68498779 -141.94254395 169.11997559 -142.55688477 168.5378418 C-147.47018946 163.67764636 -150.90090668 158.69041488 -151.875 151.75 C-150.66819315 143.45320291 -145.69205304 139.63925553 -139.36328125 134.90625 C-119.24633923 118.90655167 -119.24633923 118.90655167 -110.25215149 95.71762085 C-109.38835753 83.66230776 -109.84143551 71.50198823 -111.08721924 59.48368835 C-111.77267734 52.10185791 -111.77267734 52.10185791 -109.57788086 47.74536133 C-106.81960516 44.69912201 -104.06697866 42.15848933 -100.375 40.3125 C-98.80841036 40.38087198 -97.24469271 40.52048118 -95.6862793 40.69433594 C-64.48983195 44.37850508 -64.48983195 44.37850508 -36.35960388 33.45944214 C-26.37659573 24.75554479 -17.7742399 14.568262 -9.89057922 3.95094299 C-7.03567289 0.86459739 -4.11649241 0.02166575 0 0 Z " fill="#F99F19" transform="translate(255.375,135.6875)"/>
<path d="M0 0 C0.80055817 0.00370102 1.60111633 0.00740204 2.42593384 0.01121521 C3.03093719 0.01597366 3.63594055 0.02073212 4.25927734 0.02563477 C4.37545089 8.7534555 4.46413322 17.4810075 4.5183382 26.20943451 C4.54436241 30.26303033 4.57962694 34.31609473 4.63647461 38.36938477 C4.69105383 42.28572261 4.72075179 46.20155136 4.73366356 50.11824036 C4.74285735 51.60773221 4.76081072 53.09719818 4.78792763 54.58647156 C5.04192664 69.12266808 5.04192664 69.12266808 0.75946045 74.53070068 C-4.75178627 80.02266398 -9.15318416 80.44794574 -16.80160618 80.49117661 C-18.96780153 80.47843052 -21.13331822 80.44769633 -23.29931641 80.41625977 C-24.81388092 80.40879015 -26.32845516 80.40310062 -27.84303284 80.39910889 C-31.81016185 80.38390899 -35.7766958 80.34467725 -39.74359131 80.30029297 C-43.79919385 80.2592174 -47.85489349 80.24107178 -51.91064453 80.22094727 C-59.85427558 80.17817632 -67.79742488 80.10999497 -75.74072266 80.02563477 C-75.75682072 78.10671711 -75.76830047 76.18776034 -75.77783203 74.26879883 C-75.78472046 73.20018616 -75.79160889 72.13157349 -75.79870605 71.03057861 C-75.45899793 53.42547322 -64.15322618 34.94349571 -52.55322266 22.40063477 C-38.37046253 9.01825613 -19.70426091 -0.1185915 0 0 Z " fill="#F99F19" transform="translate(251.74072265625,207.974365234375)"/>
<path d="M0 0 C14.97686358 -0.02311964 29.95372447 -0.04097956 44.93060207 -0.05181217 C51.88416081 -0.05697496 58.83770827 -0.06401734 65.79125977 -0.07543945 C72.49557209 -0.08644694 79.19987025 -0.09227621 85.90419197 -0.09487724 C88.46837613 -0.09673202 91.03255962 -0.10035364 93.59673882 -0.10573006 C97.17445158 -0.11293659 100.75211519 -0.11399111 104.32983398 -0.11352539 C105.40157364 -0.11712067 106.47331329 -0.12071594 107.57752991 -0.12442017 C108.54653229 -0.1230455 109.51553467 -0.12167084 110.51390076 -0.12025452 C111.36102851 -0.12117631 112.20815626 -0.1220981 113.08095455 -0.12304783 C115 0 115 0 116 1 C117.37473819 1.22676677 118.75889722 1.39686399 120.14453125 1.54296875 C155.29761859 5.52490575 188.60421147 14.87764722 221 29 C221.81114258 29.35030273 222.62228516 29.70060547 223.45800781 30.06152344 C240.01668814 37.28166515 255.56801425 46.66162719 271 56 C268.4337898 58.5662102 265.52212997 59.75087269 262.25 61.1875 C261.6415625 61.47302734 261.033125 61.75855469 260.40625 62.05273438 C256.12832325 63.93118298 253.45660195 64.39481435 249 63 C246.11706348 61.62867528 243.37819021 60.05090631 240.625 58.4375 C239.01177735 57.5197395 237.39716723 56.60441401 235.78125 55.69140625 C234.97558594 55.23523926 234.16992188 54.77907227 233.33984375 54.30908203 C221.76190873 47.83152698 209.75724106 42.67394356 197.38378906 37.91845703 C195.18554391 37.07148875 192.99457371 36.20813835 190.8046875 35.33984375 C153.94069486 20.88756039 114.37028819 16.99954464 75.09765625 16.68359375 C72.92190704 16.66297538 70.7461614 16.64197781 68.57041931 16.62062073 C62.89396077 16.56590348 57.21746918 16.5162761 51.54095459 16.46777344 C45.72844565 16.41718642 39.91598365 16.36169623 34.10351562 16.30664062 C22.73571734 16.19967664 11.367878 16.09809934 0 16 C0 10.72 0 5.44 0 0 Z " fill="#90C73C" transform="translate(16,320)"/>
<path d="M0 0 C4.06187665 2.79161704 7.39319551 6.40000555 10.1484375 10.4765625 C10.1484375 11.4665625 10.1484375 12.4565625 10.1484375 13.4765625 C11.6953125 13.3528125 11.6953125 13.3528125 13.2734375 13.2265625 C18.95435518 13.59307332 21.76630352 15.90765366 25.4609375 20.1015625 C28.76942524 24.75795265 28.76926373 28.87188127 28.1484375 34.4765625 C25.65509247 39.46325257 22.15492801 42.97331724 17.1484375 45.4765625 C14.24961186 45.56994038 11.37497176 45.60230523 8.47607422 45.59008789 C7.57845367 45.59023392 6.68083313 45.59037994 5.75601196 45.5905304 C2.78002532 45.58983203 -0.19589925 45.58204317 -3.171875 45.57421875 C-5.23167893 45.5723543 -7.29148331 45.57093052 -9.35128784 45.56993103 C-14.77973652 45.56610798 -20.20815855 45.55627949 -25.63659668 45.54522705 C-31.17309204 45.53500838 -36.70959169 45.53043243 -42.24609375 45.52539062 C-53.11459506 45.51465705 -63.98307656 45.49758315 -74.8515625 45.4765625 C-71.91615837 43.22582681 -69.04366115 41.43771004 -65.7265625 39.7890625 C-64.85773438 39.35207031 -63.98890625 38.91507813 -63.09375 38.46484375 C-60.8515625 37.4765625 -60.8515625 37.4765625 -58.8515625 37.4765625 C-59.01011719 36.90679687 -59.16867187 36.33703125 -59.33203125 35.75 C-60.53036685 30.50615551 -60.62687592 25.99847402 -58.1640625 21.1640625 C-55.40647121 17.95929425 -52.64939666 15.37547958 -48.8515625 13.4765625 C-43.6142931 13.21469903 -39.78940902 13.50142389 -34.8515625 15.4765625 C-34.71427734 14.38021484 -34.71427734 14.38021484 -34.57421875 13.26171875 C-33.12057301 7.65928948 -28.43541716 3.45121566 -23.9296875 0.0078125 C-16.49585876 -4.29274958 -7.5469206 -3.7870829 0 0 Z " fill="#D6E5F0" transform="translate(451.8515625,98.5234375)"/>
<path d="M0 0 C4.06187665 2.79161704 7.39319551 6.40000555 10.1484375 10.4765625 C10.1484375 11.4665625 10.1484375 12.4565625 10.1484375 13.4765625 C11.6953125 13.3528125 11.6953125 13.3528125 13.2734375 13.2265625 C18.95435518 13.59307332 21.76630352 15.90765366 25.4609375 20.1015625 C28.76942524 24.75795265 28.76926373 28.87188127 28.1484375 34.4765625 C25.65509247 39.46325257 22.15492801 42.97331724 17.1484375 45.4765625 C14.24961186 45.56994038 11.37497176 45.60230523 8.47607422 45.59008789 C7.57845367 45.59023392 6.68083313 45.59037994 5.75601196 45.5905304 C2.78002532 45.58983203 -0.19589925 45.58204317 -3.171875 45.57421875 C-5.23167893 45.5723543 -7.29148331 45.57093052 -9.35128784 45.56993103 C-14.77973652 45.56610798 -20.20815855 45.55627949 -25.63659668 45.54522705 C-31.17309204 45.53500838 -36.70959169 45.53043243 -42.24609375 45.52539062 C-53.11459506 45.51465705 -63.98307656 45.49758315 -74.8515625 45.4765625 C-71.91615837 43.22582681 -69.04366115 41.43771004 -65.7265625 39.7890625 C-64.85773438 39.35207031 -63.98890625 38.91507813 -63.09375 38.46484375 C-60.8515625 37.4765625 -60.8515625 37.4765625 -58.8515625 37.4765625 C-59.01011719 36.90679687 -59.16867188 36.33703125 -59.33203125 35.75 C-60.53036685 30.50615551 -60.62687592 25.99847402 -58.1640625 21.1640625 C-55.40647121 17.95929425 -52.64939666 15.37547958 -48.8515625 13.4765625 C-43.6142931 13.21469903 -39.78940902 13.50142389 -34.8515625 15.4765625 C-34.71427734 14.38021484 -34.71427734 14.38021484 -34.57421875 13.26171875 C-33.12057301 7.65928948 -28.43541716 3.45121566 -23.9296875 0.0078125 C-16.49585876 -4.29274958 -7.5469206 -3.7870829 0 0 Z " fill="#D6E5F0" transform="translate(107.8515625,98.5234375)"/>
<path d="M0 0 C4.9012134 1.15322668 7.68470611 4.26070435 11.1875 7.75 C11.84621094 8.40613281 12.50492188 9.06226563 13.18359375 9.73828125 C14.37907974 10.93873807 15.56629044 12.14753613 16.7421875 13.3671875 C19.02215749 15.54856419 20.22398302 15.75350798 23.4375 16.0625 C31.3646949 15.40190043 35.74126319 9.35269657 41.015625 3.89453125 C43.54665005 1.39537162 44.4911672 0.84284437 48 0.375 C51.1875 0.75 51.1875 0.75 54.0625 2.875 C56.1875 5.75 56.1875 5.75 56.9375 8.5625 C55.78014063 13.48127731 52.66092409 16.21479564 49.1875 19.75 C48.65898437 20.36230469 48.13046875 20.97460938 47.5859375 21.60546875 C41.49246927 28.40433847 33.3927022 32.98122714 24.1875 33.5 C10.57597684 32.63268578 1.75320371 23.36483641 -6.8125 13.75 C-8.25680855 10.86138291 -8.18938506 8.95352299 -7.8125 5.75 C-5.43883542 2.53857145 -3.87807732 1.03415395 0 0 Z " fill="#493C4A" transform="translate(231.8125,311.25)"/>
<path d="M0 0 C6.17508918 4.26753688 9.83214692 12.66785015 11.51171875 19.8203125 C11.80266881 24.93702051 9.79650004 28.35694589 6.9375 32.375 C2.04551757 36.9090325 -1.98358274 37.82245404 -8.49609375 37.69921875 C-12.75011691 37.1618003 -15.31584109 35.65281941 -18.0625 32.375 C-22.1800812 25.04891397 -25.10765483 17.85236692 -24.0625 9.375 C-19.28092255 -0.01105944 -9.92325044 -4.94231928 0 0 Z " fill="#FCD208" transform="translate(203.0625,125.625)"/>
<path d="M0 0 C4.14327184 2.25631664 6.69711307 5.08172615 8.8125 9.3125 C9.62192291 17.6765367 7.48028096 25.23910238 2.5078125 32.1171875 C-0.36432958 35.13204472 -3.43010641 37.06310091 -7.5546875 37.6484375 C-13.31211678 37.73811708 -16.69382672 37.27121218 -21.1875 33.3125 C-24.95290519 29.14002398 -26.74162286 25.63976224 -26.65625 19.8984375 C-25.4581067 13.28868031 -21.9286524 6.06971384 -17.1875 1.30078125 C-11.50183992 -2.57479564 -6.26022973 -2.82346775 0 0 Z " fill="#FCD208" transform="translate(324.1875,125.6875)"/>
<path d="M0 0 C3.46236126 2.39067801 5.74528805 5.0530761 7.625 8.8125 C8.13822348 13.96156185 8.24475846 18.41804346 6.125 23.1875 C0.37701992 29.22287908 -6.85650238 33.05088449 -15.25 33.3125 C-20.57202551 33.23384938 -23.30202031 32.22767403 -27.0703125 28.515625 C-31.07004368 23.29441903 -31.09985965 18.20613383 -30.375 11.8125 C-27.85496323 6.14241727 -23.66156313 3.64268026 -18.375 0.8125 C-17.59125 0.379375 -16.8075 -0.05375 -16 -0.5 C-10.56170121 -1.92431635 -5.29901679 -1.86446887 0 0 Z " fill="#FDD206" transform="translate(411.375,212.1875)"/>
<path d="M0 0 C6.15844281 2.34066277 10.32163847 4.46425305 13.86328125 10.08203125 C15.72408276 15.66443577 15.80153473 21.13335094 13.23828125 26.45703125 C9.82962602 30.22449229 7.34712419 32.69796883 2.16015625 33.5 C-5.29935695 33.8538487 -11.01352053 32.39967102 -17.13671875 28.08203125 C-20.25872836 25.1398609 -22.93879051 22.06780308 -23.375 17.69140625 C-23.53242149 11.62653618 -23.45523189 7.74147963 -19.13671875 3.08203125 C-13.25559036 -2.23898967 -7.30830674 -2.13879463 0 0 Z " fill="#FDD207" transform="translate(116.13671875,211.91796875)"/>
<path d="M0 0 C4.52465761 2.37154468 7.90525682 4.66553875 9.83203125 9.484375 C10.02734375 11.84375 10.02734375 11.84375 9.95703125 14.234375 C9.93898438 15.03359375 9.9209375 15.8328125 9.90234375 16.65625 C9.87914062 17.25953125 9.8559375 17.8628125 9.83203125 18.484375 C-2.50974361 19.12032229 -14.80788012 19.65764727 -27.16796875 19.484375 C-29.14483424 15.53064402 -28.59463693 10.79372362 -28.16796875 6.484375 C-26.11632929 1.97076818 -23.44036133 -0.62676233 -19.0703125 -2.81640625 C-12.09056955 -5.38185592 -6.48355978 -2.7531761 0 0 Z " fill="#FCD107" transform="translate(409.16796875,333.515625)"/>
<path d="M0 0 C4.08998175 1.80720124 6.66247347 4.19069751 9 8 C9.62819266 13.0255413 9.03320735 15.95572354 6 20 C3.24705395 23.21177039 0.96958591 23.86947882 -3.25 24.4375 C-8.1843364 23.86182742 -10.79803186 21.71753928 -14 18 C-15.23534045 14.29397865 -15.45528745 11.90246386 -15 8 C-10.91704021 1.64314568 -7.65816344 -0.51919752 0 0 Z " fill="#493C4A" transform="translate(291,256)"/>
<path d="M0 0 C4.08998175 1.80720124 6.66247347 4.19069751 9 8 C9.62819266 13.0255413 9.03320735 15.95572354 6 20 C3.24705395 23.21177039 0.96958591 23.86947882 -3.25 24.4375 C-8.1843364 23.86182742 -10.79803186 21.71753928 -14 18 C-15.23534045 14.29397865 -15.45528745 11.90246386 -15 8 C-10.91704021 1.64314568 -7.65816344 -0.51919752 0 0 Z " fill="#493E49" transform="translate(227,256)"/>
</svg>
