<?xml version="1.0" encoding="UTF-8"?>
<svg version="1.1" xmlns="http://www.w3.org/2000/svg" width="512" height="512">
<path d="M0 0 C3.39196671 10.5375923 6.77871189 21.07721173 9.9375 31.6875 C10.14850342 32.38673584 10.35950684 33.08597168 10.5769043 33.80639648 C11.4138398 36.65027279 12 39.01695282 12 42 C12.86496094 42.26570801 13.72992188 42.53141602 14.62109375 42.80517578 C17.9790573 43.99259439 20.93099717 45.42623536 24.0625 47.1171875 C25.75246094 48.02791016 25.75246094 48.02791016 27.4765625 48.95703125 C28.05567383 49.27236816 28.63478516 49.58770508 29.23144531 49.91259766 C30.99231664 50.87081891 32.75748527 51.82071273 34.5234375 52.76953125 C39.85090134 55.65270104 44.99846077 58.58706442 50 62 C48.64027809 66.07916572 45.91069893 67.29689032 42.4375 69.5 C41.0760278 70.38419355 39.71537968 71.26965706 38.35546875 72.15625 C37.64438965 72.61773437 36.93331055 73.07921875 36.20068359 73.5546875 C32.51048216 75.97825001 28.88118253 78.48922262 25.25 81 C18.20568562 85.86287625 18.20568562 85.86287625 15 88 C14.26341597 89.91406969 14.26341597 89.91406969 13.92504883 92.17431641 C13.76510941 93.03505768 13.60516998 93.89579895 13.44038391 94.78262329 C13.20112434 96.1779982 13.20112434 96.1779982 12.95703125 97.6015625 C12.69704597 99.02896255 12.69704597 99.02896255 12.43180847 100.48519897 C11.88010134 103.52979056 11.34612998 106.57719333 10.8125 109.625 C10.4419176 111.68770917 10.07018722 113.75021245 9.69726562 115.8125 C8.78483123 120.87270573 7.88829221 125.93550285 7 131 C-0.48653277 126.81826776 -0.48653277 126.81826776 -3.54296875 124.30078125 C-4.13625977 123.81778564 -4.72955078 123.33479004 -5.34082031 122.8371582 C-5.95022461 122.334021 -6.55962891 121.83088379 -7.1875 121.3125 C-8.4976057 120.24865354 -9.80881934 119.18617015 -11.12109375 118.125 C-11.76933105 117.60035156 -12.41756836 117.07570313 -13.08544922 116.53515625 C-15.93863417 114.24736908 -18.83201333 112.01680657 -21.75 109.8125 C-22.69359375 109.09707031 -23.6371875 108.38164062 -24.609375 107.64453125 C-28.41187565 105.02875874 -30.77985446 104.92814495 -35.21875 105.5234375 C-36.23324219 105.6575 -37.24773437 105.7915625 -38.29296875 105.9296875 C-39.35128906 106.07664062 -40.40960938 106.22359375 -41.5 106.375 C-42.55832031 106.51421875 -43.61664063 106.6534375 -44.70703125 106.796875 C-50.43318512 107.53826291 -50.43318512 107.53826291 -56 109 C-71.38714026 130.22703571 -75.95205697 160.1826265 -72.1875 185.6875 C-71.51749295 189.73617506 -70.35108718 192.61846151 -68 196 C-65.43056114 197.28471943 -63.70646328 197.05036376 -60.8359375 196.95703125 C-59.79566406 196.93576172 -58.75539063 196.91449219 -57.68359375 196.89257812 C-55.50097036 196.83975194 -53.31860031 196.77490797 -51.13671875 196.69726562 C-43.3395615 196.56779253 -37.94909664 197.5921888 -31.9765625 202.74609375 C-27.67631116 208.12762216 -25.46104963 212.38797922 -25.61328125 219.40234375 C-26.60666891 226.07509926 -29.876692 232.3367354 -33.4375 238 C-35.29814113 240.74824666 -35.29814113 240.74824666 -34.48828125 242.9140625 C-32.4116083 245.82467498 -29.73828096 247.51326952 -26.75 249.375 C-26.12303223 249.7671167 -25.49606445 250.1592334 -24.85009766 250.56323242 C-2.7777663 264.02917688 24.36618016 267.86771834 49.56640625 261.99609375 C54.39804782 260.59442299 59.09959673 258.92515843 63.78125 257.0859375 C72.32955113 254.20192328 72.32955113 254.20192328 76.72265625 256.30078125 C82.77515436 261.50451501 82.77515436 261.50451501 83.3359375 265.234375 C82.86217864 268.00261306 82.02687285 270.3832447 81 273 C80.58492188 274.14855469 80.16984375 275.29710937 79.7421875 276.48046875 C76.45613538 285.29332559 72.34099418 293.66477744 68 302 C68.58265625 302.01417969 69.1653125 302.02835937 69.765625 302.04296875 C84.81124847 302.91826445 98.42159052 311.42619738 108.64453125 322.13671875 C119.00369759 334.72920453 124.28536966 349.73392955 124 366 C124.72316406 366.24363281 125.44632812 366.48726563 126.19140625 366.73828125 C137.92754534 372.01056627 146.2392446 384.54484905 151 396 C153.58991721 402.99897025 154.51951019 409.36728662 154.4375 416.8125 C154.43065186 417.77446289 154.42380371 418.73642578 154.41674805 419.72753906 C154.24302865 427.45967869 153.08019831 433.85026816 150 441 C149.67257812 441.85207031 149.34515625 442.70414062 149.0078125 443.58203125 C143.76974999 455.72133671 132.60437324 466.14564333 120.66015625 471.49609375 C112.90836327 474.57413978 106.42252853 476.15767559 98.07421875 476.09765625 C96.95283257 476.09553383 96.95283257 476.09553383 95.80879211 476.09336853 C93.43498635 476.08779764 91.06127697 476.0752506 88.6875 476.0625 C87.07226699 476.05748123 85.4570325 476.05291899 83.84179688 476.04882812 C79.89449445 476.03783775 75.94726353 476.02059332 72 476 C72 473.69 72 471.38 72 469 C67.38 469 62.76 469 58 469 C58 471.31 58 473.62 58 476 C14.32140969 476.09164177 -29.35717041 476.16208248 -73.03583798 476.20426132 C-78.19755751 476.20926389 -83.35927685 476.2144412 -88.52099609 476.21972656 C-89.54856122 476.2207758 -90.57612635 476.22182505 -91.63482982 476.22290608 C-108.25272306 476.24029084 -124.87056071 476.27181786 -141.48842102 476.30861118 C-158.55168206 476.34607436 -175.61491407 476.36824721 -192.67821455 476.37635398 C-203.19929943 476.38183061 -213.72022715 476.39910102 -224.24126363 476.43166587 C-231.46504502 476.45288018 -238.68874568 476.45918445 -245.91255593 476.45400551 C-250.07454339 476.45145445 -254.23625704 476.45524508 -258.39819527 476.4768219 C-262.21968309 476.49648748 -266.0407166 476.49714266 -269.86222667 476.48359558 C-271.87650398 476.48114217 -273.89077708 476.4982139 -275.90497446 476.51632524 C-288.00645523 476.43819916 -300.4168562 474.14145084 -311.1875 468.375 C-312.16710693 467.8651355 -312.16710693 467.8651355 -313.16650391 467.3449707 C-333.05287226 456.62372934 -347.55932967 439.35354798 -355 418 C-357.54902282 409.17164153 -358.51933033 400.79461668 -358.4375 391.625 C-358.43137695 390.44687744 -358.42525391 389.26875488 -358.41894531 388.05493164 C-358.25873417 379.11206892 -357.15620205 371.42017918 -354 363 C-353.69964844 362.09894531 -353.39929688 361.19789063 -353.08984375 360.26953125 C-345.65556392 339.51147719 -328.62538509 323.27736163 -309 314 C-302.01838184 311.04893269 -295.06742826 309.02017721 -287.5 308.3125 C-284.11514075 307.82122216 -282.52031188 307.52243994 -280.08984375 305.08203125 C-278.95329679 303.39198861 -277.86686927 301.66750098 -276.82421875 299.91796875 C-269.18204905 287.69377011 -257.14115911 278.38557157 -245 271 C-245.21148682 270.1181604 -245.21148682 270.1181604 -245.42724609 269.21850586 C-246.08413968 266.45992937 -246.72955389 263.69877648 -247.375 260.9375 C-247.59671875 260.01388672 -247.8184375 259.09027344 -248.046875 258.13867188 C-251.07615686 245.08603094 -252.37174173 232.20282249 -252.3125 218.8125 C-252.30926727 217.80561127 -252.30926727 217.80561127 -252.30596924 216.77838135 C-252.07123846 170.9163296 -233.24251364 128.03754629 -200.80859375 95.7734375 C-170.97100234 67 -170.97100234 67 -159 67 C-157.375 69.5 -157.375 69.5 -156 72 C-155.39671875 71.79503906 -154.7934375 71.59007813 -154.171875 71.37890625 C-153.37265625 71.10949219 -152.5734375 70.84007813 -151.75 70.5625 C-150.96109375 70.29566406 -150.1721875 70.02882813 -149.359375 69.75390625 C-147.25178012 69.08045292 -145.15246027 68.50849405 -143 68 C-143.33 67.4225 -143.66 66.845 -144 66.25 C-145 64 -145 64 -145 60 C-119.39069652 50.60543337 -95.1311252 47.7646125 -68 48 C-68.24234375 47.49549316 -68.4846875 46.99098633 -68.734375 46.47119141 C-69.82692327 44.19102216 -70.91352376 41.90806831 -72 39.625 C-72.3815625 38.8309375 -72.763125 38.036875 -73.15625 37.21875 C-73.5171875 36.45820312 -73.878125 35.69765625 -74.25 34.9140625 C-74.58515625 34.2123291 -74.9203125 33.5105957 -75.265625 32.78759766 C-76 31 -76 31 -76 29 C-74.73929687 29.03665771 -73.47859375 29.07331543 -72.1796875 29.11108398 C-67.47610634 29.23834501 -62.77267539 29.31834718 -58.06787109 29.38452148 C-56.03668581 29.41959766 -54.00567567 29.46727355 -51.97509766 29.52807617 C-49.04545805 29.6135659 -46.11816474 29.65281564 -43.1875 29.68359375 C-42.28821777 29.71972275 -41.38893555 29.75585175 -40.46240234 29.79307556 C-34.18968974 29.79693065 -31.12551827 28.18912695 -26.67565918 23.78492737 C-26.12269165 23.19590134 -25.56972412 22.60687531 -25 22 C-24.03221088 21.05110233 -23.06354388 20.10309866 -22.09375 19.15625 C-21.2378125 18.2796875 -20.381875 17.403125 -19.5 16.5 C-15.6924741 12.63415169 -11.78581155 8.95390615 -7.65234375 5.4375 C-5.82680518 3.88914975 -5.82680518 3.88914975 -3.625 1.5625 C-2 0 -2 0 0 0 Z " fill="#010101" transform="translate(358,36)"/>
<path d="M0 0 C3 1 3 1 4.31518555 3.05029297 C4.7512915 3.93861816 5.18739746 4.82694336 5.63671875 5.7421875 C6.12825439 6.7213916 6.61979004 7.7005957 7.1262207 8.70947266 C7.64144287 9.75409668 8.15666504 10.7987207 8.6875 11.875 C12.50784309 19.46911792 16.22765545 26.43194829 21.76953125 32.9140625 C23 35 23 35 22.8203125 37.40234375 C21.9196491 40.25444453 21.01049017 43.10068414 20.0625 45.9375 C17.85366494 52.95757942 16.88618133 59.68900405 16 67 C20.95 67 25.9 67 31 67 C30.938125 65.906875 30.87625 64.81375 30.8125 63.6875 C30.88780487 49.40467643 38.3373414 36.53235016 48.1328125 26.6328125 C52.10611588 22.98430231 56.16680498 20.35765611 61 18 C61.76183594 17.61328125 62.52367187 17.2265625 63.30859375 16.828125 C75.25161045 11.11534752 88.13599062 10.27871596 100.89453125 13.90234375 C117.40601352 19.73847773 129.49696057 29.65328529 137.375 45.4375 C139.48331627 50.46502341 139.79810141 55.59921266 140 61 C139.18917969 61.21914063 138.37835938 61.43828125 137.54296875 61.6640625 C127.14027197 64.64318172 118.02267691 68.6278104 110 76 C111.65091778 80.29238623 114.73754566 82.8793915 118 86 C121.47323093 84.73314962 124.21852498 83.25163168 127.1875 81.0625 C136.07518022 75.08378091 145.40945062 73.79129599 156 75 C166.92179803 77.76734747 176.17108793 83.38124381 182.6484375 92.69921875 C186.86017635 99.86891293 189.80579267 106.61975624 189 115 C193.95 115 198.9 115 204 115 C203.67 113.14375 203.34 111.2875 203 109.375 C202.25466149 105.18247087 201.89766943 101.25951015 202 97 C202.61294922 96.79955078 203.22589844 96.59910156 203.85742188 96.39257812 C216.76585491 92.13482273 229.11516908 87.6237115 241 81 C241.61746094 80.66419922 242.23492187 80.32839844 242.87109375 79.98242188 C261.88611868 69.56566705 280.86897448 54.31008789 292.6875 36 C295.01733766 32.75060592 296.12859824 31.26680238 299.97265625 30.08984375 C312.67619435 29.49933364 324.32160983 35.71480227 333.89453125 43.55078125 C339.00991947 48.220384 342.11409747 53.75595634 345 60 C345.51433594 61.10214844 345.51433594 61.10214844 346.0390625 62.2265625 C349.33423445 70.94183036 348.26006626 80.83766555 348 90 C348.72445313 90.11085938 349.44890625 90.22171875 350.1953125 90.3359375 C360.16579516 92.69663674 367.9471537 100.4788267 373.25 108.875 C379.09273946 119.29507279 380.81985848 129.3633835 378.30859375 141.28125 C374.62598098 153.23818517 368.37274427 163.31269445 357.2578125 169.53515625 C346.81514073 174.49614852 337.95922758 175.27639223 326.5 175.125 C325.200625 175.11597656 323.90125 175.10695313 322.5625 175.09765625 C319.37480701 175.07421733 316.1875018 175.0414044 313 175 C313 177.64 313 180.28 313 183 C308.05 183 303.1 183 298 183 C298 180.36 298 177.72 298 175 C296.92305127 175.00227832 296.92305127 175.00227832 295.82434601 175.00460267 C253.23613355 175.09418851 210.64793137 175.16278336 168.0596435 175.20426132 C162.94169903 175.20926392 157.82375474 175.21444123 152.70581055 175.21972656 C151.68695495 175.2207758 150.66809936 175.22182505 149.61836935 175.22290608 C133.13883063 175.24029338 116.65934793 175.27182182 100.17984241 175.30861118 C83.2600978 175.34606727 66.34038246 175.36824571 49.42059809 175.37635398 C38.98703174 175.38183207 28.5536238 175.39911051 18.12010623 175.43166587 C10.95753739 175.45287141 3.79504999 175.45918642 -3.36754794 175.45400551 C-7.49498282 175.4514531 -11.62214165 175.45526078 -15.74952698 175.4768219 C-19.538273 175.49646806 -23.32656063 175.49715485 -27.11532896 175.48359558 C-29.11443927 175.48113863 -31.11354521 175.49822794 -33.11257511 175.51632524 C-52.35077338 175.39085982 -69.01064816 168.2856192 -83 155 C-97.76318431 139.69265986 -103.67121027 121.17364782 -103.34765625 100.265625 C-102.54607373 81.81916528 -92.36062842 65.68041575 -79.44140625 53.1328125 C-69.61994965 44.55278801 -55.41329228 36.82234541 -42.0234375 37.05078125 C-38.76003663 37.0629279 -36.12952715 36.94674771 -33 36 C-29.92001088 32.74300001 -28.10201329 28.93116909 -26 25 C-19.20014341 15.23986101 -10.21980348 6.1744646 0 0 Z " fill="#A0C4E3" transform="translate(118,322)"/>
<path d="M0 0 C0.86625 0.763125 1.7325 1.52625 2.625 2.3125 C4.07842119 3.54747111 5.53771242 4.77554019 7 6 C7.99644531 6.8353125 8.99289063 7.670625 10.01953125 8.53125 C32.54544083 27.02478437 59.53483518 37.93774778 89 36 C96.87433822 35.12844341 104.63349085 33.96724537 112 31 C113.32 31 114.64 31 116 31 C116.01981934 31.83136475 116.03963867 32.66272949 116.06005859 33.51928711 C116.13880532 36.64501012 116.22551574 39.77038913 116.31738281 42.89575195 C116.37386098 44.89713729 116.42139768 46.89876858 116.46875 48.90039062 C116.86061436 61.86456996 118.44705786 74.44705786 128 84 C133.80010557 88.06388976 139.8579581 87.23281107 146.625 87 C148.86675018 86.92340261 151.10901403 86.86032686 153.3515625 86.8125 C154.83390381 86.76029297 154.83390381 86.76029297 156.34619141 86.70703125 C159.46528669 87.0513656 160.78259324 87.81001244 163 90 C164.01503591 95.49546785 161.61374798 99.08659504 159 103.6875 C155.61488871 110.08469946 153.04015698 115.65359457 155 123 C158.33873727 130.38246687 165.47940388 134.63746594 172 139 C170.98412555 144.89605561 168.61244719 148.96681624 163.875 152.6875 C158.08586572 156.55524058 151.88424535 158 145 158 C145 162.95 145 167.9 145 173 C157.47081516 170.92153081 170.32840522 168.04635981 179 158 C181.50079657 154.42672743 183.79699374 150.76319002 186 147 C186.89138672 147.27263672 186.89138672 147.27263672 187.80078125 147.55078125 C190.5305618 148.37863072 193.26435473 149.19174117 196 150 C197.38445312 150.41185547 197.38445312 150.41185547 198.796875 150.83203125 C199.70953125 151.09371094 200.6221875 151.35539063 201.5625 151.625 C202.38878906 151.86476563 203.21507812 152.10453125 204.06640625 152.3515625 C212.3337334 154.17896104 220.66669894 154.21579116 229.09960938 154.24023438 C231.10038217 154.2498813 233.10101353 154.28105719 235.1015625 154.3125 C244.52907559 154.34961619 252.85905238 153.05829808 262 151 C263.99759053 150.65251877 265.99693185 150.31437095 268 150 C257.41334601 184.3536922 228.4527592 214.33327154 197.2109375 230.90234375 C166.24376629 246.66544301 166.24376629 246.66544301 158.84765625 244.31640625 C156.77831012 242.84205182 155.43913989 241.31286987 153.875 239.3125 C145.45453489 229.46483741 133.77299505 223.79739751 121 222 C120.79246094 220.93523437 120.58492187 219.87046875 120.37109375 218.7734375 C117.34461915 204.1640962 112.11354925 192.24853674 102 181 C101.47019531 180.37738281 100.94039062 179.75476563 100.39453125 179.11328125 C95.2115363 173.41838556 88.66002744 169.74269027 82 166 C80.87271484 165.36191406 80.87271484 165.36191406 79.72265625 164.7109375 C65.04622324 157.33046639 46.0892788 157.0974684 30.70703125 161.671875 C17.8955926 166.26185302 7.37689648 173.14223703 -2 183 C-6.62901743 181.45699419 -7.8431232 177.79510321 -10.1875 173.6875 C-10.6729126 172.84171387 -11.1583252 171.99592773 -11.65844727 171.12451172 C-16.70348537 162.09812333 -20.51061408 152.71653048 -24 143 C-24.40863281 141.89785156 -24.81726563 140.79570312 -25.23828125 139.66015625 C-38.35540953 101.11909593 -32.78680363 59.11470335 -15.28173828 23.04052734 C-11.19924732 14.97532404 -6.45657093 6.45657093 0 0 Z " fill="#FDED87" transform="translate(153,161)"/>
<path d="M0 0 C0.6568277 -0.00095673 1.3136554 -0.00191345 1.99038696 -0.00289917 C3.3702199 -0.00357489 4.75005612 -0.00176341 6.12988281 0.00244141 C8.21426733 0.007781 10.29843471 0.00248453 12.3828125 -0.00390625 C19.27741282 -0.00699329 26.01717565 0.17811988 32.8515625 1.1328125 C34.06798658 5.38105934 33.57548829 7.88011374 32.078125 12 C31.66981445 13.12575439 31.26150391 14.25150879 30.84082031 15.41137695 C30.39061523 16.59820068 29.94041016 17.78502441 29.4765625 19.0078125 C29.02120117 20.2249292 28.56583984 21.4420459 28.09667969 22.69604492 C25.03594383 30.64430719 21.51214132 37.73477223 16.890625 44.85546875 C12.3885895 52.09149899 9.23668732 59.82929714 7.6015625 68.1953125 C6.80630746 71.38101062 6.34026768 72.73837068 3.765625 74.81640625 C1.17058498 76.16183469 -1.38534048 77.18350285 -4.1484375 78.1328125 C-4.88578125 78.42542969 -5.623125 78.71804687 -6.3828125 79.01953125 C-25.18861478 86.05454853 -47.58190088 84.37820168 -65.9296875 76.640625 C-76.27533516 71.79424151 -85.4773506 66.68347806 -94.1484375 59.1328125 C-95.29308186 58.21466159 -96.43874054 57.29777203 -97.5859375 56.3828125 C-101.70382445 52.76710689 -101.70382445 52.76710689 -103.1484375 50.1328125 C-102.78336991 44.68035143 -97.68946437 41.57247614 -93.875 38.21484375 C-84.42525609 30.22579387 -73.93622888 23.17609612 -63.1484375 17.1328125 C-63.6434375 15.988125 -63.6434375 15.988125 -64.1484375 14.8203125 C-65.1484375 12.1328125 -65.1484375 12.1328125 -65.1484375 9.1328125 C-63.40549072 8.26434419 -61.65375087 7.41350623 -59.8984375 6.5703125 C-58.92390625 6.09464844 -57.949375 5.61898437 -56.9453125 5.12890625 C-54.04987453 4.09770977 -52.94877589 4.01934462 -50.1484375 5.1328125 C-49.6534375 7.6078125 -49.6534375 7.6078125 -49.1484375 10.1328125 C-48.62113037 9.96676514 -48.09382324 9.80071777 -47.55053711 9.62963867 C-32.06735039 4.78557711 -16.36836621 0.01532414 0 0 Z " fill="#E69BE6" transform="translate(267.1484375,99.8671875)"/>
<path d="M0 0 C5.61 0 11.22 0 17 0 C17.226875 2.0625 17.45375 4.125 17.6875 6.25 C19.79436852 20.74935211 26.30505899 31.72104066 37.44140625 41.1484375 C47.12506758 48.15615578 57.4628649 50.19418755 69 52 C69 57.28 69 62.56 69 68 C66.64875 68.350625 64.2975 68.70125 61.875 69.0625 C47.8079835 71.53361553 35.84099119 78.23456813 26.97265625 89.59765625 C20.57679488 98.99538067 17.66324583 108.72482095 17 120 C11.39 120 5.78 120 0 120 C-0.226875 117.9375 -0.45375 115.875 -0.6875 113.75 C-2.79436852 99.25064789 -9.30505899 88.27895934 -20.44140625 78.8515625 C-30.12506758 71.84384422 -40.4628649 69.80581245 -52 68 C-52 62.72 -52 57.44 -52 52 C-49.64875 51.649375 -47.2975 51.29875 -44.875 50.9375 C-30.8079835 48.46638447 -18.84099119 41.76543187 -9.97265625 30.40234375 C-3.57679488 21.00461933 -0.66324583 11.27517905 0 0 Z " fill="#000000" transform="translate(89,0)"/>
<path d="M0 0 C5.28 0 10.56 0 16 0 C16.5878125 2.908125 16.5878125 2.908125 17.1875 5.875 C20.0114423 17.86048782 24.6242756 25.4272408 34.97265625 32.3125 C39.67717803 34.94007685 44.4788149 35.82563025 49.77734375 36.60546875 C52 37 52 37 53 38 C53.07319621 40.69654854 53.09242537 43.36691458 53.0625 46.0625 C53.05798828 46.82111328 53.05347656 47.57972656 53.04882812 48.36132812 C53.0370068 50.24091871 53.01907078 52.12046899 53 54 C52.34515625 54.07476562 51.6903125 54.14953125 51.015625 54.2265625 C40.64798786 55.72020514 31.05042115 59.33869648 24.4609375 67.80859375 C19.46440941 75.30338589 17.2566278 82.08936653 16 91 C10.72 91 5.44 91 0 91 C-0.7734375 87.349375 -0.7734375 87.349375 -1.5625 83.625 C-3.90920478 73.73295267 -8.28029815 66.0850914 -16.83203125 60.24609375 C-23.30274759 56.52688922 -29.5779782 54.54977939 -37 54 C-37.02684679 51.35409986 -37.04676357 48.70846904 -37.0625 46.0625 C-37.07087891 45.30775391 -37.07925781 44.55300781 -37.08789062 43.77539062 C-37.09652441 41.85005687 -37.05224333 39.92464419 -37 38 C-35.38497336 36.38497336 -33.35167572 36.60581564 -31.125 36.3125 C-20.33301733 34.38086108 -12.28651536 28.9319048 -6 20 C-2.23839255 13.7007111 -1.09236357 7.19139349 0 0 Z " fill="#000000" transform="translate(459,162)"/>
<path d="M0 0 C5.61 0 11.22 0 17 0 C17.2475 1.485 17.495 2.97 17.75 4.5 C19.6529211 13.74089766 23.23347723 19.50054131 31 25 C35.84841908 27.51078845 40.71039659 28.79359922 46 30 C46 35.28 46 40.56 46 46 C44.55625 46.20625 43.1125 46.4125 41.625 46.625 C33.5877309 48.27571391 27.19703436 51.7221587 22.5 58.5625 C19.20251744 63.94008057 17.83958486 68.76308389 17 75 C15.24440058 76.75559942 12.96417558 76.13221919 10.62890625 76.13671875 C9.92636719 76.13285156 9.22382812 76.12898438 8.5 76.125 C7.79746094 76.12886719 7.09492187 76.13273437 6.37109375 76.13671875 C1.12661378 76.12661378 1.12661378 76.12661378 0 75 C-0.24752536 73.52379453 -0.47258378 72.04380429 -0.6875 70.5625 C-2.27245727 62.53434688 -5.74673567 56.18015818 -12.5625 51.5 C-18.10602639 48.100761 -22.42733685 46.93895188 -29 46 C-29 40.72 -29 35.44 -29 30 C-26.03 29.195625 -26.03 29.195625 -23 28.375 C-14.01272916 25.59089979 -7.6409646 21.30091229 -3 13 C-1.13424325 8.52218381 -0.70987526 4.96912685 0 0 Z " fill="#000000" transform="translate(29,131)"/>
<path d="M0 0 C5.61 0 11.22 0 17 0 C17.226875 1.464375 17.45375 2.92875 17.6875 4.4375 C19.54712709 13.45541765 23.30061003 19.26101511 30.80078125 24.62890625 C35.81305741 27.7537889 40.09602451 28.15657493 46 29 C46 34.61 46 40.22 46 46 C44.535625 46.226875 43.07125 46.45375 41.5625 46.6875 C33.62306113 48.30458515 27.25340976 51.67899059 22.21484375 58.11328125 C18.71546439 63.54800868 17.91711191 68.58021661 17 75 C11.39 75 5.78 75 0 75 C-0.226875 73.535625 -0.45375 72.07125 -0.6875 70.5625 C-2.54712709 61.54458235 -6.30061003 55.73898489 -13.80078125 50.37109375 C-18.81305741 47.2462111 -23.09602451 46.84342507 -29 46 C-29 40.39 -29 34.78 -29 29 C-27.535625 28.773125 -26.07125 28.54625 -24.5625 28.3125 C-15.54458235 26.45287291 -9.73898489 22.69938997 -4.37109375 15.19921875 C-1.2462111 10.18694259 -0.84342507 5.90397549 0 0 Z " fill="#000000" transform="translate(436,0)"/>
<path d="M0 0 C0.66 0.33 1.32 0.66 2 1 C2.55224609 3.05029297 2.55224609 3.05029297 3.0234375 5.7421875 C5.50303572 18.53295318 5.50303572 18.53295318 13.875 27.90234375 C18.14669547 30.33793939 22.57505455 32.35909638 27.16162109 34.12817383 C29 35 29 35 30 37 C29.53625977 37.31751221 29.07251953 37.63502441 28.59472656 37.9621582 C26.47919525 39.41136587 24.36459062 40.8619201 22.25 42.3125 C21.52039063 42.81201172 20.79078125 43.31152344 20.0390625 43.82617188 C19.33007812 44.31279297 18.62109375 44.79941406 17.890625 45.30078125 C17.24125977 45.74591064 16.59189453 46.19104004 15.92285156 46.6496582 C15.28831055 47.095271 14.65376953 47.54088379 14 48 C13.29037109 48.43634766 12.58074219 48.87269531 11.84960938 49.32226562 C9.37588116 51.56612258 9.13594319 53.28629826 8.515625 56.54296875 C8.30292969 57.61611328 8.09023438 58.68925781 7.87109375 59.79492188 C7.66613281 60.91447266 7.46117187 62.03402344 7.25 63.1875 C6.91935547 64.88422852 6.91935547 64.88422852 6.58203125 66.61523438 C6.04003597 69.40768831 5.51336411 72.20216561 5 75 C-0.73834742 71.89646309 -5.29469435 68.29403199 -10.15625 63.92578125 C-15.74510694 60.14101961 -21.20875703 60.9378206 -27.625 61.9375 C-31.80236781 62.57723888 -35.77058789 63.13773947 -40 63 C-38.29064299 56.30501839 -36.30556805 49.9011978 -33.671875 43.5078125 C-32.09031486 37.60454734 -35.51361776 32.50271098 -38.0625 27.3125 C-38.80684867 25.78944811 -39.54790367 24.26478072 -40.28515625 22.73828125 C-40.61394775 22.06837158 -40.94273926 21.39846191 -41.28149414 20.70825195 C-42 19 -42 19 -42 17 C-40.94256592 17.02525757 -40.94256592 17.02525757 -39.86376953 17.05102539 C-24.30426728 18.05781346 -24.30426728 18.05781346 -10.875 11.875 C-9.5353918 10.28928954 -8.2399266 8.66481524 -7 7 C-5.64412823 5.62668135 -4.27060971 4.27041631 -2.875 2.9375 C-1.9139752 1.9609748 -0.95447923 0.98292397 0 0 Z " fill="#F58DA1" transform="translate(349,64)"/>
<path d="M0 0 C1.17825358 0.90172468 2.34231577 1.82201502 3.5 2.75 C4.47453125 3.51570312 4.47453125 3.51570312 5.46875 4.296875 C7 6 7 6 7 10 C5.7101415 12.60311579 4.36854321 15.10224494 2.9375 17.625 C-16.66854151 53.78244862 -21.73634571 97.27660012 -10.33251953 136.88232422 C-7.14289422 147.41312641 -3.37739436 157.54585094 1.3359375 167.48828125 C2.66810449 170.2995914 3.88813931 173.09680819 5 176 C1.535 179.465 1.535 179.465 -2 183 C-6.62901743 181.45699419 -7.8431232 177.79510321 -10.1875 173.6875 C-10.6729126 172.84171387 -11.1583252 171.99592773 -11.65844727 171.12451172 C-16.70348537 162.09812333 -20.51061408 152.71653048 -24 143 C-24.40863281 141.89785156 -24.81726563 140.79570312 -25.23828125 139.66015625 C-38.35540953 101.11909593 -32.78680363 59.11470335 -15.28173828 23.04052734 C-11.19924732 14.97532404 -6.45657093 6.45657093 0 0 Z " fill="#FBDD01" transform="translate(153,161)"/>
<path d="M0 0 C0.66 0.33 1.32 0.66 2 1 C1.319375 1.598125 0.63875 2.19625 -0.0625 2.8125 C-14.71905272 17.67548304 -21.31217921 40.98134745 -21.4375 61.3125 C-21.34102884 69.24269932 -20.71659987 76.49061556 -18 84 C-17.60941406 85.17433594 -17.21882813 86.34867187 -16.81640625 87.55859375 C-10.71520456 104.93614358 0.91386742 118.89464194 17 128 C12.17165983 129.82632252 8.69276237 127.55518287 4.22265625 125.578125 C-15.15905001 116.08696218 -27.84807193 101.14661771 -35 81 C-40.756931 63.89607458 -36.9634015 45.43392651 -29.625 29.5625 C-23.04918512 17.35027237 -12.53002969 6.12579229 0 0 Z " fill="#4993C7" transform="translate(52,366)"/>
<path d="M0 0 C2.48798229 3.08965121 4.91978305 6.21135992 7.3125 9.375 C13.07490798 16.73333915 18.74226534 21.75689092 26.83984375 26.51953125 C27.55269531 27.00808594 28.26554687 27.49664062 29 28 C29 28.66 29 29.32 29 30 C27.41427057 31.06117255 25.77825208 32.0474337 24.125 33 C13.86328206 39.38389651 6.97825933 47.58753508 1 58 C-1.47065965 54.93315944 -3.88084335 51.83295797 -6.25 48.6875 C-12.04958549 41.27486632 -17.76277374 35.71826356 -26.09375 31.2265625 C-26.7228125 30.82179688 -27.351875 30.41703125 -28 30 C-28 29.34 -28 28.68 -28 28 C-26.41427057 26.93882745 -24.77825208 25.9525663 -23.125 25 C-12.86328206 18.61610349 -5.97825933 10.41246492 0 0 Z " fill="#E399E3" transform="translate(97,31)"/>
<path d="M0 0 C8.25 0 16.5 0 25 0 C25 0.33 25 0.66 25 1 C22.36 1 19.72 1 17 1 C17.4168103 1.81621826 17.4168103 1.81621826 17.84204102 2.64892578 C19.09883128 5.13292856 20.33072477 7.6285046 21.5625 10.125 C22.21895508 11.40890625 22.21895508 11.40890625 22.88867188 12.71875 C25.26038057 17.57421661 26.74842964 20.64190917 25 26 C24.78142334 26.70753418 24.56284668 27.41506836 24.33764648 28.14404297 C23.57560629 30.56873893 22.76360688 32.9714315 21.9375 35.375 C21.65583984 36.20644531 21.37417969 37.03789063 21.08398438 37.89453125 C20.39342899 39.93108441 19.69727821 41.96573881 19 44 C17.10507994 44.33848652 15.20901534 44.67056911 13.3125 45 C12.25675781 45.185625 11.20101563 45.37125 10.11328125 45.5625 C7.35095938 45.95068074 4.78257957 46.08259976 2 46 C3.70935701 39.30501839 5.69443195 32.9011978 8.328125 26.5078125 C9.90968514 20.60454734 6.48638224 15.50271098 3.9375 10.3125 C3.19315133 8.78944811 2.45209633 7.26478072 1.71484375 5.73828125 C1.22165649 4.73341675 1.22165649 4.73341675 0.71850586 3.70825195 C0 2 0 2 0 0 Z " fill="#EC5374" transform="translate(307,81)"/>
<path d="M0 0 C7.425 0.99 7.425 0.99 15 2 C13.56955515 10.58266913 10.64213239 18.34209699 3.75 24 C-5.47932251 30.29132151 -12.87540892 31.47338685 -24 31 C-24 26.05 -24 21.1 -24 16 C-22.35 15.938125 -20.7 15.87625 -19 15.8125 C-12.27832092 15.20616297 -7.79263227 12.88572001 -3.125 8.0625 C-1.61906811 5.44608455 -1.61906811 5.44608455 0 0 Z " fill="#060503" transform="translate(243,231)"/>
<path d="M0 0 C0.66 0 1.32 0 2 0 C3.19140625 1.46875 3.19140625 1.46875 4.5625 3.5 C8.10023961 8.40915966 12.41763604 12.09582591 17 16 C17.66 16.66 18.32 17.32 19 18 C18.43152344 18.4125 17.86304688 18.825 17.27734375 19.25 C11.48090047 23.58523637 5.30537071 28.38925857 2 35 C1.34 35 0.68 35 0 35 C-1.2265625 33.49609375 -1.2265625 33.49609375 -2.625 31.4375 C-5.4189299 27.56581336 -8.50420931 24.58526209 -12.16796875 21.54296875 C-13.8756777 20.10470642 -15.44640471 18.60169421 -17 17 C-16.43152344 16.5875 -15.86304688 16.175 -15.27734375 15.75 C-9.48090047 11.41476363 -3.30537071 6.61074143 0 0 Z " fill="#E298E2" transform="translate(466,190)"/>
<path d="M0 0 C0.495 2.475 0.495 2.475 1 5 C2.98 4.67 4.96 4.34 7 4 C7 4.66 7 5.32 7 6 C5.2675 6.8971875 5.2675 6.8971875 3.5 7.8125 C-7.04156312 13.69112841 -17.06891513 20.6726248 -25.84375 28.96484375 C-27.83364449 30.84298692 -29.88872633 32.57405045 -32 34.3125 C-37.32960149 38.92129473 -41.60850123 44.51962551 -46 50 C-48.70748514 49.44504963 -49.80626269 49.19373731 -51.8125 47.1875 C-53 45 -53 45 -52.88671875 43.17578125 C-47.56202292 30.11033818 -24.69520606 18.55161421 -13 12 C-13.495 10.8553125 -13.495 10.8553125 -14 9.6875 C-15 7 -15 7 -15 4 C-13.25705322 3.13153169 -11.50531337 2.28069373 -9.75 1.4375 C-8.77546875 0.96183594 -7.8009375 0.48617187 -6.796875 -0.00390625 C-3.90143703 -1.03510273 -2.80033839 -1.11346788 0 0 Z " fill="#CE68D6" transform="translate(217,105)"/>
<path d="M0 0 C0.99 1.0209375 0.99 1.0209375 2 2.0625 C5.49468234 5.56725347 9.25130779 8.77221788 13 12 C12.319375 12.66 11.63875 13.32 10.9375 14 C7.43274653 17.49468234 4.22778212 21.25130779 1 25 C0.34 24.319375 -0.32 23.63875 -1 22.9375 C-4.49468234 19.43274653 -8.25130779 16.22778212 -12 13 C-11.319375 12.34 -10.63875 11.68 -9.9375 11 C-6.43274653 7.50531766 -3.22778212 3.74869221 0 0 Z " fill="#F7E683" transform="translate(37,156)"/>
<path d="M0 0 C0.99 1.0209375 0.99 1.0209375 2 2.0625 C5.49468234 5.56725347 9.25130779 8.77221788 13 12 C12.319375 12.66 11.63875 13.32 10.9375 14 C7.43274653 17.49468234 4.22778212 21.25130779 1 25 C0.34 24.319375 -0.32 23.63875 -1 22.9375 C-4.49468234 19.43274653 -8.25130779 16.22778212 -12 13 C-11.319375 12.34 -10.63875 11.68 -9.9375 11 C-6.43274653 7.50531766 -3.22778212 3.74869221 0 0 Z " fill="#F8E784" transform="translate(444,25)"/>
<path d="M0 0 C4.95 0 9.9 0 15 0 C15 4.95 15 9.9 15 15 C10.05 15 5.1 15 0 15 C0 10.05 0 5.1 0 0 Z " fill="#FEFBFE" transform="translate(244,147)"/>
<path d="M0 0 C4.95 0 9.9 0 15 0 C15 4.95 15 9.9 15 15 C10.05 15 5.1 15 0 15 C0 10.05 0 5.1 0 0 Z " fill="#FEFBFE" transform="translate(259,117)"/>
</svg>
