<?xml version="1.0" encoding="UTF-8"?>
<svg version="1.1" viewBox="0 0 1536 2048" width="1280" height="1280" xmlns="http://www.w3.org/2000/svg">
<path transform="translate(797,611)" d="m0 0h10l39 5 27 6 26 9 29 14 16 9 18 13 10 8 10 9 12 11 13 14 12 16 5 4h17l11 4 9 7 8 10 4 10 5 24 9 53 3 16 41 3 3 1-1 8-7 37-13 73-7 36v3l26 10 14 8 13 10 9 8 10 13 10 16 8 18 4 14 2 12v31l-4 20-6 18-10 19-8 10-9 10-12 9-15 9-14 7-5 2 2 6 8 16 5 16 2 17v12l-1 17-1 6 6-1h14l22 6 10 9 5 5 13 12 4 2h38l9-1 5-5 10-13 8-8 12-7 2-6 2-14 5-14 8-16 8-11 11-12 15-12 13-8 15-6 9-2 14-1h11l26 2 21 5 16 8 12 7 13 12 9 10 5 8-1 5-6 5-37 25-7 4h-5l-13-13-12-6-3-1h-12l-23 4-10 5-10 10-2 4 17 9 13 10 9 11 6 10 5 15 2 11v18l-2 14-7 20-2 6h20l12-2 14-8 8-9 5-10 5-18 4-4h54l9 2v35l-7 15-9 16-8 10-5 5-13 12-14 10-19 9-19 5-6 1h-33l-12-2-13-5-16-8-11-8-7-6-5-2-26 4-27 3-48 6h-45l-9 6-14 7-13 4-11 1h-29l-23-11-10-7-12-11-14-14-21-9-11-5-1 9-16 67-9 38-1 6-1 75-1 21-3 19-5 24-2 22-2 38-2 39-2 47-1 11v10l5 8 30 32 25 25 7 8 12 13 11 12 2 5-2 44h-286v-54l2-107 1-26v-30l3-8v-24l-1-12v-27l-43 1v28l-2 26 2 9 2 5v52l1 4 2 107 1 35v21h-285l-1-4-2-24v-19l11-12 10-10 8-10 10-11 5-5 6-5 4-5 17-17 7-8 10-10 3-6-1-20-1-5-1-41-1-15-1-31-1-8v-13l1-4-4-5-5-3-6-10-7-17-5-21-3-21-1-20-1-73-6-29-20-85-3-6-5 2-2 6-3 22-3 12-7 16-9 12-7 8-14 11-15 6-19 6h-2l-2 6-12 22-11 26-1 6 5 9 5 10 4 13 3 9 9 7 8 6 5 4 11 14 7 10 7 15 5 15 2 14v20l-2 17-4 14-6 15-12 20-9 10-8 8-13 9-16 8-15 5-13 3-4-1-3-7-4-28-3-26 1-5 12-5 8-4 10-8 6-9 3-10 1-7v-12l-4-17-2-3-6 2-16 9-12 5-17 4-7 1h-21l-13-4-14-7-11-9-7-8-2-4-6-1-6 7-5 12-1 5v9l4 13 7 12 9 10 7 5 2 3-1 8-12 28-8 17-6 8-5-1-14-7-12-9-11-11-10-14-12-23-5-15-3-15v-17l5-25 7-20 7-14 7-9 9-10 11-10 15-9 10-4 4-5 4-13 6-26 14-39 17-39 8-16 10-19 2-7v-18l2-16 4-13 7-13 11-13 14-11 14-9 12-5 9-2 12-1 14-11 5-4-1-6-6-15-5-19-1-6-1-22 2-15 4-14 5-12 9-14 9-11 10-11 11-7 13-7h3l-3-3-15-5-15-8-10-8-10-9-13-13-9-12-9-17-6-15-4-18v-34l3-16 5-15 8-16 10-14 11-12 14-14 16-10 15-6 13-4 16-4 2-1 1-3v-14l-2-58-1-53v-32h20l11 1h10l3-5 15-44 12-36 7-14 7-6 12-5 4-1 22-2 9-6 6-5 7-8 15-12 15-10 19-11 16-8 11-5 24-8 21-5 24-4 13-1 24-1z" fill="#364D62"/>
<path transform="translate(797,611)" d="m0 0h10l39 5 27 6 26 9 29 14 16 9 18 13 10 8 10 9 12 11 13 14 12 16 5 4h17l11 4 9 7 8 10 4 10 5 24 9 53 3 16 41 3 3 1-1 8-7 37-13 73-7 36v3l26 10 14 8 13 10 9 8 10 13 10 16 8 18 4 14 2 12v31l-4 20-6 18-10 19-8 10-9 10-12 9-15 9-14 7-5 2v4l-29 6-6 1-24 1 1-11 8-44 10-54 4-24 1-9-10 3-24 12-19 12-13 9-13 11-11 9-15 15-2 1-3 5-3 2-2 4h-2l-1 4-3 1v3h-2l-1 4-8 14h-2l-1 5h-2l-3 9-3 7h-2l-1 6-3 7-6 19-7 30-3 16-2 5h-18l-49-3-72-6-80-5-84-6-6-2v-30l-3-25-5-25-8-24-10-21-6-9v-3l-3-1v-3l-3-1-1-3-18-18-11-9-13-10-18-11-21-11-12-5-2-1 1 2 3 63 1 26v24l-1 1h-36l4-3h3l-3-3-15-5-15-8-10-8-10-9-13-13-9-12-9-17-6-15-4-18v-34l3-16 5-15 8-16 10-14 11-12 14-14 16-10 15-6 13-4 16-4 2-1 1-3v-14l-2-58-1-53v-32h20l11 1h10l3-5 15-44 12-36 7-14 7-6 12-5 4-1 22-2 9-6 6-5 7-8 15-12 15-10 19-11 16-8 11-5 24-8 21-5 24-4 13-1 24-1z" fill="#5493C3"/>
<path transform="translate(736,1361)" d="m0 0h39l17 2 17 4 18 8 16 10 10 8 10 9 12 12 11 14 9 14 8 16 6 16 4 17 2 23-1 16-5 26-7 21-7 16-1 2h101l2 1v95l-3 19-5 24-2 22-2 38-2 39-2 47-1 11v10l5 8 30 32 25 25 7 8 12 13 11 12 2 5-2 44h-286v-54l2-107 1-26v-30l3-8v-24l-1-12v-27l-43 1v28l-2 26 2 9 2 5v52l1 4 2 107 1 35v21h-285l-1-4-2-24v-19l11-12 10-10 8-10 10-11 5-5 6-5 4-5 17-17 7-8 10-10 3-6-1-20-1-5-1-41-1-15-1-31-1-8v-13l1-4-4-5-5-3-6-10-7-17-5-21-3-21-1-20v-74l1 3 6-1h97l-1-6-9-23-6-21-3-21v-21l3-21 6-21 8-18 14-21 8-10 12-13 11-10 14-9 17-9 24-8z" fill="#5393C3"/>
<path transform="translate(1083,1127)" d="m0 0 2 1-3 22-10 53-10 56-2 11 6-1 18-1 31-6h5l8 15 5 15 2 9 1 12v12l-1 17-1 6 6-1h14l22 6 10 9 5 5 13 12 4 2h38l9-1 5-5 10-13 8-8 12-7 2-6 2-14 5-14 8-16 8-11 11-12 15-12 13-8 15-6 9-2 14-1h11l26 2 21 5 16 8 12 7 13 12 9 10 5 8-1 5-6 5-37 25-7 4h-5l-13-13-12-6-3-1h-12l-23 4-10 5-10 10-2 4 17 9 13 10 9 11 6 10 5 15 2 11v18l-2 14-7 20-2 6h20l12-2 14-8 8-9 5-10 5-18 4-4h54l9 2v35l-7 15-9 16-8 10-5 5-13 12-14 10-19 9-19 5-6 1h-33l-12-2-13-5-16-8-11-8-7-6-5-2-26 4-27 3-48 6h-45l-9 6-14 7-13 4-11 1h-29l-23-11-10-7-12-11-15-15-1-9-6-14-2-7-2-28-2-6-3-2v-7l8-34 5-23 1-7v-25l-3-9-5-9-3-1-8 9-14 11-16 9-18 7-10 2-16 1-19-1-22-3-3-1 1-10 7-34 9-30 3-5 1-4h2l2-7 4-9h2l1-5h2l2-6 6-9 1-3h2v-3l3-2 1-3 2-1 2-4 4-3 2-4 8-7 10-10 11-9 13-11 12-8 16-10 23-12z" fill="#364D62"/>
<path transform="translate(736,1361)" d="m0 0h39l17 2 17 4 18 8 16 10 10 8 10 9 12 12 11 14 9 14 8 16 6 16 4 17 2 23-1 16-5 26-7 21-7 16-1 2h101l2 1v78l-1 1h-107l-365-1-2 1-1 7h-1l-1-14v-74l1 3 6-1h97l-1-6-9-23-6-21-3-21v-21l3-21 6-21 8-18 14-21 8-10 12-13 11-10 14-9 17-9 24-8z" fill="#364D62"/>
<path transform="translate(472,1306)" d="m0 0 5 1 6 2 26 3 98 7 1-3 1 3 16 2 167 11 72 6 53 3 1-4v4l25 3 20 1 15-1 16-4 18-8 14-9 13-11 5-6 4 2 6 10 2 8v25l-3 17-6 25-5 22v7l4 3 1 5 2 28 6 17 2 4v9l-9-3-22-10-1 9-16 67-9 38-1 6-1 75h-1v-74h-98l-5-1 2-6 8-20 5-17 4-22 1-19-2-20-4-17-7-19-11-20-9-12-11-13-14-14-13-10-13-8-14-7-11-4-19-4-11-1h-39l-19 4-20 7-21 11-12 9-10 9-13 14-12 17-9 15-8 20-4 15-3 21v21l3 21 6 21 10 25-1 5h-103l-2-2-6-29-20-85-3-6-5 2-2 1-4-11-5-13-9-16-8-12 1-4h15l5-1-4-19-7-29-3-18v-16l2-13 6-19z" fill="#3E6F94"/>
<path transform="translate(797,611)" d="m0 0h10l39 5 27 6 26 9 29 14 16 9 18 13 10 8 10 9 12 11 13 14 12 16 2 3-16 7-9 7-7 9-4 10v15l12 64v7l-18-1-105-9-60-4-128-10-31-3-25-1-22-2-5-2 3-11 13-35 6-21 1-5v-10l-4-10-7-11-7-6-16-8-3-2 9-6 6-5 7-8 15-12 15-10 19-11 16-8 11-5 24-8 21-5 24-4 13-1 24-1z" fill="#C0D5E6"/>
<path transform="translate(294,1496)" d="m0 0 4 5 4 8 5 16 8 13 11 12 15 11 16 8 18 4 25 2 3 1-2 6-12 22-11 26-1 6 5 9 5 10 4 13 3 9 9 7 8 6 5 4 11 14 7 10 7 15 5 15 2 14v20l-2 17-4 14-6 15-12 20-9 10-8 8-13 9-16 8-15 5-13 3-4-1-3-7-4-28-3-26 1-5 12-5 8-4 10-8 6-9 3-10 1-7v-12l-4-17-2-3-6 2-16 9-12 5-17 4-7 1h-21l-13-4-14-7-11-9-7-8-2-4-6-1-6 7-5 12-1 5v9l4 13 7 12 9 10 7 5 2 3-1 8-12 28-8 17-6 8-5-1-14-7-12-9-11-11-10-14-12-23-5-15-3-15v-17l5-25 7-20 7-14 7-9 9-10 11-10 15-9 10-4 4-5 4-13 6-26 14-39 17-39 8-16 10-19z" fill="#4E8BB7"/>
<path transform="translate(1392,1245)" d="m0 0h11l26 2 21 5 16 8 12 7 13 12 9 10 5 8-1 5-6 5-37 25-7 4h-5l-13-13-12-6-3-1h-12l-23 4-10 5-10 10-2 4 17 9 13 10 9 11 6 10 5 15 2 11v18l-2 14-7 20-2 6h20l12-2 14-8 8-9 5-10 5-18 4-4h54l9 2v35l-7 15-9 16-8 10-5 5-13 12-14 10-19 9-19 5-6 1h-33l-12-2-13-5-16-8-11-8-7-6-5-2-26 4-27 3-48 6h-34l-11-1 6-7 11-15 8-14 5-14 2-16-1-16-4-15-6-15-7-15-1-5h40l9-1 5-5 10-13 8-8 12-7 2-6 2-14 5-14 8-16 8-11 11-12 15-12 13-8 15-6 9-2z" fill="#5494C3"/>
<path transform="translate(824,1788)" d="m0 0h19l12 3 10 5 10 9 6 9 5 12 1 7 1 71h74l18 1 8 7 11 12 16 17 25 25 7 8 12 13 11 12 2 5-2 44h-286v-54l2-107 1-26v-30l6-16 9-14 8-8 9-4z" fill="#364D62"/>
<path transform="translate(682,1788)" d="m0 0h24l12 3 8 5 8 8 7 11 7 14v52l1 4 2 107 1 35v21h-285l-1-4-2-24v-19l11-12 10-10 8-10 10-11 5-5 6-5 4-5 16-16 8-7 3-1 2-4 9-10 3-1 89-1v-67l3-17 7-12 9-10 8-6z" fill="#364D62"/>
<path transform="translate(474,1307)" d="m0 0 4 4 16 4 7 2 18 3 6 3 4 5 3 9h2l1 9v2l3 3 1 7 4 4v2l3 1 8 15 3 5 9 11 8 7 6 8 3 3 3 1v2h2l4 5 2 6 1 10 5 11 3 12 1 36-1 5v25l4 24 4 20v18l-3 3-7 2h-80l-3-1-11-48-10-44-6-23-2-3-5 2-2 1-4-11-5-13-9-16-8-12 1-4h15l5-1-4-19-7-29-3-18v-16l1-9h2l1-5 4-9 1-8z" fill="#477EA5"/>
<path transform="translate(1206,1381)" d="m0 0 44 1 3 1 1 6-3 27 1 11 4 8 9 8 8 3 21-2 14-1 17-1 9-1 16 4h15l9-1 1 2 11-3 4-6 9-2 1 3 5 1 4 6v7l-4 11h20l12-2 14-8 8-9 5-10 5-18 4-4h54l9 2v35l-7 15-9 16-8 10-5 5-13 12-14 10-19 9-19 5-6 1h-33l-12-2-13-5-16-8-11-8-7-6-5-2-26 4-27 3-48 6h-34l-11-1 6-7 11-15 8-14 5-14 2-16-1-16-4-15-6-15-7-15z" fill="#477EA6"/>
<path transform="translate(524,1673)" d="m0 0 375 1h98v17l-3 19-5 24-2 22-2 38-2 39-2 47-1 11v10l2 5-20-1h-74l-1-1-1-71-2-10-8-16-8-8-10-6-9-3-6-1h-19l-10 3-6 4-8 9-6 10-2 6h-1l-2-34v-27l39-1h143l-1-6v-18l-1-19 2-19 2-6-5-4-14-4-16-2-22-1-28-1h-233l-73 1-14 1-18 4h-27l2 7-4 2-1-12 1-7z" fill="#477EA6"/>
<path transform="translate(791,735)" d="m0 0h21l17 2 19 5 19 8 14 8 14 10 12 11 7 7 11 15 9 15 10 19 1 6-1 1-22-1-48-4-60-4-128-10-31-3-4-2 4-7 9-12 13-15 8-8 17-13 22-12 15-6 20-6 19-3z" fill="#FDFDFD"/>
<path transform="translate(760,1425)" d="m0 0 5 1 25 17 18 13 16 12 11 9 6 7-1 10-16 54-10 29-1 2h-2l-2 5-14 2h-72l-10-3-6-9-8-21-11-31-8-25-1-11 4-7 12-10 36-26 18-12 8-5z" fill="#FC6796"/>
<path transform="translate(1098,1067)" d="m0 0 6 2 13 9 13 12 10 9 8 7 4 5 8 6 7 1 9-6h2v2l14-1 5 1 4 6 1 3v31l-4 20-6 18-10 19-8 10-9 10-12 9-15 9-14 7-5 2v4l-29 6-6 1-24 1 1-11 8-44 10-54 4-24 1-9h-5l2-2 4-2 4-16 8-40z" fill="#477EA6"/>
<path transform="translate(560,1759)" d="m0 0h206v1l-20 1v28l-2 26v5l-4-5-8-12-8-8-9-4-9-2h-24l-12 6-9 9-8 13-3 11-1 8-1 67-2 1-87 1-4 2-7 8-5 5-7 6 2-4 14-14 3-6-1-20-1-5-1-41-1-15-1-31-1-8v-13l1-4-1-5z" fill="#477EA5"/>
<path transform="translate(707,1017)" d="m0 0h22l38 3 8 1v3l2-2 20 1 23 2 26 1 23 3 5 2v18l-3 17-4 11-6 11-11 12-9 8-18 11-18 7-12 2-17-1-18-5-20-10-12-11-7-9-7-11-6-13-4-17-1-7v-20l3-5z" fill="#FEC90F"/>
<path transform="translate(666,1016)" d="m0 0 36 1v2l2 1-2 4v20l3 17 5 14 7 13 7 9 9 10 9 6 19 9 15 4 17 1 15-3 19-8 15-10 10-9 8-9 8-15 4-16 1-8 1-1 1-16h2v5h2l1 2 5-3 10-4 2-1h20v8l-5 29-6 21-8 16-8 11-11 12-5 5-10 9-15 9-19 9-21 6-19 2h-17l-16-3-18-6-14-7-14-10-10-9-9-10-11-17-8-17-5-16-2-13-1-12v-31z" fill="#477DA5"/>
<path transform="translate(1392,1245)" d="m0 0h11l26 2 21 5 16 8 12 7 13 12 9 10 5 8-1 5-6 5-37 25-7 4h-5l-13-13-12-6-3-1h-12l-23 4-10 5-14 14-23-3-21 1-16 3-10 2 2-15 5-14 8-16 8-11 11-12 15-12 13-8 15-6 9-2z" fill="#A8B9C4"/>
<path transform="translate(394,1678)" d="m0 0 11 7 11 9 11 14 7 10 7 15 5 15 2 14v20l-2 17-4 14-6 15-12 20-9 10-8 8-13 9-16 8-15 5-13 3-4-1-3-7-4-28-3-26 1-5 12-5 8-4 10-8 6-9 3-10 1-7v-12l-4-17-4-5 6-9 8-13 6-16 3-12z" fill="#A8B9C4"/>
<path transform="translate(229,1660)" d="m0 0 1 3-1 2h-2l1 2-1 14v16l3 14 6 17 1 8 2 1-6 7-5 12-1 5v9l4 13 7 12 9 10 7 5 2 3-1 8-12 28-8 17-6 8-5-1-14-7-12-9-11-11-10-14-12-23-5-15-3-15v-17l5-25 7-20 7-14 7-9 9-10 11-10 15-9 10-4z" fill="#A8B9C4"/>
<path transform="translate(1473,1412)" d="m0 0h54l9 2v35l-7 15-9 16-8 10-5 5-13 12-14 10-19 9-19 5-6 1h-33l-12-2-13-5-16-8-11-8-5-6 18-10 11-6 14-9 10-9 8-6h18l12-2 14-8 8-9 5-10 5-18z" fill="#A8B9C4"/>
<path transform="translate(1019,728)" d="m0 0 8 1h14l11 4 9 7 8 10 4 10 5 24 9 53 2 10v4l-3 1-31-1-45-3-12-2-3-11-11-59v-15l4-10 7-9 7-6 14-7z" fill="#477EA6"/>
<path transform="translate(580,697)" d="m0 0h12l16 8 9 8 8 14 2 6v10l-6 23-13 36-5 12-5 2h-12l-49-3-16-2-3-4 3-24 3-7 4-18 2-6 2-12 7-21 6-10 8-6 10-4 4-1z" fill="#477EA6"/>
<path transform="translate(294,1496)" d="m0 0 4 5 4 8 5 16 8 13 11 12 15 11 16 8 18 4 25 2 3 1-2 6-12 22-11 26-2 5-6-2-14-11-15-9-10-4-11-2h-20l-13 2-17 5-17 7-10 6-2-3 2-10 15-41 16-36 8-16 9-17z" fill="#477EA6"/>
<path transform="translate(466,1021)" d="m0 0h3l1 7 2 41 1 25v13l15 6-3 1-9-4-2-1 1 2 3 63 1 26v24l-1 1h-36l2-2h33l1-3h-2l-4-24-1-10-4-6-10-6-11-6-20-14-8-7-9-7-5-8 1-15 1-6 1-20 3-18 8-16 8-10 8-8 13-9z" fill="#477EA6"/>
<path transform="translate(925,1444)" d="m0 0 9 1 7 3 11-1 2 1 2 4 1 3h2l2 5 6 7 3 8v6h2l1 4 1 13-1 5-1 15-2 5v10l-2 3v9l-2 7v6l-3 3v8l-3 11-7 6-7 4-18 3-20 2-12-1 1-7 9-24 5-21 2-12 1-19-2-20-4-17-3-9 1-8 3-2 2-8 4 1 8-2 3 1z" fill="#467DA5"/>
<path transform="translate(376,1054)" d="m0 0 1 4 7-1 5 4 2 4 7 2 4 9 3 2 5-5-1 10-1 8-1 20-2 14v7l6 9 11 8 9 8 11 7 12 8 12 6 5 6 2 9 2 16 1 4v7h2l-1 4-31-1v-1l7-1 4-4v-5l-2-3-11-3-1-1h-13l-4-6-3-1-3-3-3-1-4 1v-2l-5-1-10-7-11-9-12-13-8-16-4-10-6-21v-29l2-5 1-7 5-8 4-6 4-4z" fill="#4D8AB6"/>
<path transform="translate(294,1608)" d="m0 0h9l12 3 15 6 7 6 2 3 2 9 6 9v8h-2l-1 3-2-1v-5l-2-1-1 8 1 4-2 4h-3v7h-7l-10-1-14 2-12 6-13 10-20 11-6 1h-3l-6 8-2 7v19 3l-5-1-5-16-5-17-1-6v-16l1-16h2l2-7 4-10 5-24h2l2 2 5-4 18-8 13-4z" fill="#5494C3"/>
<path transform="translate(655,1678)" d="m0 0h243l27 1 23 2 18 4 6 4 2 4-2 4-2 19 1 22v21h-34l3-2 4-2-1-23-3-10-1-13v-20l-5-2-17-3-22-2-31-1-28 1-27 2-34 6-4 3-14-1-5-2-1-1-14-2-14-1-13-2-28-2h-65l-37 4-8 2-2 5h-2l-2 17-1 5 2 11-1 7-1 2v11l3 6 14 5 12 2v1h-45l-1 2-7-5-6-10-7-17-5-21-2-15 3-3-1-6 3-1h24l18-4 18-1z" fill="#4E8BB7"/>
<path transform="translate(989,1017)" d="m0 0h17l13 3 10 6 9 9 8 14 3 9v10l-4 12-6 9-7 7-11 7-9 3-6 1h-13l-12-4-10-6-11-10-5-9-2-9v-13l3-11 6-11 9-10 10-5z" fill="#477EA6"/>
<path transform="translate(375,1438)" d="m0 0h8l10 3 11 6 10 9 6 9 4 11v12l-6 17-7 11-8 7-5 3-11 3h-17l-12-3-8-4-10-9-7-12-3-8v-21l4-10 4-6 8-8 14-7 7-2z" fill="#477EA6"/>
<path transform="translate(564,985)" d="m0 0h15l13 3 9 5 10 9 7 11 5 14v9l-4 11-7 10-7 7-13 8-11 4h-19l-11-6-9-7-8-9-5-11-2-7v-10l3-11 6-11 9-10 9-6z" fill="#477EA6"/>
<path transform="translate(1137,1405)" d="m0 0 16 2 10 4 9 7 8 10 4 10 1 5v11l-3 12-5 10-8 9-11 8-10 4-4 1h-7l-14-4-9-5-10-9-6-10-4-12v-10l2-12 4-9 7-11 9-6 13-4z" fill="#3E6F94"/>
<path transform="translate(1398,1368)" d="m0 0 4 2 4 4 5 10 4 14 1 7v18l-2 14-4 12-2-1-1-4-2-5-5-1-1-2-9 2-4 6-11 3-3-2-7 1h-15l-16-4-23 2h-9l-25 3-7-1-8-4-8-8-3-7-1-11 1-12h1l2 12 2 4 18 2 4 2h11l17-2 24-6 2-1 12-1 18-4 2-1 2-6 5-2 2-5 4-6 1-5 4-1 4-5 8-1v-7z" fill="#4E8BB7"/>
<path transform="translate(301,1705)" d="m0 0 17 1 13 4 17 4 3 3 7 2-3 5 6 4 4 10 3 2v6l-6 7-16 8-9 4-17 4-7 1h-21l-13-4-14-7-11-9-1-9 6-2h2v-6l4-4 1-2h2v-3l7-6 5-6z" fill="#477EA6"/>
<path transform="translate(1206,1381)" d="m0 0h2l10 21 8 16 5 14 9 6 4 2 5 5 3 2v2l4 2 6 9 3 4v2h2l7 8 12 8 28 11 10 4 1 3 2 1h-2v2l-12 2-27 3-48 6h-34l-11-1 6-7 11-15 8-14 5-14 2-16-1-16-4-15-6-15-7-15z" fill="#3E6F94"/>
<path transform="translate(678,1199)" d="m0 0 11 1 40 14 30 11 20 8 9 3 2 2v15l-4 8-7 3h-13l-21-6-51-18-14-6-9-7-2-5v-11l6-11z" fill="#364D62"/>
<path transform="translate(1060,851)" d="m0 0h30v2l41 3 3 1-1 8-7 37-7 38h-2l-4 22-4 9v4l-3-1-3-9v-2l-7 1-6-14 1-4v-7l-1-5-2 3-2-4-1-8-1-10v-11l-2-17h2v-7l2-5 4-4 3-6-2-5-12-6-19-2z" fill="#4E8BB7"/>
<path transform="translate(777,1022)" d="m0 0 20 1 38 3 3 13v12l-3 7-5 8-9 6-9 4h-18l-9-4-8-8-6-12-1-3v-14l3-9z" fill="#FBFBFC"/>
<path transform="translate(375,1438)" d="m0 0h8l10 3 11 6 10 9 6 9 4 11v12l-6 17-7 11-8 7-5 3-11 3h-17l-12-3-8-4-10-9-7-12-3-8v-21l4-10 4-6 8-8 14-7 7-2zm-6 5-17 5-8 6-8 9-3 9-1 11 1 10 3 9 6 9 8 5 8 2 8-1 7-3 7-2 6-7 6-10 4-16 5-8 1-2v-7l-4-9h-2l-1-3-7-5-9-2z" fill="#3E6F94"/>
<path transform="translate(759,1705)" d="m0 0h1l1 7 1 1 1-4 6 1 1 3v3l7-2-1 4h5v2l2 1v5l6 8 5 13 5 4 1 4 5 1 4 2 17 1v1h-60l-66-1v-1l10-1 18-12 1-2h2l2-10h2l1-5h2v-3l5-3 6-3h4l1-7 3-5z" fill="#4E8BB7"/>
<path transform="translate(1168,1055)" d="m0 0h2l7 10 5 7 5 5 8 17 5 17 1 9-2-1-2-4-5-1h-14v-2l-8 5-5 2-7-2-9-8-7-8-11-9-9-9-10-8 3-1 10 4h17l2-5 7-3 2-2 1 3 5-1 2-1-1-5 7-1v-6z" fill="#4E8BB7"/>
<path transform="translate(1108,1214)" d="m0 0h10l1 1-1 7-4 4 4 3-3 1-1 5-5 10 1 3-2 3h-2l-2 5-4 6-13 4-9 1-1 1h-15l-1-3 3-5v-19l4-21 1-1 17-1 14-3z" fill="#4D8AB6"/>
<path transform="translate(294,1496)" d="m0 0 4 5 4 8 5 16 8 13 11 12 15 11 16 8 18 4 25 2 3 1-2 6-12 22-6 13h-2v2l-6-1-2-5-3-1-3-5-2-1v-7l-6 1-5-13-2-7-10-7-5-5-5-4-7-8-8-8v-2h-2v-2h-2l-8-11-5-9-5-15-2-5v-7z" fill="#3E6F94"/>
<path transform="translate(833,1813)" d="m0 0h15l7 4 6 8 2 5 1 7-2 10-6 9-6 4-3 1h-14l-11-4-7-8-3-8 1-9 3-7 6-7 7-4z" fill="#3E6F94"/>
<path transform="translate(696,1813)" d="m0 0h8l10 5 6 8 2 8-1 11-5 8-6 5-7 3-14 1-8-3-5-6-3-6v-14l4-8 6-7 8-4z" fill="#3E6F94"/>
<path transform="translate(1392,1245)" d="m0 0h11v1l-27 3-3 6-7 9-6 4-13 13-5 4-1 2-3 1-3 6-8 9-7 10-3 6-5 4-4 4-1-2-4 5h-2v8l-3 2h-3v2l-3-1 2-14 5-14 8-16 8-11 11-12 15-12 13-8 15-6 9-2z" fill="#C0D5E6"/>
<path transform="translate(966,1760)" d="m0 0h8l3 5-2 5 2 2-1 2 2 9 2 3-1 16-1 14-1 4h-2v13l-5 1v2h-5l-1 3h-4v-17l-3-1 1-5-3-5v-14l4-5v-7l3-5v-6l2-7h2l-1-4 2-1z" fill="#3E6F94"/>
<path transform="translate(524,1673)" d="m0 0 375 1h98l-1 4-18 1-20-1-70-1h-275l-65 1h-26v14l-2-4 1-13z" fill="#3E6F94"/>
<path transform="translate(385,1109)" d="m0 0 3 4 3 5v2h2l6 9v2h2l4 13 1 4v7l-4 5-10 1-6-2-2-6 1-2-7-1 2-5-5 2-3-7-1-8 5-5 2-6 3-2v-3h3v-2l-3-1 1-3z" fill="#477EA6"/>
<path transform="translate(737,1768)" d="m0 0 1 2 6 1 1 3v26l-1 15v5l-4-5-8-12-8-8-9-4-9-2-24-1v-1l5-1 17-1 3-2 11-2 11-5 4 2 2-1 1-4h2z" fill="#3F6F94"/>
<path transform="translate(355,1112)" d="m0 0 2 1 5 17 5 15 8 16 7 8 6 7 11 9 11 7h4l1 2 3-1 5 3v2l4 1 3 4v2l13-1 9 3 4 2 2 3v5l-4 4v1h-5l-3-3-15-5-15-8-10-8-10-9-13-13-9-12-9-17-6-15-4-18z" fill="#5594C3"/>
<path transform="translate(376,1662)" d="m0 0 15 6 3 9v12l-3 16-6 18-4 7-1-4 2-6-1-14-1-2v-9h-1l-3-20-3-9z" fill="#5494C4"/>
<path transform="translate(704,1061)" d="m0 0 2 3 5 13 6 11 7 9 9 10 9 6 19 9 15 4 11 1 2 2-1 1h-10l-7-1-8-1-7-1v-2l-9-3v-2l-10-2-5-4v-2l-4-2-7-6-4-6v-3l-4-1-6-10-3-12-2-5v-5z" fill="#537197"/>
<path transform="translate(478,1420)" d="m0 0 1 3-5 2v9l4 13 4 10 4 8v7l-3 6-3-4-5-16-9-17-10-15 1-4h15z" fill="#3E6F94"/>
<path transform="translate(397,1376)" d="m0 0 4 2 5 5 7 9 3 3-1 4h-28l-15-1v-1l8-2 9-8 8-6z" fill="#407196"/>
<path transform="translate(887,1835)" d="m0 0h1l1 68 34-1 16-1 12-4 11-3v-2l4-1 8 8 6 5v1h-92l-1-1z" fill="#3E6F94"/>
<path transform="translate(1127,1419)" d="m0 0 3 1-1 2 10 4-3 3-6 1-6 2-1 3-10 7-8 3-2 2-1-9v-2h2l1-6 1-2h4v-2l8-2-1-3z" fill="#477EA6"/>
<path transform="translate(473,1108)" d="m0 0 5 1 10 4-3 1-9-4-2-1 1 2 3 63 1 26v24l-1 1h-36l2-2h33l-2-47-3-53v-9z" fill="#3E6F94"/>
<path transform="translate(530,746)" d="m0 0h1v8l-2 4-4 18-3 7-3 24 2 4h-8l-3-3 1-7 14-41z" fill="#518DB8"/>
<path transform="translate(648,1828)" d="m0 0h1l-1 75-2 1-87 1-4 2-7 8-5 5-7 6 2-4 14-14 3-5 17-1h75v-67z" fill="#3E6F94"/>
<path transform="translate(999,738)" d="m0 0 2 1-5 5v12l-3 8-2 14-1 2h-2l-1 7h-1l-2-11v-15l4-10 7-9z" fill="#4E8BB7"/>
<path transform="translate(863,1083)" d="m0 0 2 1-3 6-2 1-3 5-10 9-7 7-9 3v2l-10 5-6 4-13 4h-9l-3-2 18-4 19-8 15-10 10-9 8-9z" fill="#4F6E95"/>
<path transform="translate(1071,1243)" d="m0 0 6 2 2 7h-3l-3 7-4 4h-5v-7l3-10z" fill="#5494C4"/>
<path transform="translate(1413,1397)" d="m0 0 2 1 1 7v18l-2 14-1 2-3-1-1-4 2-12 1-24z" fill="#4B81A8"/>
<path transform="translate(874,1029)" d="m0 0 20 1 3 2-8 4-5 2h-3l-1 2-1-3h-2v-5h-2v16h-1z" fill="#548CB7"/>
<path transform="translate(1407,1451)" d="m0 0 2 1-4 11 2 1-9 7-10 9-5 2 5-5 3-1 2-4 6-6v-7l2-4 5-2z" fill="#538EB9"/>
<path transform="translate(223,1663)" d="m0 0 3 1-4 5-3 2-10 3-11 7-12 12v-3l12-12 13-9z" fill="#C2D6E7"/>
<path transform="translate(589,1902)" d="m0 0m-21 0h20l1 2-30 1-4 2-7 8-5 5-7 6 2-4 14-14 3-5z" fill="#447397"/>
<path transform="translate(672,1203)" d="m0 0 1 2-3 6v11l3 6 9 6 12 5-3 1-13-5-5-3v-2h-2v-2h-2l-2-5v-11z" fill="#42759C"/>
<path transform="translate(863,1083)" d="m0 0 2 1-3 6-2 1-3 5-10 9-7 7-9 3v2l-4 1 1-3 14-9 10-9 8-9z" fill="#6F6E96"/>
<path transform="translate(1382,1352)" d="m0 0h5l9 8 1 5-7-3-7-5v-2l-2-2z" fill="#548EB8"/>
<path transform="translate(1063,1247)" d="m0 0h1l1 14-3 5v2l15-1h13v1l-6 1-24 1 1-11z" fill="#3E6F94"/>
<path transform="translate(553,703)" d="m0 0 2 1-7 8-10 15-1-3 7-14 7-6z" fill="#5A92BA"/>
<path transform="translate(753,1757)" d="m0 0h18l17 2v1h-22l-14-1z" fill="#5393C3"/>
<path transform="translate(355,1112)" d="m0 0 2 1 5 17 5 15v2h-2l-6-15-4-18z" fill="#5D98C4"/>
<path transform="translate(254,1749)" d="m0 0 6 2 6 5 8 4 4 3v2l-6-2-11-7-7-6z" fill="#5590BA"/>
<path transform="translate(530,746)" d="m0 0h1v8l-2 4-1 6-3 3-5 14-2-1z" fill="#5D96C0"/>
<path transform="translate(398,1681)" d="m0 0 11 7 7 6 9 11-1 2-14-15-12-9z" fill="#C4D8E8"/>
<path transform="translate(677,1835)" d="m0 0 3 1 1 5-2 5h-3l-2-1v-8z" fill="#477EA6"/>
<path transform="translate(262,1616)" d="m0 0 3 1-13 7-8 5-4-1v-4h2l2 2 5-4z" fill="#4F8CB7"/>
<path transform="translate(987,753)" d="m0 0h1l-2 29h-1l-1-6v-15z" fill="#5494C4"/>
<path transform="translate(818,1787)" d="m0 0h25v1l-19 1-10 3-5 2 2-5 6-1z" fill="#3E6F94"/>
<path transform="translate(510,1951)" d="m0 0 2 1-9 10-12 12v-3l7-7 5-6 5-5z" fill="#52738E"/>
<path transform="translate(377,1639)" d="m0 0 4 4 4 7-1 2-2-2-5-2-1-1z" fill="#5996C4"/>
<path transform="translate(1359,1494)" d="m0 0 3 1-14 8-6-1 4-3z" fill="#5592C0"/>
<path transform="translate(426,1233)" d="m0 0 2 1-17 17-1 2-2-1 9-11z" fill="#4B718F"/>
<path transform="translate(669,1016)" d="m0 0h38v2l-5 1v-2h-33z" fill="#508CB7"/>
<path transform="translate(1126,856)" d="m0 0 8 1-1 8-1 5h-2l-1-12z" fill="#5996C4"/>
<path transform="translate(995,1684)" d="m0 0h2l-1 16-1 6h-1l-1-17h2z" fill="#5992BB"/>
<path transform="translate(1117,940)" d="m0 0h2l-3 19-2-1v-7z" fill="#5E98C4"/>
<path transform="translate(1398,1467)" d="m0 0 3 1-9 9-7 5-2-1 6-5h2l2-4z" fill="#5291BF"/>
<path transform="translate(800,1126)" d="m0 0h5l-1 3-2 1h-9l-3-2z" fill="#58789B"/>
<path transform="translate(580,697)" d="m0 0h12l7 3v1h-10l-2-2-7-1z" fill="#5F95BC"/>
<path transform="translate(1473,1412)" d="m0 0h3l-2 4-3 3-2 4-1-4 3-5z" fill="#C4D8E8"/>
<path transform="translate(1125,1024)" d="m0 0 6 1 4 1 4 5-6-1-8-5z" fill="#4E8BB7"/>
<path transform="translate(831,1854)" d="m0 0 9 3-2 2h-7l-1-3z" fill="#477EA6"/>
<path transform="translate(780,1127)" d="m0 0h7l2 2-1 1h-10l-2-2z" fill="#5C7B9C"/>
<path transform="translate(1091,853)" d="m0 0 12 1v2l-8 1-2 1z" fill="#5D97C4"/>
<path transform="translate(796,1808)" d="m0 0 1 2-4 8-2 3v-8h2l2-4z" fill="#6182A1"/>
<path transform="translate(1063,1247)" d="m0 0h1l1 14-3 2v-10z" fill="#457BA3"/>
<path transform="translate(530,746)" d="m0 0h1v8l-4 6-1-2z" fill="#5390BC"/>
</svg>
