<?xml version="1.0" encoding="UTF-8"?>
<!DOCTYPE svg PUBLIC "-//W3C//DTD SVG 1.1//EN" "http://www.w3.org/Graphics/SVG/1.1/DTD/svg11.dtd">
<svg xmlns="http://www.w3.org/2000/svg" version="1.1" width="512px" height="512px" style="shape-rendering:geometricPrecision; text-rendering:geometricPrecision; image-rendering:optimizeQuality; fill-rule:evenodd; clip-rule:evenodd" xmlns:xlink="http://www.w3.org/1999/xlink">
<g><path style="opacity:0.972" fill="#010101" d="M 301.5,7.5 C 322.169,7.33338 342.836,7.50004 363.5,8C 365.333,8.5 366.5,9.66667 367,11.5C 367.667,17.8333 367.667,24.1667 367,30.5C 366.275,32.9494 365.275,35.2827 364,37.5C 361.447,39.7162 359.28,42.2162 357.5,45C 358.991,50.3898 359.824,55.8898 360,61.5C 363.106,67.3791 365.94,73.3791 368.5,79.5C 367.056,84.4499 364.223,88.4499 360,91.5C 357.466,101.533 351.3,108.2 341.5,111.5C 339.914,113.67 338.58,116.004 337.5,118.5C 344.426,128.102 348.926,138.768 351,150.5C 358.333,147.167 363.667,141.833 367,134.5C 373.886,127.908 382.052,125.741 391.5,128C 405.224,133.612 410.391,143.779 407,158.5C 404.962,166.068 400.795,172.234 394.5,177C 376.105,185.03 358.439,194.363 341.5,205C 335.696,214.09 334.03,223.923 336.5,234.5C 354.167,244.667 371.833,254.833 389.5,265C 391.113,267.228 391.78,269.728 391.5,272.5C 412.666,279.163 419.833,293.163 413,314.5C 411.167,317 409.333,319.5 407.5,322C 378.105,341.719 352.105,365.386 329.5,393C 334.4,401.967 338.9,411.133 343,420.5C 346,433.336 341.5,442.17 329.5,447C 312.382,448.96 297.382,444.293 284.5,433C 274.636,423.47 265.136,413.637 256,403.5C 255.23,379.268 267.063,367.102 291.5,367C 305.23,350.203 318.23,332.87 330.5,315C 322.102,309.809 313.102,306.976 303.5,306.5C 295,323.5 286.5,340.5 278,357.5C 276.333,358.5 274.667,359.5 273,360.5C 269.02,367.624 264.186,374.124 258.5,380C 245.164,388.661 232.997,398.827 222,410.5C 211.128,424.4 201.628,439.234 193.5,455C 198.375,461.914 202.875,469.081 207,476.5C 210,489.336 205.5,498.17 193.5,503C 176.382,504.96 161.382,500.293 148.5,489C 138.636,479.47 129.136,469.637 120,459.5C 119.081,435.749 130.581,423.582 154.5,423C 164.079,410.673 170.579,396.84 174,381.5C 179.394,370.106 187.56,361.273 198.5,355C 202.025,351.443 205.191,347.61 208,343.5C 207.674,339.53 207.674,335.53 208,331.5C 212.804,318.754 217.804,306.087 223,293.5C 223.273,280.239 226.44,267.739 232.5,256C 228.864,239.206 232.864,224.539 244.5,212C 235.333,198.833 226.167,185.667 217,172.5C 212.752,159.988 215.585,149.488 225.5,141C 247.475,130.657 268.141,118.323 287.5,104C 265.15,85.9399 258.317,63.1066 267,35.5C 274.245,20.739 285.745,11.4056 301.5,7.5 Z"/></g>
<g><path style="opacity:1" fill="#8e6455" d="M 302.5,90.5 C 297.457,86.2521 293.624,80.9187 291,74.5C 283.747,55.9679 286.914,39.6346 300.5,25.5C 301.766,24.9101 303.099,24.4101 304.5,24C 320.163,23.5001 335.83,23.3334 351.5,23.5C 351.451,26.0991 350.451,28.2658 348.5,30C 335.885,33.872 323.218,37.5386 310.5,41C 295.05,49.6882 291.55,61.8549 300,77.5C 302.35,79.6829 304.517,82.0163 306.5,84.5C 305.156,86.5286 303.823,88.5286 302.5,90.5 Z"/></g>
<g><path style="opacity:1" fill="#765146" d="M 300.5,25.5 C 286.914,39.6346 283.747,55.9679 291,74.5C 293.624,80.9187 297.457,86.2521 302.5,90.5C 301.223,92.914 299.557,93.0807 297.5,91C 278.401,74.8924 274.901,56.0591 287,34.5C 290.856,30.4674 295.356,27.4674 300.5,25.5 Z"/></g>
<g><path style="opacity:1" fill="#edb49b" d="M 336.5,49.5 C 339.833,49.0268 342,50.3601 343,53.5C 342.416,62.2467 344.582,70.2467 349.5,77.5C 348.185,79.3159 346.685,80.9825 345,82.5C 344,85.8333 343,89.1667 342,92.5C 341.097,93.7014 339.931,94.5348 338.5,95C 335.711,95.2414 333.044,95.908 330.5,97C 327.58,101.504 324.914,106.171 322.5,111C 317.211,112.356 313.545,110.522 311.5,105.5C 317.871,97.4145 323.205,88.7478 327.5,79.5C 326.536,73.4185 322.87,70.5851 316.5,71C 312.139,68.7742 310.639,65.2742 312,60.5C 312.833,58.3333 314.333,56.8333 316.5,56C 323.493,54.5015 330.16,52.3349 336.5,49.5 Z"/></g>
<g><path style="opacity:1" fill="#000000" d="M 119.5,87.5 C 124.833,87.5 130.167,87.5 135.5,87.5C 135.5,92.8333 135.5,98.1667 135.5,103.5C 130.167,103.5 124.833,103.5 119.5,103.5C 119.5,98.1667 119.5,92.8333 119.5,87.5 Z"/></g>
<g><path style="opacity:1" fill="#000000" d="M 151.5,87.5 C 183.5,87.5 215.5,87.5 247.5,87.5C 247.5,92.8333 247.5,98.1667 247.5,103.5C 215.5,103.5 183.5,103.5 151.5,103.5C 151.5,98.1667 151.5,92.8333 151.5,87.5 Z"/></g>
<g><path style="opacity:1" fill="#fc4a4f" d="M 297.5,116.5 C 301.656,119.811 305.99,122.977 310.5,126C 314.749,127.126 319.082,127.792 323.5,128C 333.504,141.18 337.337,156.014 335,172.5C 330.593,186.055 325.593,199.388 320,212.5C 319.5,219.492 319.334,226.492 319.5,233.5C 314.118,234.286 308.784,235.286 303.5,236.5C 304.351,222.919 300.851,210.585 293,199.5C 286.644,191.978 280.477,184.311 274.5,176.5C 282.654,169.924 290.987,163.591 299.5,157.5C 296.975,153.104 293.975,149.104 290.5,145.5C 285.248,148.709 280.082,152.042 275,155.5C 271.776,150.219 268.943,144.719 266.5,139C 266.645,138.228 266.978,137.561 267.5,137C 277.739,130.391 287.739,123.558 297.5,116.5 Z"/></g>
<g><path style="opacity:1" fill="#ebb399" d="M 381.5,143.5 C 388.655,143.153 391.821,146.486 391,153.5C 390.064,157.207 388.231,160.374 385.5,163C 373.276,167.779 361.609,173.612 350.5,180.5C 350.167,180 349.833,179.5 349.5,179C 350.058,175.486 350.724,171.986 351.5,168.5C 358.155,165.507 364.488,162.007 370.5,158C 374.54,153.406 378.206,148.573 381.5,143.5 Z"/></g>
<g><path style="opacity:1" fill="#edb49a" d="M 250.5,146.5 C 251.376,146.369 252.043,146.702 252.5,147.5C 255.5,153.5 258.5,159.5 261.5,165.5C 259.476,167.69 257.643,170.023 256,172.5C 255.333,174.5 255.333,176.5 256,178.5C 264,188.5 272,198.5 280,208.5C 285.77,216.249 288.104,224.915 287,234.5C 283.108,240.259 278.441,240.926 273,236.5C 272.426,228.8 270.426,221.467 267,214.5C 255.333,198.167 243.667,181.833 232,165.5C 231.21,162.366 231.543,159.366 233,156.5C 238.815,153.013 244.648,149.68 250.5,146.5 Z"/></g>
<g><path style="opacity:1" fill="#f1464b" d="M 253.5,226.5 C 254.117,226.611 254.617,226.944 255,227.5C 255.201,234.191 257.035,240.357 260.5,246C 256.295,247.68 251.962,248.847 247.5,249.5C 246.543,240.991 248.543,233.324 253.5,226.5 Z"/></g>
<g><path style="opacity:1" fill="#000000" d="M 159.5,247.5 C 175.5,247.5 191.5,247.5 207.5,247.5C 207.5,252.833 207.5,258.167 207.5,263.5C 191.5,263.5 175.5,263.5 159.5,263.5C 159.5,258.167 159.5,252.833 159.5,247.5 Z"/></g>
<g><path style="opacity:1" fill="#84daf7" d="M 322.5,248.5 C 324.527,248.338 326.527,248.505 328.5,249C 342.533,256.678 356.2,264.845 369.5,273.5C 360.5,283.167 351.167,292.5 341.5,301.5C 323.186,291.23 303.52,286.397 282.5,287C 269.771,284.144 260.104,277.144 253.5,266C 253.905,265.055 254.572,264.388 255.5,264C 278.005,258.955 300.338,253.788 322.5,248.5 Z"/></g>
<g><path style="opacity:1" fill="#3ab1e2" d="M 241.5,278.5 C 252.934,293.062 267.934,301.562 286.5,304C 280.167,316.333 273.833,328.667 267.5,341C 255.422,338.647 243.422,335.647 231.5,332C 229.349,331.735 227.682,330.735 226.5,329C 230.667,318.5 234.833,308 239,297.5C 239.149,291.025 239.982,284.692 241.5,278.5 Z"/></g>
<g><path style="opacity:1" fill="#eeb59b" d="M 380.5,285.5 C 386.447,287.312 391.947,289.978 397,293.5C 400.333,298.5 400.333,303.5 397,308.5C 367.186,329.809 340.353,354.476 316.5,382.5C 313.087,383.823 309.753,383.656 306.5,382C 304.789,380.867 304.289,379.367 305,377.5C 320.067,358.365 334.4,338.698 348,318.5C 359.035,307.632 369.869,296.632 380.5,285.5 Z"/></g>
<g><path style="opacity:1" fill="#000000" d="M 103.5,319.5 C 130.167,319.5 156.833,319.5 183.5,319.5C 183.5,324.833 183.5,330.167 183.5,335.5C 156.833,335.5 130.167,335.5 103.5,335.5C 103.5,330.167 103.5,324.833 103.5,319.5 Z"/></g>
<g><path style="opacity:1" fill="#eeb59b" d="M 224.5,347.5 C 235.457,349.127 246.124,351.96 256.5,356C 252.914,361.591 248.58,366.591 243.5,371C 215.204,389.76 194.037,414.594 180,445.5C 178.951,446.517 177.784,446.684 176.5,446C 172.034,443.534 169.034,439.867 167.5,435C 177.479,420.872 184.645,405.372 189,388.5C 190.667,385.833 192.333,383.167 194,380.5C 201.667,373.5 209.333,366.5 217,359.5C 219.772,355.612 222.272,351.612 224.5,347.5 Z"/></g>
<g><path style="opacity:1" fill="#616161" d="M 325.5,422.5 C 316.761,424.075 308.427,422.575 300.5,418C 290.02,411.019 281.02,402.519 273.5,392.5C 276.696,385.568 282.03,382.902 289.5,384.5C 294.774,394.935 303.274,400.269 315,400.5C 318.784,407.734 322.284,415.067 325.5,422.5 Z"/></g>
<g><path style="opacity:1" fill="#4a4a4a" d="M 273.5,392.5 C 281.02,402.519 290.02,411.019 300.5,418C 308.427,422.575 316.761,424.075 325.5,422.5C 328.086,425.293 328.086,428.126 325.5,431C 315.47,431.767 306.47,429.101 298.5,423C 290,414.5 281.5,406 273,397.5C 272.22,395.613 272.387,393.946 273.5,392.5 Z"/></g>
<g><path style="opacity:1" fill="#616161" d="M 189.5,486.5 C 180.843,486.256 173.176,483.422 166.5,478C 156.667,469.5 147.5,460.333 139,450.5C 138.51,449.207 138.343,447.873 138.5,446.5C 146.884,436.27 153.05,437.27 157,449.5C 163.013,457.008 170.679,462.008 180,464.5C 183.667,470.167 187.333,475.833 191,481.5C 191.877,483.674 191.377,485.341 189.5,486.5 Z"/></g>
<g><path style="opacity:1" fill="#4a4a4a" d="M 138.5,446.5 C 138.343,447.873 138.51,449.207 139,450.5C 147.5,460.333 156.667,469.5 166.5,478C 173.176,483.422 180.843,486.256 189.5,486.5C 179.62,487.827 170.62,485.327 162.5,479C 154,470.5 145.5,462 137,453.5C 136.174,450.788 136.674,448.455 138.5,446.5 Z"/></g>
</svg>
