<?xml version="1.0" encoding="UTF-8"?>
<!DOCTYPE svg PUBLIC "-//W3C//DTD SVG 1.1//EN" "http://www.w3.org/Graphics/SVG/1.1/DTD/svg11.dtd">
<svg xmlns="http://www.w3.org/2000/svg" version="1.1" width="512px" height="512px" style="shape-rendering:geometricPrecision; text-rendering:geometricPrecision; image-rendering:optimizeQuality; fill-rule:evenodd; clip-rule:evenodd" xmlns:xlink="http://www.w3.org/1999/xlink">
<g><path style="opacity:0.985" fill="#020202" d="M 201.5,-0.5 C 220.833,-0.5 240.167,-0.5 259.5,-0.5C 307.358,2.51006 353.024,14.3434 396.5,35C 423.288,50.0676 438.455,72.901 442,103.5C 442.667,129.5 442.667,155.5 442,181.5C 437.772,215.048 420.438,239.048 390,253.5C 389.333,293.833 389.333,334.167 390,374.5C 421.92,394.671 437.253,423.671 436,461.5C 429.982,488.684 413.482,505.351 386.5,511.5C 366.833,511.5 347.167,511.5 327.5,511.5C 325.331,509.66 323.998,507.326 323.5,504.5C 324.01,501.336 325.676,498.836 328.5,497C 346.167,496.667 363.833,496.333 381.5,496C 409.43,489.723 422.596,472.223 421,443.5C 412.329,408.163 390.329,386.163 355,377.5C 353.833,377.667 352.667,377.833 351.5,378C 350.5,380.333 348.833,382 346.5,383C 324.5,383.667 302.5,383.667 280.5,383C 277.603,381.285 276.269,378.785 276.5,375.5C 246.167,375.5 215.833,375.5 185.5,375.5C 185.673,379.17 184.007,381.67 180.5,383C 166.504,383.5 152.504,383.667 138.5,383.5C 130.826,383.666 123.159,383.5 115.5,383C 112.785,382.125 111.452,380.292 111.5,377.5C 73.7415,384.087 50.2415,406.087 41,443.5C 39.3619,467.06 49.1953,483.893 70.5,494C 72.8782,494.511 75.2115,495.178 77.5,496C 92.8297,496.5 108.163,496.667 123.5,496.5C 181.834,496.333 240.168,496.5 298.5,497C 301.892,498.542 303.892,501.042 304.5,504.5C 303.937,507.295 302.604,509.628 300.5,511.5C 225.5,511.5 150.5,511.5 75.5,511.5C 37.8689,500.653 21.7023,475.653 27,436.5C 33.7036,409.74 48.7036,389.073 72,374.5C 72.6667,334.167 72.6667,293.833 72,253.5C 41.4991,239.001 24.1658,215.001 20,181.5C 19.3333,155.5 19.3333,129.5 20,103.5C 24.3966,69.4343 42.23,45.2676 73.5,31C 82.3864,27.0569 91.3864,23.3902 100.5,20C 102.833,19.3333 105.167,19.3333 107.5,20C 109.751,20.7475 111.084,22.2475 111.5,24.5C 111.846,27.6021 111.179,30.4355 109.5,33C 92.6772,39.0791 76.6772,46.7458 61.5,56C 48.2578,67.3171 39.7578,81.4837 36,98.5C 35.3333,127.167 35.3333,155.833 36,184.5C 39.3539,204.378 49.1872,220.211 65.5,232C 90.8359,246.444 117.836,256.111 146.5,261C 141.732,254.798 137.732,248.131 134.5,241C 105.642,237.127 92.8084,220.627 96,191.5C 97.8597,164.75 106.36,140.417 121.5,118.5C 145.413,84.8348 178.079,65.3348 219.5,60C 252.167,59.3333 284.833,59.3333 317.5,60C 336.598,64.7642 345.098,76.9309 343,96.5C 341.554,102.058 339.054,107.058 335.5,111.5C 358.535,141.306 368.368,174.973 365,212.5C 359.08,230.554 346.58,240.054 327.5,241C 324.268,248.131 320.268,254.798 315.5,261C 344.028,255.712 371.028,246.045 396.5,232C 412.813,220.211 422.646,204.378 426,184.5C 426.667,155.833 426.667,127.167 426,98.5C 421.49,77.3293 409.99,61.1626 391.5,50C 340.534,25.4057 286.701,13.5723 230,14.5C 219.813,14.5656 209.646,14.8989 199.5,15.5C 178.936,16.9139 158.603,19.9139 138.5,24.5C 134.424,24.4293 131.758,22.4293 130.5,18.5C 129.846,14.3174 131.512,11.484 135.5,10C 157.399,4.94529 179.399,1.44529 201.5,-0.5 Z"/></g>
<g><path style="opacity:0.924" fill="#000000" d="M 446.5,6.5 C 459.837,6.33344 473.171,6.5001 486.5,7C 491.301,10.1132 492.468,14.2798 490,19.5C 482.167,29.8333 474.333,40.1667 466.5,50.5C 472.807,51.3306 479.141,51.8306 485.5,52C 492.004,55.5202 493.004,60.1868 488.5,66C 474.26,67.6318 459.927,67.9651 445.5,67C 441.387,63.4906 440.554,59.3239 443,54.5C 450.833,44 458.667,33.5 466.5,23C 459.061,22.9301 451.728,22.2635 444.5,21C 440.128,15.4079 440.794,10.5746 446.5,6.5 Z"/></g>
<g><path style="opacity:1" fill="#eeebfd" d="M 121.5,118.5 C 117.913,82.1703 131.246,53.6703 161.5,33C 173.908,26.291 186.575,20.4577 199.5,15.5C 209.646,14.8989 219.813,14.5656 230,14.5C 286.701,13.5723 340.534,25.4057 391.5,50C 409.99,61.1626 421.49,77.3293 426,98.5C 426.667,127.167 426.667,155.833 426,184.5C 422.646,204.378 412.813,220.211 396.5,232C 371.028,246.045 344.028,255.712 315.5,261C 320.268,254.798 324.268,248.131 327.5,241C 346.58,240.054 359.08,230.554 365,212.5C 368.368,174.973 358.535,141.306 335.5,111.5C 339.054,107.058 341.554,102.058 343,96.5C 345.098,76.9309 336.598,64.7642 317.5,60C 284.833,59.3333 252.167,59.3333 219.5,60C 178.079,65.3348 145.413,84.8348 121.5,118.5 Z"/></g>
<g><path style="opacity:1" fill="#dad9fd" d="M 199.5,15.5 C 186.575,20.4577 173.908,26.291 161.5,33C 131.246,53.6703 117.913,82.1703 121.5,118.5C 106.36,140.417 97.8597,164.75 96,191.5C 92.8084,220.627 105.642,237.127 134.5,241C 137.732,248.131 141.732,254.798 146.5,261C 117.836,256.111 90.8359,246.444 65.5,232C 49.1872,220.211 39.3539,204.378 36,184.5C 35.3333,155.833 35.3333,127.167 36,98.5C 39.7578,81.4837 48.2578,67.3171 61.5,56C 76.6772,46.7458 92.6772,39.0791 109.5,33C 111.179,30.4355 111.846,27.6021 111.5,24.5C 117.833,22.5 124.167,20.5 130.5,18.5C 131.758,22.4293 134.424,24.4293 138.5,24.5C 158.603,19.9139 178.936,16.9139 199.5,15.5 Z"/></g>
<g><path style="opacity:1" fill="#a35e3f" d="M 316.5,75.5 C 292.164,75.3334 267.831,75.5 243.5,76C 226.449,85.883 212.449,99.0496 201.5,115.5C 202.602,116.176 203.602,116.842 204.5,117.5C 169.975,116.92 146.308,132.587 133.5,164.5C 127.27,164.855 121.437,166.522 116,169.5C 125.944,127.873 150.777,98.706 190.5,82C 199.902,78.5663 209.568,76.2329 219.5,75C 252.003,74.1693 284.336,74.3359 316.5,75.5 Z"/></g>
<g><path style="opacity:1" fill="#bb7457" d="M 316.5,75.5 C 326.229,78.0958 330.062,84.4291 328,94.5C 325.929,98.3029 323.596,101.97 321,105.5C 320.333,109.167 320.333,112.833 321,116.5C 332.874,132.414 341.707,149.914 347.5,169C 347.333,169.5 347.167,170 347,170.5C 341.367,167.049 335.2,165.382 328.5,165.5C 325.819,157.804 322.319,150.471 318,143.5C 314.831,139.3 311.331,135.467 307.5,132C 301.818,132.165 296.151,132.832 290.5,134C 266.028,137.311 243.028,132.978 221.5,121C 215.914,119.383 210.247,118.216 204.5,117.5C 203.602,116.842 202.602,116.176 201.5,115.5C 212.449,99.0496 226.449,85.883 243.5,76C 267.831,75.5 292.164,75.3334 316.5,75.5 Z"/></g>
<g><path style="opacity:1" fill="#060606" d="M 370.5,82.5 C 380.172,82.3335 389.839,82.5002 399.5,83C 404.998,86.1672 405.832,90.3339 402,95.5C 397.833,101 393.667,106.5 389.5,112C 392.833,112.333 396.167,112.667 399.5,113C 405.209,116.545 405.875,120.879 401.5,126C 391.574,127.59 381.574,127.923 371.5,127C 366.566,124.335 365.399,120.502 368,115.5C 372.5,109.667 377,103.833 381.5,98C 378.167,97.6667 374.833,97.3333 371.5,97C 365.205,92.6625 364.872,87.8292 370.5,82.5 Z"/></g>
<g><path style="opacity:1" fill="#fcc9bc" d="M 218.5,136.5 C 208.371,143.144 200.871,152.144 196,163.5C 191.547,173.932 189.381,184.599 189.5,195.5C 184.929,201.818 179.262,202.985 172.5,199C 165.612,192.14 160.945,193.306 158.5,202.5C 159.779,207.957 163.112,211.79 168.5,214C 175.133,215.787 181.799,215.954 188.5,214.5C 191.301,243.942 204.635,267.275 228.5,284.5C 197.129,284.399 172.296,271.732 154,246.5C 136.804,215.041 137.471,184.041 156,153.5C 173.007,133.213 193.84,127.546 218.5,136.5 Z"/></g>
<g><path style="opacity:1" fill="#fddbcd" d="M 218.5,136.5 C 230.926,142.364 243.926,146.531 257.5,149C 272.586,149.831 287.586,149.497 302.5,148C 324.458,179.647 326.291,212.481 308,246.5C 288.164,272.665 261.664,285.331 228.5,284.5C 204.635,267.275 191.301,243.942 188.5,214.5C 192.39,212.781 195.89,210.448 199,207.5C 202.234,198.244 199.067,194.244 189.5,195.5C 189.381,184.599 191.547,173.932 196,163.5C 200.871,152.144 208.371,143.144 218.5,136.5 Z"/></g>
<g><path style="opacity:1" fill="#f3b6aa" d="M 126.5,180.5 C 127.586,180.62 128.253,181.287 128.5,182.5C 127.003,188.394 126.337,194.394 126.5,200.5C 126.515,208.568 127.182,216.568 128.5,224.5C 117.288,221.781 111.288,214.615 110.5,203C 111.427,192.258 116.76,184.758 126.5,180.5 Z"/></g>
<g><path style="opacity:1" fill="#f8c5b8" d="M 333.5,180.5 C 347.178,184.845 353.011,194.178 351,208.5C 348.145,217.192 342.312,222.525 333.5,224.5C 335.948,209.793 335.948,195.126 333.5,180.5 Z"/></g>
<g><path style="opacity:1" fill="#060505" d="M 189.5,195.5 C 199.067,194.244 202.234,198.244 199,207.5C 195.89,210.448 192.39,212.781 188.5,214.5C 181.799,215.954 175.133,215.787 168.5,214C 163.112,211.79 159.779,207.957 158.5,202.5C 160.945,193.306 165.612,192.14 172.5,199C 179.262,202.985 184.929,201.818 189.5,195.5 Z"/></g>
<g><path style="opacity:1" fill="#070606" d="M 266.5,194.5 C 270.933,194.759 274.6,196.593 277.5,200C 281.667,202.086 285.667,201.753 289.5,199C 294.578,192.848 299.411,193.015 304,199.5C 303.686,206.844 299.853,211.677 292.5,214C 280.171,218.295 270.004,215.462 262,205.5C 260.393,200.438 261.893,196.772 266.5,194.5 Z"/></g>
<g><path style="opacity:1" fill="#070605" d="M 228.5,209.5 C 240.532,210.9 244.365,217.233 240,228.5C 232.866,235.54 226.532,234.874 221,226.5C 218.679,218.489 221.179,212.823 228.5,209.5 Z"/></g>
<g><path style="opacity:1" fill="#72728f" d="M 89.5,260.5 C 88.1667,295.833 88.1667,331.167 89.5,366.5C 89.44,367.043 89.1067,367.376 88.5,367.5C 87.1667,331.5 87.1667,295.5 88.5,259.5C 89.1067,259.624 89.44,259.957 89.5,260.5 Z"/></g>
<g><path style="opacity:1" fill="#c5c5f7" d="M 89.5,260.5 C 114.718,270.138 140.718,276.972 167.5,281C 170.378,282.599 173.044,284.433 175.5,286.5C 152.908,300.994 136.408,320.66 126,345.5C 120.695,349.799 116.528,354.966 113.5,361C 105.411,362.514 97.4109,364.347 89.5,366.5C 88.1667,331.167 88.1667,295.833 89.5,260.5 Z"/></g>
<g><path style="opacity:1" fill="#c5c5f7" d="M 372.5,260.5 C 373.833,295.833 373.833,331.167 372.5,366.5C 364.551,364.477 356.551,362.643 348.5,361C 345.472,354.966 341.305,349.799 336,345.5C 325.602,320.697 309.102,301.031 286.5,286.5C 289.774,283.739 293.44,281.572 297.5,280C 323.213,276.155 348.213,269.655 372.5,260.5 Z"/></g>
<g><path style="opacity:1" fill="#7d7d9c" d="M 372.5,260.5 C 372.56,259.957 372.893,259.624 373.5,259.5C 374.833,295.5 374.833,331.5 373.5,367.5C 372.893,367.376 372.56,367.043 372.5,366.5C 373.833,331.167 373.833,295.833 372.5,260.5 Z"/></g>
<g><path style="opacity:1" fill="#f3b6ab" d="M 201.5,296.5 C 221.14,300.452 240.807,300.452 260.5,296.5C 255.823,317.516 242.823,326.016 221.5,322C 209.733,317.41 203.066,308.91 201.5,296.5 Z"/></g>
<g><path style="opacity:1" fill="#5869d4" d="M 184.5,298.5 C 187.846,310.325 194.18,320.492 203.5,329C 226.93,343.45 248.097,340.616 267,320.5C 271.531,313.769 274.698,306.436 276.5,298.5C 293.167,307.833 306.167,320.833 315.5,337.5C 299.223,338.63 287.223,346.297 279.5,360.5C 247.167,361.833 214.833,361.833 182.5,360.5C 174.798,346.305 162.798,338.638 146.5,337.5C 155.834,321.167 168.501,308.167 184.5,298.5 Z"/></g>
<g><path style="opacity:1" fill="#fbdacc" d="M 142.5,353.5 C 155.009,352.084 164.009,356.917 169.5,368C 155.504,368.5 141.504,368.667 127.5,368.5C 130.164,361.169 135.164,356.169 142.5,353.5 Z"/></g>
<g><path style="opacity:1" fill="#fad9cb" d="M 307.5,353.5 C 320.311,351.738 329.644,356.571 335.5,368C 321.167,368.667 306.833,368.667 292.5,368C 294.108,364.728 296.108,361.728 298.5,359C 301.564,357.141 304.564,355.308 307.5,353.5 Z"/></g>
<g><path style="opacity:1" fill="#fa8697" d="M 323.5,504.5 C 317.167,504.5 310.833,504.5 304.5,504.5C 303.892,501.042 301.892,498.542 298.5,497C 240.168,496.5 181.834,496.333 123.5,496.5C 103.848,476.543 98.6812,453.21 108,426.5C 114.537,409.483 124.704,395.15 138.5,383.5C 152.504,383.667 166.504,383.5 180.5,383C 184.007,381.67 185.673,379.17 185.5,375.5C 215.833,375.5 246.167,375.5 276.5,375.5C 276.269,378.785 277.603,381.285 280.5,383C 302.5,383.667 324.5,383.667 346.5,383C 348.833,382 350.5,380.333 351.5,378C 352.667,377.833 353.833,377.667 355,377.5C 390.329,386.163 412.329,408.163 421,443.5C 422.596,472.223 409.43,489.723 381.5,496C 363.833,496.333 346.167,496.667 328.5,497C 325.676,498.836 324.01,501.336 323.5,504.5 Z"/></g>
<g><path style="opacity:1" fill="#f96175" d="M 138.5,383.5 C 124.704,395.15 114.537,409.483 108,426.5C 98.6812,453.21 103.848,476.543 123.5,496.5C 108.163,496.667 92.8297,496.5 77.5,496C 75.2115,495.178 72.8782,494.511 70.5,494C 49.1953,483.893 39.3619,467.06 41,443.5C 50.2415,406.087 73.7415,384.087 111.5,377.5C 111.452,380.292 112.785,382.125 115.5,383C 123.159,383.5 130.826,383.666 138.5,383.5 Z"/></g>
</svg>
