<?xml version="1.0" encoding="UTF-8"?>
<!DOCTYPE svg PUBLIC "-//W3C//DTD SVG 1.1//EN" "http://www.w3.org/Graphics/SVG/1.1/DTD/svg11.dtd">
<svg xmlns="http://www.w3.org/2000/svg" version="1.1" width="512px" height="512px" style="shape-rendering:geometricPrecision; text-rendering:geometricPrecision; image-rendering:optimizeQuality; fill-rule:evenodd; clip-rule:evenodd" xmlns:xlink="http://www.w3.org/1999/xlink">
<g><path style="opacity:0.949" fill="#050404" d="M 511.5,341.5 C 511.5,358.833 511.5,376.167 511.5,393.5C 510.733,394.172 510.066,395.005 509.5,396C 501.507,396.5 493.507,396.666 485.5,396.5C 485.667,420.502 485.5,444.502 485,468.5C 483.915,469.293 482.748,469.96 481.5,470.5C 466.878,469.683 452.211,469.183 437.5,469C 437,468.5 436.5,468 436,467.5C 436.535,443.834 437.368,420.167 438.5,396.5C 369.167,396.083 299.834,395.749 230.5,395.5C 231.42,419.413 232.754,443.246 234.5,467C 233.929,468.205 233.262,469.372 232.5,470.5C 216.587,473.744 200.587,474.244 184.5,472C 184,471.5 183.5,471 183,470.5C 182.501,465.511 182.334,460.511 182.5,455.5C 138.498,456.574 94.4982,457.407 50.5,458C 46.2146,456.271 43.7146,453.105 43,448.5C 41.3351,429.862 40.1685,411.195 39.5,392.5C 27.1936,392.588 19.6936,386.588 17,374.5C 10.4965,333.784 4.66317,293.118 -0.5,252.5C -0.5,246.833 -0.5,241.167 -0.5,235.5C 5.65225,222.692 15.9856,216.859 30.5,218C 43.5542,220.721 51.7209,228.554 55,241.5C 58.227,260.529 61.5604,279.529 65,298.5C 81.2956,255.208 109.462,222.041 149.5,199C 154.286,196.272 159.286,194.106 164.5,192.5C 170.008,187.305 174.674,181.472 178.5,175C 170.21,173.941 164.044,169.774 160,162.5C 152.066,143.036 150.066,123.036 154,102.5C 158.094,88.7499 166.261,78.2499 178.5,71C 174.213,65.6426 174.547,60.6426 179.5,56C 182.76,55.2165 185.927,55.3832 189,56.5C 188.149,44.6693 193.316,40.1693 204.5,43C 205.126,43.7504 205.626,44.5838 206,45.5C 209.449,38.526 214.949,36.026 222.5,38C 227.714,40.5473 230.547,44.714 231,50.5C 239.293,47.8949 247.793,47.0615 256.5,48C 267.736,51.6426 279.069,54.9759 290.5,58C 312.016,66.2243 324.016,81.7243 326.5,104.5C 325.686,115.127 321.186,123.794 313,130.5C 313.94,141.172 313.606,151.839 312,162.5C 309.298,170.732 306.465,178.898 303.5,187C 304.909,191.987 306.742,196.82 309,201.5C 309.667,204.833 309.667,208.167 309,211.5C 307.773,213.726 305.939,215.226 303.5,216C 298.41,216.573 293.41,216.073 288.5,214.5C 286.701,214.577 285.034,215.077 283.5,216C 278.833,221.333 274.167,226.667 269.5,232C 261.97,236.655 253.97,237.655 245.5,235C 238.914,231.793 232.747,227.959 227,223.5C 217.332,228.002 210.166,235.002 205.5,244.5C 209.763,255.456 213.93,266.456 218,277.5C 236.723,285.912 256.39,290.245 277,290.5C 289.563,289.777 302.063,288.443 314.5,286.5C 317.567,286.607 320.567,287.107 323.5,288C 326.998,290.499 330.832,292.332 335,293.5C 340.101,292.533 344.601,290.366 348.5,287C 337.816,278.988 329.316,269.154 323,257.5C 319.49,244.68 324.324,238.847 337.5,240C 341.916,242.412 345.749,245.578 349,249.5C 356.5,258.5 364,267.5 371.5,276.5C 393.015,280.172 403.181,292.838 402,314.5C 401.235,317.196 400.068,319.696 398.5,322C 404.591,321.238 410.758,320.404 417,319.5C 418.5,319.833 420,320.167 421.5,320.5C 422.426,324.094 422.759,327.76 422.5,331.5C 424.833,331.5 427.167,331.5 429.5,331.5C 428.598,292.501 428.098,253.501 428,214.5C 443.426,213.343 458.926,213.176 474.5,214C 475.475,219.741 475.808,225.575 475.5,231.5C 483.507,231.334 491.507,231.5 499.5,232C 501.764,232.236 503.931,232.736 506,233.5C 505.228,266.037 503.728,298.537 501.5,331C 505.671,333.672 509.005,337.172 511.5,341.5 Z M 445.5,241.5 C 452.833,241.5 460.167,241.5 467.5,241.5C 467.5,243.833 467.5,246.167 467.5,248.5C 456.82,249.001 446.153,249.667 435.5,250.5C 435.5,247.833 435.5,245.167 435.5,242.5C 439.042,242.813 442.375,242.479 445.5,241.5 Z M 413.5,324.5 C 414.833,324.5 416.167,324.5 417.5,324.5C 417.5,326.833 417.5,329.167 417.5,331.5C 408.474,331.569 399.474,331.735 390.5,332C 391.878,330.287 393.545,328.953 395.5,328C 401.697,327.138 407.697,325.971 413.5,324.5 Z"/></g>
<g><path style="opacity:1" fill="#ac7777" d="M 216.5,44.5 C 218.484,44.3832 220.15,45.0499 221.5,46.5C 222.932,50.0192 223.766,53.6858 224,57.5C 224.739,58.5742 225.739,59.2409 227,59.5C 236.83,55.7522 246.997,54.5855 257.5,56C 268.034,59.7334 278.701,63.0667 289.5,66C 308.707,73.8395 318.207,88.0061 318,108.5C 315.575,119.258 309.075,126.091 298.5,129C 288.497,129.083 278.497,129.083 268.5,129C 258.925,130.87 252.425,136.37 249,145.5C 247.634,154 245.634,162.333 243,170.5C 240.044,175.231 235.878,177.064 230.5,176C 229.299,175.097 228.465,173.931 228,172.5C 227.333,169.167 227.333,165.833 228,162.5C 231.481,155.556 233.648,148.223 234.5,140.5C 232.878,130.718 227.045,125.718 217,125.5C 203.263,128.739 195.763,137.406 194.5,151.5C 194.893,154.864 195.06,158.197 195,161.5C 185.56,169.82 176.56,169.487 168,160.5C 160.863,143.877 158.196,126.544 160,108.5C 164.016,91.1554 174.349,79.4887 191,73.5C 191.667,72.5 191.667,71.5 191,70.5C 187.667,68.7532 184.833,66.4199 182.5,63.5C 183,63.1667 183.5,62.8333 184,62.5C 188.923,65.3444 194.089,66.011 199.5,64.5C 200.631,62.9255 200.798,61.2588 200,59.5C 198.304,57.4404 197.137,55.1071 196.5,52.5C 196.434,50.7336 197.268,49.7336 199,49.5C 201.809,52.9803 204.642,56.4803 207.5,60C 209.367,60.7112 210.867,60.2112 212,58.5C 211.733,53.1604 213.233,48.4937 216.5,44.5 Z"/></g>
<g><path style="opacity:1" fill="#fbceb7" d="M 214.5,132.5 C 225.87,132.374 229.703,137.707 226,148.5C 224.056,152.723 222.389,157.056 221,161.5C 218.255,179.433 225.421,185.933 242.5,181C 247.295,177.245 250.462,172.412 252,166.5C 252.837,158.974 254.503,151.641 257,144.5C 261.419,138.179 267.586,135.179 275.5,135.5C 285.674,136.78 295.674,136.78 305.5,135.5C 308.004,151.146 305.171,165.813 297,179.5C 296.333,184.167 296.333,188.833 297,193.5C 299.735,198.207 301.568,203.207 302.5,208.5C 296.505,207.659 290.505,207.159 284.5,207C 282.004,208.08 279.67,209.414 277.5,211C 273.167,216 268.833,221 264.5,226C 257.003,229.542 249.67,229.209 242.5,225C 231.632,218.065 221.298,210.398 211.5,202C 202.837,193.677 196.171,184.011 191.5,173C 194.47,170.843 197.47,168.676 200.5,166.5C 206.034,170.47 211.534,170.47 217,166.5C 217.825,164.299 217.325,162.466 215.5,161C 206.424,164.143 201.758,160.643 201.5,150.5C 202.734,142.266 207.067,136.266 214.5,132.5 Z"/></g>
<g><path style="opacity:1" fill="#151210" d="M 209.5,138.5 C 213.287,137.814 216.454,138.814 219,141.5C 220.52,145.375 220.854,149.375 220,153.5C 219.612,154.428 218.945,155.095 218,155.5C 216.604,154.606 215.104,153.939 213.5,153.5C 211.675,154.651 209.675,155.318 207.5,155.5C 207.178,153.278 207.845,151.444 209.5,150C 211.81,149.503 214.143,149.337 216.5,149.5C 217.167,144.167 214.833,141.833 209.5,142.5C 209.5,141.167 209.5,139.833 209.5,138.5 Z"/></g>
<g><path style="opacity:1" fill="#faccb6" d="M 184.5,178.5 C 193.605,194.134 205.605,207.3 220.5,218C 212.881,222.564 206.381,228.397 201,235.5C 194.919,224.337 188.586,213.337 182,202.5C 179.408,199.238 176.241,196.738 172.5,195C 177.492,190.182 181.492,184.682 184.5,178.5 Z"/></g>
<g><path style="opacity:1" fill="#58cdf8" d="M 163.5,200.5 C 170.599,200.754 175.765,204.087 179,210.5C 191.436,230.697 201.103,252.03 208,274.5C 192.781,266.296 179.281,255.796 167.5,243C 163.513,242.661 162.013,244.494 163,248.5C 197.304,283.611 239.138,300.111 288.5,298C 292.56,312.234 293.56,326.734 291.5,341.5C 247.002,342.958 204.669,334.125 164.5,315C 154.878,309.045 146.878,301.378 140.5,292C 137,291.5 135.5,293 136,296.5C 138.305,300.304 140.805,303.97 143.5,307.5C 126.811,331.921 119.978,358.921 123,388.5C 125.375,401.411 126.875,414.411 127.5,427.5C 127.79,434.647 126.957,441.647 125,448.5C 107.907,449.658 90.7405,449.825 73.5,449C 67.5276,446.15 64.6943,441.317 65,434.5C 63.7476,418.849 63.4143,403.182 64,387.5C 68.4804,385.022 71.4804,381.355 73,376.5C 73.6667,371.167 73.6667,365.833 73,360.5C 69.9504,344.617 68.2837,328.617 68,312.5C 84.3032,261.713 116.137,224.38 163.5,200.5 Z"/></g>
<g><path style="opacity:1" fill="#885e5e" d="M 467.5,236.5 C 467.5,231.5 467.5,226.5 467.5,221.5C 456.833,221.5 446.167,221.5 435.5,221.5C 435.5,226.833 435.5,232.167 435.5,237.5C 434.511,232.025 434.178,226.358 434.5,220.5C 445.833,220.5 457.167,220.5 468.5,220.5C 468.821,226.026 468.488,231.36 467.5,236.5 Z"/></g>
<g><path style="opacity:1" fill="#ad7777" d="M 467.5,236.5 C 456.828,236.686 446.161,237.019 435.5,237.5C 435.5,232.167 435.5,226.833 435.5,221.5C 446.167,221.5 456.833,221.5 467.5,221.5C 467.5,226.5 467.5,231.5 467.5,236.5 Z"/></g>
<g><path style="opacity:1" fill="#e86964" d="M 21.5,225.5 C 33.7236,224.194 42.2236,229.194 47,240.5C 55.8414,285.206 62.1747,330.206 66,375.5C 64.8333,378 63,379.833 60.5,381C 52.1139,384.287 43.4473,385.62 34.5,385C 30.3333,383.5 27.5,380.667 26,376.5C 24.5921,372.943 23.5921,369.276 23,365.5C 15.8573,323.025 10.5239,280.358 7,237.5C 7.63547,236.034 8.46881,234.7 9.5,233.5C 13.2688,230.382 17.2688,227.715 21.5,225.5 Z"/></g>
<g><path style="opacity:1" fill="#c6de7c" d="M 474.5,239.5 C 482.5,239.5 490.5,239.5 498.5,239.5C 498.807,245.093 498.473,250.593 497.5,256C 489.841,256.5 482.174,256.666 474.5,256.5C 474.5,250.833 474.5,245.167 474.5,239.5 Z"/></g>
<g><path style="opacity:1" fill="#e06661" d="M 330.5,246.5 C 335.244,246.725 338.91,248.892 341.5,253C 339,255.5 336.5,258 334,260.5C 329.738,256.589 328.572,251.922 330.5,246.5 Z"/></g>
<g><path style="opacity:1" fill="#ab7676" d="M 465.5,318.5 C 456.167,318.5 446.833,318.5 437.5,318.5C 437.818,313.968 437.485,309.634 436.5,305.5C 436.65,288.487 436.316,271.487 435.5,254.5C 446.2,254.231 456.867,253.564 467.5,252.5C 467.291,274.674 466.625,296.674 465.5,318.5 Z"/></g>
<g><path style="opacity:1" fill="#e0c27a" d="M 343.5,256.5 C 345.085,257.002 345.585,258.002 345,259.5C 342.936,262.274 340.436,264.107 337.5,265C 336.549,264.282 336.383,263.449 337,262.5C 339.664,261.002 341.83,259.002 343.5,256.5 Z"/></g>
<g><path style="opacity:1" fill="#c6df7c" d="M 474.5,260.5 C 482.167,260.5 489.833,260.5 497.5,260.5C 497.092,276.845 496.425,293.178 495.5,309.5C 488.167,309.5 480.833,309.5 473.5,309.5C 473.589,293.161 473.922,276.827 474.5,260.5 Z"/></g>
<g><path style="opacity:1" fill="#dec079" d="M 348.5,261.5 C 349.837,262.315 350.837,263.482 351.5,265C 349.165,268.313 346.165,270.313 342.5,271C 341.833,270.333 341.167,269.667 340.5,269C 343.432,266.715 346.098,264.215 348.5,261.5 Z"/></g>
<g><path style="opacity:1" fill="#54c5ed" d="M 353.5,268.5 C 357.282,271.452 360.615,274.952 363.5,279C 360.95,280.442 358.284,281.608 355.5,282.5C 352.646,279.812 349.646,277.312 346.5,275C 348.729,272.6 351.063,270.433 353.5,268.5 Z"/></g>
<g><path style="opacity:1" fill="#fbceb7" d="M 365.5,285.5 C 382.64,283.991 392.307,291.657 394.5,308.5C 392.996,319.195 387.33,327.028 377.5,332C 364.838,332.5 352.171,332.667 339.5,332.5C 340.191,322.135 339.191,311.969 336.5,302C 339.858,299.892 343.525,298.226 347.5,297C 353.089,292.381 359.089,288.548 365.5,285.5 Z"/></g>
<g><path style="opacity:1" fill="#181513" d="M 366.5,289.5 C 371.635,288.426 375.468,290.093 378,294.5C 378.783,296.319 378.283,297.652 376.5,298.5C 375.059,297.135 373.726,295.635 372.5,294C 370.833,293.667 369.167,293.333 367.5,293C 366.663,291.989 366.33,290.822 366.5,289.5 Z"/></g>
<g><path style="opacity:1" fill="#57caf4" d="M 305.5,294.5 C 319.696,291.336 328.53,296.669 332,310.5C 332.667,318.167 332.667,325.833 332,333.5C 330.786,335.049 329.286,336.215 327.5,337C 321.861,338.08 316.195,338.913 310.5,339.5C 311.712,324.124 310.046,309.124 305.5,294.5 Z"/></g>
<g><path style="opacity:1" fill="#2488be" d="M 292.5,296.5 C 295.518,296.335 298.518,296.502 301.5,297C 306.711,311.069 308.378,325.569 306.5,340.5C 302.833,340.5 299.167,340.5 295.5,340.5C 297.366,325.615 296.366,310.949 292.5,296.5 Z"/></g>
<g><path style="opacity:1" fill="#120f0e" d="M 379.5,301.5 C 385.457,302.129 388.123,305.463 387.5,311.5C 386.178,311.67 385.011,311.337 384,310.5C 382.83,307.228 381.33,304.228 379.5,301.5 Z"/></g>
<g><path style="opacity:1" fill="#57cbf6" d="M 145.5,310.5 C 161.475,322.152 179.142,330.652 198.5,336C 181.833,336.333 165.167,336.667 148.5,337C 148,337.5 147.5,338 147,338.5C 145.534,355.814 144.868,373.147 145,390.5C 145.5,391 146,391.5 146.5,392C 158.325,393.785 170.159,394.951 182,395.5C 182.5,413.164 182.667,430.83 182.5,448.5C 164.833,448.5 147.167,448.5 129.5,448.5C 132.419,429.38 131.586,410.38 127,391.5C 124.845,372.346 126.845,353.679 133,335.5C 136.666,326.835 140.833,318.501 145.5,310.5 Z"/></g>
<g><path style="opacity:1" fill="#c8e17e" d="M 473.5,313.5 C 477.5,313.5 481.5,313.5 485.5,313.5C 488.5,313.5 491.5,313.5 494.5,313.5C 494.5,316.167 494.5,318.833 494.5,321.5C 494.5,324.833 494.5,328.167 494.5,331.5C 487.5,331.5 480.5,331.5 473.5,331.5C 473.5,325.5 473.5,319.5 473.5,313.5 Z"/></g>
<g><path style="opacity:1" fill="#684747" d="M 436.5,305.5 C 437.485,309.634 437.818,313.968 437.5,318.5C 446.833,318.5 456.167,318.5 465.5,318.5C 456.014,319.494 446.348,319.827 436.5,319.5C 436.5,314.833 436.5,310.167 436.5,305.5 Z"/></g>
<g><path style="opacity:1" fill="#4f5931" d="M 485.5,313.5 C 488.625,312.521 491.958,312.187 495.5,312.5C 495.81,315.713 495.477,318.713 494.5,321.5C 494.5,318.833 494.5,316.167 494.5,313.5C 491.5,313.5 488.5,313.5 485.5,313.5 Z"/></g>
<g><path style="opacity:1" fill="#4b3434" d="M 445.5,323.5 C 452.313,322.509 459.313,322.175 466.5,322.5C 466.81,325.713 466.477,328.713 465.5,331.5C 465.5,328.833 465.5,326.167 465.5,323.5C 458.833,323.5 452.167,323.5 445.5,323.5 Z"/></g>
<g><path style="opacity:1" fill="#a67272" d="M 445.5,323.5 C 452.167,323.5 458.833,323.5 465.5,323.5C 465.5,326.167 465.5,328.833 465.5,331.5C 456.348,332.494 447.015,332.827 437.5,332.5C 437.5,329.5 437.5,326.5 437.5,323.5C 440.167,323.5 442.833,323.5 445.5,323.5 Z"/></g>
<g><path style="opacity:1" fill="#515b32" d="M 473.5,313.5 C 473.5,319.5 473.5,325.5 473.5,331.5C 480.5,331.5 487.5,331.5 494.5,331.5C 487.352,332.492 480.019,332.825 472.5,332.5C 472.177,325.978 472.51,319.645 473.5,313.5 Z"/></g>
<g><path style="opacity:1" fill="#f3b16d" d="M 341.5,339.5 C 394.879,339.017 448.213,339.517 501.5,341C 503.049,342.214 504.215,343.714 505,345.5C 505.167,348.833 505.333,352.167 505.5,355.5C 504.652,366.826 503.985,378.159 503.5,389.5C 386.163,388.453 268.83,387.453 151.5,386.5C 151.977,372.156 152.643,357.822 153.5,343.5C 173.844,343.718 194.177,343.384 214.5,342.5C 230.254,343.594 245.921,345.428 261.5,348C 277.526,348.801 293.526,348.468 309.5,347C 320.222,344.151 330.888,341.651 341.5,339.5 Z"/></g>
<g><path style="opacity:1" fill="#b5bfce" d="M 49.5,390.5 C 51.8333,390.5 54.1667,390.5 56.5,390.5C 56.3362,407.884 57.1695,425.217 59,442.5C 59.9372,445.656 61.4372,448.489 63.5,451C 59.0998,451.978 54.9331,451.478 51,449.5C 49.4828,430.179 47.9828,410.846 46.5,391.5C 47.791,391.737 48.791,391.404 49.5,390.5 Z"/></g>
<g><path style="opacity:0.999" fill="#f4b26d" d="M 224.5,436.5 C 224.5,446.167 224.5,455.833 224.5,465.5C 212.833,465.5 201.167,465.5 189.5,465.5C 189.5,442.167 189.5,418.833 189.5,395.5C 200.799,396.767 211.966,396.767 223,395.5C 223.512,409.169 224.012,422.836 224.5,436.5 Z"/></g>
<g><path style="opacity:1" fill="#f3b26d" d="M 477.5,396.5 C 477.5,418.167 477.5,439.833 477.5,461.5C 466.167,461.5 454.833,461.5 443.5,461.5C 443.835,439.798 444.835,418.131 446.5,396.5C 456.854,397.337 467.188,397.337 477.5,396.5 Z"/></g>
<g><path style="opacity:1" fill="#ae7f4e" d="M 477.5,396.5 C 478.497,418.327 478.831,440.327 478.5,462.5C 466.655,462.828 454.988,462.495 443.5,461.5C 454.833,461.5 466.167,461.5 477.5,461.5C 477.5,439.833 477.5,418.167 477.5,396.5 Z"/></g>
<g><path style="opacity:1" fill="#bb8854" d="M 224.5,436.5 C 225.494,446.319 225.827,456.319 225.5,466.5C 213.322,466.828 201.322,466.495 189.5,465.5C 201.167,465.5 212.833,465.5 224.5,465.5C 224.5,455.833 224.5,446.167 224.5,436.5 Z"/></g>
</svg>
