<?xml version="1.0" encoding="UTF-8"?>
<svg version="1.1" xmlns="http://www.w3.org/2000/svg" width="512" height="512">
<path d="M0 0 C0.62937604 2.06411478 1.17717401 4.15327603 1.6875 6.25 C6.20518289 22.50706326 15.55136552 35.94899766 30.23828125 44.5390625 C47.22339756 53.52411696 64.53314203 56.68747936 83.3125 50.99609375 C90.88479123 48.29042837 97.44961742 44.63849646 104 40 C105.03125 39.278125 106.0625 38.55625 107.125 37.8125 C118.43695545 27.77559155 124.69840363 13.45172447 128 -1 C139.39393694 7.91699412 147.12723766 19.45846288 154 32 C154.34804688 32.63421875 154.69609375 33.2684375 155.0546875 33.921875 C168.49483581 58.78109669 184.34359877 98.75074288 178.5546875 127.1875 C176.13697725 133.63472733 172.76952893 138.28289206 166.875 141.9375 C154.62350674 146.14515469 140.34521233 140.91501183 128.3046875 138.07421875 C126.10401374 137.56468582 123.90309144 137.05622525 121.70193481 136.54878235 C117.10588424 135.48648453 112.51190813 134.4157859 107.91943359 133.33813477 C102.05377483 131.96176442 96.18494072 130.59960401 90.31471062 129.24287701 C84.68528976 127.94129875 79.057389 126.63320785 73.4296875 125.32421875 C72.36722683 125.07753637 71.30476616 124.830854 70.21010971 124.5766964 C67.18073953 123.87195891 64.15247075 123.1626774 61.12451172 122.4519043 C60.24424316 122.24762314 59.36397461 122.04334198 58.45703125 121.83287048 C47.00303492 119.13076656 38.39415034 117.07982233 31 107.375 C29.02751906 100.71787683 28.69300295 93.03730653 31.5 86.5625 C34.51237564 81.46629461 39.43775001 77.85408333 45 76 C55.16516378 75.12540046 64.47987597 77.1100902 74.2578125 79.5 C75.77872098 79.86008495 77.29995838 80.21878315 78.82150269 80.57617188 C82.78524894 81.51059623 86.74481377 82.46160419 90.70355225 83.41699219 C97.07191265 84.95029137 103.44699694 86.45550432 109.82101059 87.96508789 C112.03951768 88.49267661 114.25657962 89.02599992 116.47341919 89.56054688 C117.82618066 89.88416291 119.17895309 90.20773315 120.53173828 90.53125 C121.71164337 90.81548828 122.89154846 91.09972656 124.10720825 91.39257812 C126.99668287 92.10274818 126.99668287 92.10274818 130 92 C127.32399813 82.21956839 124.34588465 72.89487539 120.13671875 63.66015625 C119 61 119 61 119 59 C117.35 59.33 115.7 59.66 114 60 C114.38671875 60.78761719 114.7734375 61.57523438 115.171875 62.38671875 C118.86901789 70.11960425 121.69913033 77.73040373 124 86 C116.14025913 85.47109747 108.70279383 83.93254218 101.0546875 82.09375 C99.84483185 81.80898804 98.6349762 81.52422607 97.38845825 81.23083496 C93.54918366 80.32658717 89.71195863 79.41402094 85.875 78.5 C82.03086369 77.58621411 78.18602942 76.67545842 74.34011841 75.76916504 C71.95506337 75.20690887 69.57095429 74.64061994 67.18795776 74.06970215 C55.93425509 71.41246075 46.61743667 69.3151339 36.25 75.625 C29.80458346 80.24815218 26.54870873 86.25645633 25 94 C24.24706447 102.13170369 26.45489071 108.52859282 31.5625 114.8125 C39.36741944 124.02734037 54.7458383 125.22562949 65.90234375 127.73046875 C67.83159778 128.17000771 69.76067743 128.61031275 71.68959045 129.05134583 C76.73869559 130.20385286 81.78989705 131.34688263 86.8416748 132.48760986 C92.99706618 133.87919286 99.15015142 135.28092987 105.30331516 136.68232441 C110.085512 137.7714547 114.86811147 138.858682 119.65208435 139.93998718 C120.52845047 140.13862366 121.40481659 140.33726013 122.30773926 140.54191589 C123.94378459 140.91274004 125.58008654 141.28243455 127.21669006 141.65078735 C130.19692976 142.32750966 133.09851331 143.03283777 136 144 C136.06870153 178.22617379 136.12154676 212.45233181 136.15319599 246.67855968 C136.156948 250.7214162 136.16083098 254.76427259 136.16479492 258.80712891 C136.16558185 259.61197179 136.16636878 260.41681467 136.16717956 261.24604674 C136.18022519 274.26936303 136.20387438 287.29263951 136.23145839 300.3159322 C136.25953606 313.6840247 136.27618125 327.05209638 136.28226548 340.42021716 C136.28637703 348.66572864 136.29935212 356.91112754 136.3237494 365.15660436 C136.33963576 370.81469197 136.34439381 376.47272158 136.34050413 382.13082986 C136.33858707 385.39283562 136.34312984 388.65460425 136.35761642 391.91658401 C136.37258078 395.4602819 136.36893876 399.00350133 136.36076355 402.54721069 C136.36950207 403.56863832 136.3782406 404.59006594 136.38724393 405.64244592 C136.32130912 416.24416193 133.88240641 424.58976587 126.6875 432.5625 C117.72111563 440.6948021 110.04987786 442.59780928 98.140625 442.30859375 C88.35234524 441.77967549 82.01706495 436.29072304 75.49609375 429.4140625 C66.47277395 418.37059648 68.59302678 401.79156908 68.65942383 388.51464844 C68.66027101 386.13852448 68.65979318 383.76239974 68.65809631 381.38627625 C68.65723851 374.96356844 68.67482962 368.54103004 68.69581819 362.11836147 C68.71415911 356.07786209 68.71569215 350.0373484 68.7187738 343.99682584 C68.72532278 332.04065813 68.74524152 320.08455219 68.77368164 308.12841797 C68.8012626 296.52132473 68.82247636 284.91424834 68.83520508 273.30712891 C68.83599325 272.59041565 68.83678142 271.8737024 68.83759347 271.13527057 C68.84150888 267.53935711 68.84529993 263.94344354 68.84902918 260.34752989 C68.88007665 230.56497667 68.93309448 200.78249559 69 171 C65.37 171 61.74 171 58 171 C58.00276538 172.25436828 58.00553076 173.50873655 58.00837994 174.80111599 C58.07338523 204.59242167 58.12283743 234.38370902 58.15319599 264.17506826 C58.15694801 267.8436817 58.16083098 271.51229499 58.16479492 275.1809082 C58.16558185 275.91124803 58.16636878 276.64158785 58.16717956 277.39405919 C58.18022542 289.21204602 58.20387474 301.02998897 58.23145839 312.8479498 C58.25953543 324.97867364 58.27618112 337.10937453 58.28226548 349.24012953 C58.28637717 356.7225187 58.29935297 364.20478383 58.3237494 371.68713481 C58.34151573 377.42933464 58.34335981 383.17145539 58.33932304 388.91367722 C58.34014769 391.26585083 58.34610592 393.61802919 58.35761642 395.97017479 C58.37257932 399.18580873 58.36893942 402.40091531 58.36076355 405.61656189 C58.36950207 406.54362865 58.3782406 407.47069541 58.38724393 408.4258551 C58.31661653 418.72884863 55.2240608 426.5949897 48 434 C38.38728015 441.82391807 28.99252006 442.91797504 17 442 C9.23367534 440.37472941 3.14335202 435.95492631 -2 430 C-5.83332783 423.8245912 -8.12111228 418.24062363 -8.1386652 410.94613361 C-8.14413964 409.67220448 -8.14961409 408.39827534 -8.15525442 407.08574229 C-8.1563307 405.66395786 -8.15731538 404.24217335 -8.15821838 402.82038879 C-8.16278253 401.31637095 -8.16778233 399.81235437 -8.17318195 398.3083393 C-8.18678929 394.16494726 -8.19418891 390.02156344 -8.20060861 385.87815487 C-8.20860117 381.41394339 -8.22230287 376.94974908 -8.23532104 372.48554993 C-8.25710005 364.74753671 -8.27523933 357.00952178 -8.29092598 349.27149391 C-8.31361164 338.08352149 -8.34175627 326.89556808 -8.37124526 315.70761176 C-8.41893717 297.5571174 -8.46219702 279.40661527 -8.50268555 261.25610352 C-8.54203234 243.62165726 -8.5834566 225.98721792 -8.62768555 208.3527832 C-8.63040982 207.26630498 -8.63313409 206.17982676 -8.63594092 205.06042496 C-8.64962026 199.61003484 -8.66334056 194.15964483 -8.67708123 188.70925486 C-8.79107112 143.47285096 -8.89787492 98.23643214 -9 53 C-10.75750881 54.43203593 -12.51418367 55.86509537 -14.27050781 57.29858398 C-15.24884583 58.09650864 -16.22718384 58.89443329 -17.23516846 59.71653748 C-20.49543519 62.4091778 -23.65548924 65.18219395 -26.75 68.0625 C-27.29946289 68.57216309 -27.84892578 69.08182617 -28.41503906 69.60693359 C-32.57512099 73.50932224 -36.33659802 77.62947624 -40 82 C-55.45151183 99.47043759 -55.45151183 99.47043759 -69.35131836 102.63549805 C-70.9133902 103.00191406 -70.9133902 103.00191406 -72.50701904 103.37573242 C-75.94921917 104.18029921 -79.39428524 104.97166714 -82.83984375 105.76171875 C-85.24304141 106.31761001 -87.64616225 106.87383345 -90.04920959 107.43037415 C-95.09074031 108.59555029 -100.13383171 109.75367512 -105.17797852 110.9074707 C-111.6138077 112.38063028 -118.04433782 113.87562174 -124.47371578 115.37665081 C-129.43955833 116.53257286 -134.40857526 117.67435301 -139.37857246 118.8122654 C-141.74893427 119.35719147 -144.11819036 119.90695228 -146.48624992 120.46179771 C-177.6846435 127.75524504 -177.6846435 127.75524504 -186.5625 122.875 C-192.21630556 118.56503259 -195.61994168 114.1512113 -197 107 C-197.62195637 100.15847997 -195.88240136 94.95805928 -192.25 89.25 C-185.64203696 82.64203696 -177.27806737 81.35769341 -168.453125 79.390625 C-167.00996887 79.06053104 -165.5670358 78.72946052 -164.12431335 78.3974762 C-161.07621294 77.69814269 -158.02664655 77.00576213 -154.97579956 76.31851196 C-150.23710468 75.24992145 -145.50424462 74.15685316 -140.77172852 73.0612793 C-127.90333093 70.09006966 -115.0432484 67.13289883 -102.07421875 64.62890625 C-100.45979832 64.30582457 -98.84553012 63.98198085 -97.23144531 63.65722656 C-94.48910092 63.10559771 -91.76300232 62.62233214 -88.99902344 62.17480469 C-79.04899605 60.18912178 -74.52317069 55.20327983 -68.3666687 47.64413452 C-66.37752586 45.25114901 -64.22684232 43.03524915 -62.05078125 40.8125 C-61.27436279 40.0181958 -60.49794434 39.2238916 -59.69799805 38.40551758 C-14.44815025 -7.22407513 -14.44815025 -7.22407513 0 0 Z " fill="#E23939" transform="translate(265,70)"/>
<path d="M0 0 C0.93714844 0.4125 1.87429688 0.825 2.83984375 1.25 C17.74806962 8.61002175 27.0305006 20.80904759 33 36.02734375 C38.33606391 51.88962748 36.69418005 68.21294781 29.4375 83.1875 C21.99116364 97.6983983 10.25473355 107.38580438 -5 113 C-20.94087476 117.9651905 -38.07702039 116.50901522 -53 109 C-68.38994185 99.55571243 -79.3406354 85.95340462 -83.59423828 68.23486328 C-86.63641002 51.47912314 -83.19563253 35.18551065 -74 21 C-66.49168072 11.18986021 -57.41107579 3.76333898 -46 -1 C-45.23945313 -1.32097656 -44.47890625 -1.64195313 -43.6953125 -1.97265625 C-30.34608328 -6.55745542 -12.78644807 -5.69076965 0 0 Z " fill="#E23939" transform="translate(353,4)"/>
</svg>
