<?xml version="1.0" encoding="UTF-8"?>
<!DOCTYPE svg PUBLIC "-//W3C//DTD SVG 1.1//EN" "http://www.w3.org/Graphics/SVG/1.1/DTD/svg11.dtd">
<svg xmlns="http://www.w3.org/2000/svg" version="1.1" width="512px" height="512px" style="shape-rendering:geometricPrecision; text-rendering:geometricPrecision; image-rendering:optimizeQuality; fill-rule:evenodd; clip-rule:evenodd" xmlns:xlink="http://www.w3.org/1999/xlink">
<g><path style="opacity:0.973" fill="#010202" d="M 92.5,-0.5 C 152.833,-0.5 213.167,-0.5 273.5,-0.5C 276.095,1.01439 277.429,3.34772 277.5,6.5C 277.518,10.6365 275.518,13.1365 271.5,14C 212.93,14.1688 154.43,14.6688 96,15.5C 92.564,174.268 105.897,331.601 136,487.5C 137.5,491.667 140.333,494.5 144.5,496C 212.499,496.5 280.499,496.667 348.5,496.5C 354.509,496.666 360.509,496.499 366.5,496C 370.667,494.5 373.5,491.667 375,487.5C 405.102,331.608 418.435,174.275 415,15.5C 407.921,14.5201 400.755,14.1868 393.5,14.5C 361.165,14.6666 328.832,14.5 296.5,14C 294.177,11.8301 292.51,9.33012 291.5,6.5C 292.089,3.72376 293.422,1.39043 295.5,-0.5C 336.5,-0.5 377.5,-0.5 418.5,-0.5C 425.351,2.19081 429.518,7.19081 431,14.5C 434.157,174.946 420.491,333.946 390,491.5C 386.649,501.35 380.149,508.017 370.5,511.5C 293.833,511.5 217.167,511.5 140.5,511.5C 130.851,508.017 124.351,501.35 121,491.5C 90.5095,333.947 76.8428,174.947 80,14.5C 81.5104,7.16635 85.6771,2.16635 92.5,-0.5 Z"/></g>
<g><path style="opacity:1" fill="#cbeefc" d="M 277.5,6.5 C 282.167,6.5 286.833,6.5 291.5,6.5C 292.51,9.33012 294.177,11.8301 296.5,14C 328.832,14.5 361.165,14.6666 393.5,14.5C 396.404,175.389 382.237,334.722 351,492.5C 350.338,493.984 349.504,495.317 348.5,496.5C 280.499,496.667 212.499,496.5 144.5,496C 140.333,494.5 137.5,491.667 136,487.5C 105.897,331.601 92.564,174.268 96,15.5C 154.43,14.6688 212.93,14.1688 271.5,14C 275.518,13.1365 277.518,10.6365 277.5,6.5 Z"/></g>
<g><path style="opacity:1" fill="#90d9f8" d="M 393.5,14.5 C 400.755,14.1868 407.921,14.5201 415,15.5C 418.435,174.275 405.102,331.608 375,487.5C 373.5,491.667 370.667,494.5 366.5,496C 360.509,496.499 354.509,496.666 348.5,496.5C 349.504,495.317 350.338,493.984 351,492.5C 382.237,334.722 396.404,175.389 393.5,14.5 Z"/></g>
<g><path style="opacity:1" fill="#040606" d="M 160.5,164.5 C 160.067,167.195 158.734,169.362 156.5,171C 150.509,171.499 144.509,171.666 138.5,171.5C 142.973,266.984 153.973,361.651 171.5,455.5C 227.331,456.499 283.331,456.832 339.5,456.5C 356.986,362.278 367.986,267.278 372.5,171.5C 308.833,171.5 245.167,171.5 181.5,171.5C 178.092,170.422 176.092,168.089 175.5,164.5C 175.544,160.91 177.211,158.41 180.5,157C 245.833,156.333 311.167,156.333 376.5,157C 381.598,158.433 385.098,161.6 387,166.5C 384.029,240.541 377.029,314.208 366,387.5C 361.881,412.882 357.548,438.215 353,463.5C 351.108,467.058 348.275,469.558 344.5,471C 285.167,471.667 225.833,471.667 166.5,471C 161.572,469.073 158.406,465.573 157,460.5C 148.367,412.006 141.033,363.339 135,314.5C 130.054,268.762 126.22,222.928 123.5,177C 121.718,167.224 125.385,160.558 134.5,157C 141.167,156.333 147.833,156.333 154.5,157C 158.062,158.308 160.062,160.808 160.5,164.5 Z"/></g>
<g><path style="opacity:1" fill="#74cef8" d="M 160.5,164.5 C 165.5,164.5 170.5,164.5 175.5,164.5C 176.092,168.089 178.092,170.422 181.5,171.5C 237.331,172.499 293.331,172.832 349.5,172.5C 345.206,267.557 334.539,361.89 317.5,455.5C 268.833,455.5 220.167,455.5 171.5,455.5C 153.973,361.651 142.973,266.984 138.5,171.5C 144.509,171.666 150.509,171.499 156.5,171C 158.734,169.362 160.067,167.195 160.5,164.5 Z"/></g>
<g><path style="opacity:1" fill="#6abbf2" d="M 181.5,171.5 C 245.167,171.5 308.833,171.5 372.5,171.5C 367.986,267.278 356.986,362.278 339.5,456.5C 283.331,456.832 227.331,456.499 171.5,455.5C 220.167,455.5 268.833,455.5 317.5,455.5C 334.539,361.89 345.206,267.557 349.5,172.5C 293.331,172.832 237.331,172.499 181.5,171.5 Z"/></g>
</svg>
