<?xml version="1.0" encoding="UTF-8"?>
<svg version="1.1" viewBox="0 0 1200 1600" width="1280" height="1280" xmlns="http://www.w3.org/2000/svg">
<path transform="translate(564,420)" d="m0 0h25l30 1 37 5 27 6 24 8 21 9 17 8 19 11 16 11 11 9 13 12 8 7 13 13 7 8 13 17 12 18 11 20 8 20 6 18 5 22 3 18 1 18v31l3 7 5 4 2 3 9-2 7-4 12-4 7-8 14-23 9-16 4-3 21-1 15 6 41 19 21 10 9 7 5 4 9 13 4 12 1 5v15l-3 17-8 24-8 17-12 21-12 19-12 17-5 10-10 36-9 25-9 20-6 13 6 2 4 3-1 6-13 22-11 17-3 1-7-8-5-2-12 14-9 10-18 18-11 9-15 12-17 12-24 15-22 12-23 11-24 6-9 25-8 29-5 24-5 35-1 10h12l2 1-2 17-2 18 1 2v34l-1 32-1 11-1 34-2 37-2 34v12l5 19 10 19 9 11 7 6 14 9 17 8 9 4v17l-1 15-1 4h-185l-1-32-1-167-2-25-93-1-2 30-1 195h-185l-1-2-2-25v-7l1-3 21-8 16-10 12-10 7-10 8-15 5-15 1-5v-17l-3-63-1-6-1-35-1-25-1-18-2-7-3-3-6-38-2-16v-5l1-1 10-1 1-1-1-15-7-39-8-33-5-14-19-10-22-13-24-16-17-13-13-11-12-11-15-15-7-8-10-11-4 2-6 8h-3l-7-10-15-24-4-8 1-5 8-4-5-12-11-25-11-34-6-24-9-14-26-36-12-20-12-22-8-20-5-15-2-10v-21l4-15 7-11 10-10 13-8 37-17 29-13 3-1h22l7 6 9 17 3 2-1-11 2-22 6-31 6-21 10-25 9-17 10-16 10-14 7-9 13-15 10-11 7-8 14-11 10-8 19-13 15-9 21-11 23-9 18-6 28-7 33-5zm342 427-4 5v7l6 21 5-2 6-8v-6l-5-7-4-9zm-128 133-8 6-8 7-19 12-8 5v1h17l17-2 14-7 12-7 7-3-1-3-21-9z" fill="#B1795B"/>
<path transform="translate(858,885)" d="m0 0 3 1 8 16 5 6 6 1 11-1h12l13 7 14 10 16 11 18 13 30 20 1 4 6 2 4 3-1 6-13 22-11 17-3 1-7-8-5-2-12 14-9 10-18 18-11 9-15 12-17 12-24 15-22 12-23 11-24 6-9 25-8 29-5 24-5 35-1 10h12l2 1-2 17-2 18 1 2v34l-1 32-1 11-1 34-2 37-2 34v12l5 19 10 19 9 11 7 6 14 9 17 8 9 4v17l-1 15-1 4h-185l-1-32-1-167-2-25-93-1-2 30-1 195h-185l-1-2-2-25v-7l1-3 21-8 16-10 12-10 7-10 8-15 5-15 1-5v-17l-3-63-1-6-1-35-1-25-1-18-2-7-3-3-6-38-2-16v-5l1-1 10-1 1-1-1-15-7-39-8-33-5-14-19-10-22-13-24-16-17-13-13-11-12-11-15-15-7-8-10-11-4 2-6 8h-3l-7-10-15-24-4-8 1-5 8-4 1-4 19-12 17-12 20-14 15-10 18-8 7-4 4-5 2-6 1-9 3-1 27 1 9 20 7 12 11 16 9 11 15 14 12 10 14 9 12 6-1 12v26l2 10 6 16 7 11 8 10 7 7 11 8 17 10 14 6 9 3 7 3 12 2v2h67l25-6 19-8 16-9 11-8 10-9 7-7 10-15 6-15 2-10v-32l-1-9-1-2 6-3 30-2 10-3 21-12 7-2-3-3-19-8 2-4 10-11 10-13 10-15 9-17 12-30 3-1 16-2z" fill="#36AA76"/>
<path transform="translate(564,420)" d="m0 0h25l30 1 37 5 27 6 24 8 21 9 17 8 19 11 16 11 11 9 13 12 8 7 13 13 7 8 13 17 12 18 11 20 8 20 6 18 5 22 3 18 1 18v21l-1 10-19-9-15-7-7-2-1 9-1 36-1 17-3 11-4 8-4 5-11 6-6 1h-10l-11-4-9-8-5-10-2-8v-15l2-16v-12l-1-1-16-1 5 20v6l-1 1-26 2-65 4h-25l-2-7-1-3-24-6-21-7-23-11-18-12-16-12-15-14-10-9-4-2-19 12-21 12-20 9-19 7-26 8-25 6h-3l2 19 8 40 1 9-2 10-5 10-7 7-7 3h-17l-13-3-4-5-5-12-5-18-7-36-3-12-6 2-16 10-11 9-7 8-3 1-3-11-6-40v-15l2-22 6-31 6-21 10-25 9-17 10-16 10-14 7-9 13-15 10-11 7-8 14-11 10-8 19-13 15-9 21-11 23-9 18-6 28-7 33-5z" fill="#424448"/>
<path transform="translate(772,1298)" d="m0 0h1v30l-1 32-1 11-1 34-2 37-2 34v12l5 19 10 19 9 11 7 6 14 9 17 8 9 4v17l-1 15-1 4h-185l-1-32-1-167-2-25-93-1-2 30-1 195h-185l-1-2-2-25v-7l1-3 21-8 16-10 12-10 7-10 8-15 5-15 1-5v-17l-3-63-1-6-1-35-1-25-1-18-1-7 336-1 6-1 2-17z" fill="#5D62B9"/>
<path transform="translate(582,522)" d="m0 0h58l27 3 26 5 24 7 16 6 16 8 14 8 10 8 10 9 7 7 8 7 6 8 1 2 1 14-3 1-34-12-28-7-32-6-32-3h-94l-49 4-33 5-25 5-31 8-30 10-26 11-23 12-4 2-4-1-1-2 1-9 6-12 8-11 9-11 11-12 11-9 21-14 16-8 20-9 24-8 24-6 31-6z" fill="#6EA0BA"/>
<path transform="translate(425,1254)" d="m0 0 7 1h330l12 1 2 1-2 17-2 18 1 6-3 2-2 17-7 2h-337l-3-3-6-38-2-16v-5l1-1 10-1z" fill="#424448"/>
<path transform="translate(434,1487)" d="m0 0h116v113h-185l-1-2-2-25v-7l1-3 21-8 16-10 12-10 7-10 8-15 5-15z" fill="#B6C8D2"/>
<path transform="translate(651,1486)" d="m0 0 45 1h69l2 6 5 16 9 17 9 11 7 6 14 9 17 8 9 4v17l-1 15-1 4h-185z" fill="#B6C9D3"/>
<path transform="translate(727,1015)" d="m0 0 3 1 1 9v32l-4 16-7 14-9 12-13 13-14 10-18 10-17 7-25 6h-57l-10-1v-2l-12-1-10-4-6-2-18-8-16-10-11-9-8-8-11-16-5-12-3-9-1-7v-26l2-11 4 2 9 22 7 12 8 10 8 9 18 13 17 10 19 8 19 5 8 1h38l26-6 20-8 11-6 17-12 11-10 10-13 9-15 7-19z" fill="#D7D7D7"/>
<path transform="translate(701,764)" d="m0 0 12 2 10 3 10 7 5 5 7 10 4 8 2 8v23l-5 14-6 9-9 10-10 6-7 2h-23l-13-4-9-6-7-7-8-13-3-9-1-5v-17l3-13 6-11 7-9 8-6 8-4 9-2z" fill="#F9FAFA"/>
<path transform="translate(484,779)" d="m0 0 15 1 13 4 10 7 8 8 7 11 3 9 1 5v11l-2 10-5 13-7 11-9 9-12 6-16 2-15-2-12-5-8-6-8-9-5-10-3-10-1-7v-13l4-13 6-12 5-6 9-7 10-5z" fill="#F8F9FA"/>
<path transform="translate(432,1420)" d="m0 0 1 3 81 1h26l9-1 1 9v55l-19 1h-70l-27-1-3-55z" fill="#B1795B"/>
<path transform="translate(651,1423)" d="m0 0 24 1h84l8-1 1 1v18l-2 34-1 11-1 1h-68l-42-1-3-1-1-27v-27z" fill="#B1795B"/>
<path transform="translate(824,1559)" d="m0 0 9 3 4 2v17l-1 15-1 4h-185l1-39 146 1h28z" fill="#D9D8D8"/>
<path transform="translate(374,1559)" d="m0 0 17 2 157 2 1 1 1 20v16h-185l-1-2-2-25v-7l1-3z" fill="#D9D8D8"/>
<path transform="translate(681,776)" d="m0 0h11l10 2 6 5 8 13 4 13 1 8v12l-3 14-6 10-7 7-4 2h-16l-9-4-6-5-6-10-3-7-1-8v-25l5-13 6-9 6-4z" fill="#434549"/>
<path transform="translate(490,789)" d="m0 0h14l8 3 8 6 7 14 2 5 1 7v23l-4 11-6 9-8 7-7 1h-10l-8-4-6-5-7-11-4-13-1-9v-10l2-11 5-13 6-7z" fill="#434448"/>
<path transform="translate(603,919)" d="m0 0h25l2 2 3 31v6l-3 1-64 4h-32l-7-9-5-12v-8l4-6 4-3 5-1 49-4z" fill="#FCFCFC"/>
<path transform="translate(858,885)" d="m0 0 3 1 8 16 5 6 2 2h-2l-2 4-7 8-2 3v7l3 4-1 5-13 11-14 11-16 13-17 11-3 2-5-1-17-7 2-4 10-11 10-13 10-15 9-17 12-30 3-1 16-2z" fill="#424448"/>
<path transform="translate(867,819)" d="m0 0h11l10 4 5 6 5 12v2h2l2 6 2 1-1 2v7l4 14 1 7 6-3-3 10-3 11-6 10-25 2-5-3-6-8-3-6-3-12-4-9-3-10-3-8-2-5v-13l4-9 9-6z" fill="#E29D67"/>
<path transform="translate(323,854)" d="m0 0 8 2 8 4 7 8 1 2v15l-8 38-1 9-3 6-7 6-8 3h-9l-10-5-5-5-3-5-1-9 6-34 5-21 4-8 7-4z" fill="#E29D66"/>
<path transform="translate(582,522)" d="m0 0h58l27 3 26 5 24 7 16 6 16 8 14 8 10 8 10 9 7 7 8 7 6 8 1 2 1 14-3 1-34-12-28-7-32-6-32-3h-94l-49 4-33 5-25 5-31 8-19 6-3-1 14-5 7-2 13-4 9-5h9l8-4 9-2 17-1 16-4 16-2 43-4 13-1 66 1 19 1 9 2 25 2 17 3 10 1 21-2 3-1 1-4-2-11-5-5-8-6-5-5-6-5-11-2-1-2-11-3-10-3-13-4-12-2-13-5-1-1h-5l-1 1h-14l-23-4h-50l-31 2-16 2h-7l4-2 20-3z" fill="#6494B1"/>
<path transform="translate(417,728)" d="m0 0h15l90 8 9 1v9l-2 12-1 2-3 1h-21l-51-2-37-2-6-2v-7l5-17z" fill="#424448"/>
<path transform="translate(527,424)" d="m0 0 8 1v2l-7 1-2 2-9-1-2 5-8 7-25 9-9 4-18 7-18 8-8 4-14 5-11 8-5 4-12 9-12 8-10 8-5 2v-3h-2l-5 5-5 4-3-2 2-4 9-11 12-11 9-7 18-13 15-10 24-13 23-10 24-8 28-7z" fill="#534F54"/>
<path transform="translate(529,1522)" d="m0 0h7l4 4 4 11 2 18v7h-155l-11-2v-1h22l11-7 9-2h14l11 2h10l21-4 16-3 17-5 3-1v-2l5-3h2l2-5 4-6z" fill="#A9C2CA"/>
<path transform="translate(340,919)" d="m0 0 29 1 9 20 7 12 11 16 9 11 15 14 12 10 12 8v1h-24l-8-3-14-11-14-12-10-9-8-6-2-4 4-4-1-6-14-21-6-10-1-1h-8z" fill="#424448"/>
<path transform="translate(966,952)" d="m0 0 4 1 15 10 10 7v3l6 2 4 3-1 6-13 22-11 17-3 1-7-8-14-10-7-7 1-9 3-9 3-12 6-9h2z" fill="#289060"/>
<path transform="translate(458,1019)" d="m0 0 4 2 3 8v6l-3 1 3 19 3 11 5 8 8 11 6 8 7 7 12 9 10 6 14 6 27 8 16 4 16 3 4 3-3 3-3 1h-20l-14-2-18-4-6-2-18-8-16-10-11-9-8-8-11-16-5-12-3-9-1-7v-26z" fill="#ECECEC"/>
<path transform="translate(755,1543)" d="m0 0h12l10 2 6 3 7 3 9 6 4 4-9 2-137-2 2-4 7-11 4-1h10l12 2h38l19-2z" fill="#A9C2CA"/>
<path transform="translate(259,989)" d="m0 0 2 1-3 4 1 7 8 7 5 5 2 3v10l-3 6-2 3h-2l-2 5-3 6-6 7-1 2h-3l-7-10-15-24-4-8 1-5 8-4 1-4 7-3z" fill="#289060"/>
<path transform="translate(979,663)" d="m0 0 8 1 16 7 37 17 21 10 6 4-3 1-14-6-10-3-17-7-7-3v-2l-6-2-13-4-22-1-6 2v2l-5 4-8 13h-2v2h-2l-2 4-10 11-18 6h-5l4-2 9-4 6-7 14-23 9-16 4-3z" fill="#C98D6B"/>
<path transform="translate(301,579)" d="m0 0 5 1 2 2 1 2-5 8-1 5 1 3-6 12-3 16-4 16-5 15-6 15-6 13-2-2 1-17 6-31 6-21 10-25z" fill="#545054"/>
<path transform="translate(678,693)" d="m0 0h8l36 8 28 7 1 2-4 1-31 2-39 4h-8l1-5 6-15z" fill="#B1795B"/>
<path transform="translate(771,760)" d="m0 0h2l-1 4-14 25-7 14h-2l-4-10-7-11-2-4-4-2-11-7-9-3 4-2z" fill="#444549"/>
<path transform="translate(537,848)" d="m0 0 3 1 1 7-5 15-6 9-5 6-7 5-12 3-22 1-10-2-6-3-5-5-9-5-6-7-2-7 3-1 7 8 9 6 10 4 15 2 16-2 12-6 8-8 7-11z" fill="#C68969"/>
<path transform="translate(431,783)" d="m0 0h35l-4 4-10 8-7 11-5 12-2 2-8-10-10-13-11-12v-1z" fill="#444549"/>
<path transform="translate(745,844)" d="m0 0 5 1v11l-6 8-7 7h-2v2l-9 4-12 3h-10l-15-2-7-3-11-7-7-3-7-9-2-3v-5l3-2 7 10 9 8 12 5 5 1h23l11-4 9-7 9-11z" fill="#C88A69"/>
<path transform="translate(410,572)" d="m0 0 2 1-8 6-10 10-8 10-4 3-3 10-4 7 1 5h7l2 3-2 4 2 1-20 11-6 1-2-3 1-9 6-12 8-11 9-11 11-12 11-9z" fill="#6494B1"/>
<path transform="translate(681,776)" d="m0 0h6l3 3 1 4-4 3-14 4-4 15-3 19-2 2-1-1-1-12-1 15h-1v-25l5-13 6-9 6-4z" fill="#524F54"/>
<path transform="translate(221,680)" d="m0 0 2 1-6 5-4 5-16 8-13 6-10 3-13 2-4 1 3-3 32-15 25-11z" fill="#C98D6C"/>
<path transform="translate(824,1559)" d="m0 0 9 3 4 2v17l-1 15-2 4-5-17-6-13-9-6v-1l13-1z" fill="#EDEDED"/>
<path transform="translate(374,1559)" d="m0 0 13 3-3 2-7 6-6 4-3 5-2 21-2-2-2-25v-7l1-3z" fill="#EDEDED"/>
<path transform="translate(482,796)" d="m0 0 2 2-5 5-1 7-1 23v15h-2l-3-10v-20-2l-1 24h-1l-1-7v-10l2-11 4-11z" fill="#595360"/>
<path transform="translate(510,591)" d="m0 0m-9 0h8l3 3-32 6-35 9-19 6-3-1 14-5 7-2 13-4 9-5h9l8-4 9-2z" fill="#6492B2"/>
<path transform="translate(681,776)" d="m0 0h6l-3 1v2l-9 5-4 6h-2l-2 6-3 10-1 5h-2v17h-1v-25l5-13 6-9 6-4z" fill="#535260"/>
<path transform="translate(531,862)" d="m0 0 1 4-9 11-6 5-10 4-14 2h-10l-8-3 4-1 15 1 12-2 12-6 8-8z" fill="#E39E67"/>
<path transform="translate(523,812)" d="m0 0 5 3 2 9v5l-1 1v9l-5-1-2-16v-9z" fill="#524F54"/>
<path transform="translate(408,615)" d="m0 0 3 3 8-3 4 1-25 10-9 3 2-8 12-3h3v-2z" fill="#6492B2"/>
<path transform="translate(824,1559)" d="m0 0 9 3 4 2v17l-1 15-2 4-2-32-2-5-6-3z" fill="#F4F2F0"/>
<path transform="translate(547,1563)" d="m0 0 2 1 1 20v16h-3l-1-5-1-27z" fill="#E4E7E8"/>
<path transform="translate(572,523)" d="m0 0h10l-1 2-4 1-31 2-16 2h-7l4-2 20-3z" fill="#6288B3"/>
<path transform="translate(458,1019)" d="m0 0 4 2 3 8-1 2-5 1-1 6v25h-1l-1-7v-26z" fill="#C3CED4"/>
<path transform="translate(644,1103)" d="m0 0 3 1-16 6-14 3h-44l-6-1v-1h46l26-6z" fill="#AEC4CD"/>
<path transform="translate(479,1100)" d="m0 0 4 2 15 12 7 6-4 1-11-8-10-9z" fill="#F4F5F5"/>
<path transform="translate(506,780)" d="m0 0h8l6 3 4 4-1 5-11-7-8-3z" fill="#C78A69"/>
<path transform="translate(537,807)" d="m0 0 3 1 4 10 1 7-2 6h-2l-3-16-2-6z" fill="#C78969"/>
<path transform="translate(301,579)" d="m0 0 5 1 2 2 1 2-5 8h-2v2l-3 1v-8l2 1v-2h-2l1-5z" fill="#45464A"/>
<path transform="translate(374,1559)" d="m0 0h2v2l-8 4-2 4-1 18-2-3-1-18 1-3z" fill="#F0EDEB"/>
<path transform="translate(727,1015)" d="m0 0 3 1v24l-3-4-1-9v-11z" fill="#E6E8E9"/>
<path transform="translate(236 1e3)" d="m0 0 2 1-1 4-5 10-3 4-3-6 1-5 8-4z" fill="#3AAB7A"/>
<path transform="translate(651,1561)" d="m0 0 3 3v15l-1 16-2 1z" fill="#F4F4F4"/>
<path transform="translate(458,602)" d="m0 0m-1 1 3 2-31 9-6 1 2-2 12-4 7-2z" fill="#638CB3"/>
<path transform="translate(466,598)" d="m0 0h6l2 1v2l-10 3h-6l4-4z" fill="#6494B1"/>
<path transform="translate(410,572)" d="m0 0 2 1-8 6-5 5-4 1 5-5 7-6zm-16 13m-2 1 2 1-7 7v-3z" fill="#6287B4"/>
<path transform="translate(527,424)" d="m0 0 8 1v2l-7 1-2 2-9-1 3-4z" fill="#585256"/>
<path transform="translate(539,526)" d="m0 0h11l-4 2-16 2h-7l4-2z" fill="#638EB2"/>
<path transform="translate(409,784)" d="m0 0h22v1h-15v6l-7-6z" fill="#524F54"/>
<path transform="translate(525,815)" d="m0 0h3l2 9v5l-3-1-2-9z" fill="#5A5259"/>
<path transform="translate(301,579)" d="m0 0 5 1 2 2 1 2-5 8-1-2 2-5-4-1-2-1z" fill="#575153"/>
<path transform="translate(482,796)" d="m0 0 2 2-10 10-1-2 2-5z" fill="#544F55"/>
<path transform="translate(432,811)" d="m0 0 6 3h3l-1 4-2 2-6-7z" fill="#56525C"/>
<path transform="translate(490,792)" d="m0 0h7v3l-12 1z" fill="#524F54"/>
<path transform="translate(171,703)" d="m0 0 1 2-4 2-1 2-10 2 3-3z" fill="#D49E7B"/>
<path transform="translate(255,1049)" d="m0 0 3 1-3 5h-3l-2-4z" fill="#3EAC7C"/>
</svg>
